<mxfile host="65bd71144e">
    <diagram id="t7KsTaLudO0oj0jj6YAO" name="第 1 页">
        <mxGraphModel dx="989" dy="633" grid="0" gridSize="10" guides="1" tooltips="1" connect="1" arrows="1" fold="1" page="1" pageScale="1" pageWidth="1169" pageHeight="827" math="0" shadow="0">
            <root>
                <mxCell id="0"/>
                <mxCell id="1" parent="0"/>
                <mxCell id="3" value="App.vue" style="rounded=0;whiteSpace=wrap;html=1;sketch=1;hachureGap=4;jiggle=2;curveFitting=1;fontFamily=Architects Daughter;fontSource=https%3A%2F%2Ffonts.googleapis.com%2Fcss%3Ffamily%3DArchitects%2BDaughter;fontSize=20;" vertex="1" parent="1">
                    <mxGeometry x="510" y="95" width="120" height="60" as="geometry"/>
                </mxCell>
                <mxCell id="4" value="" style="shape=image;verticalLabelPosition=bottom;labelBackgroundColor=default;verticalAlign=top;aspect=fixed;imageAspect=0;image=data:image/png,iVBORw0KGgoAAAANSUhEUgAACnMAAAe8CAYAAABs9feNAAAAAXNSR0IArs4c6QAAAARnQU1BAACxjwv8YQUAAAAJcEhZcwAAFiUAABYlAUlSJPAAAORjSURBVHhe7N0JvFd1mT/whx1ccL2KKWqIG1gJrpAlakpSopb6t9Q2zSWr0azRbCbHmcl0ytQpM9cWtRy0SbFIbEwqBa0EMnELUQTTREWvilzZ/vc59/zgcrk7Fy7L+/16ne4539/5nfM9y1V68fF5umz04X9dEgAAAAAAAAAAAAB0iq7lTwAAAAAAAAAAAAA6QZdDvnKtypwAAAAAAAAAAAAAnURlTgAAAAAAAAAAAIBO1GVJrXIdgPXEzJkz46BxW5RbAAAAAAAAAADAqjb1hMXl2opU5gQAAAAAAAAAAADoRMKcAAAAAAAAAAAAAJ1ImBMAAAAAAAAAAACgEwlzAgAAAAAAAAAAAHQiYU4AAAAAAAAAAACATiTMCQAAAAAAAAAAANCJhDkBAAAAAAAAAAAAOpEwJwAAAAAAAAAAAEAnEuYEAAAAAAAAAAAA6ETCnAAAAAAAAAAAAACdSJgTAAAAAAAAAAAAoBMJcwIAAAAAAAAAAAB0ImFOAAAAAAAAAAAAgE4kzAkAAAAAAAAAAADQiYQ5AQAAAAAAAAAAADqRMCcAAAAAAAAAAABAJxLmBAAAAAAAAAAAAOhEwpwAAAAAAAAAAAAAnUiYEwAAAAAAAAAAAKATCXMCAAAAAAAAAAAAdCJhTgAAAAAAAAAAAIBOJMwJAAAAAAAAAAAA0ImEOQEAAAAAAAAAAAA6kTAnAAAAAAAAAAAAQCfqsqRWuQ7AemLmzJlx0Lgtyi0AAAAAAAAAAGBVm3rC4rqfU6cWP+tTmRMAAAAAAAAAAACgEwlzAgAAAAAAAAAAAHQiYU4AAAAAAAAAAACATiTMCQAAAAAAAAAAANCJhDkBAAAAAAAAAAAAOpEwJwAAAAAAAAAAAEAnEuYEAAAAAAAAAAAA6ETCnAAAAAAAAAAAAACdSJiTlVdTHdXVdUvNonIMAAAAAAAAAAAAaJU1Msy5aNGieOONN+KZZ56Jp556arklx/Kz3Ie2mXXPRfGZgw6MY74+JqbPKwc7wJy7z40999yzWK57uBwEAAAAAAAAAAAAWqXLklrleqdZvHhxPPfcc/HEE0/E9OnTY8aMGeUnzdt2221jt912i0GDBsU73vGO6NatW/nJWmTKlTHgo5eWG201Mi6feFWM7lduNmtaXLnfEXHpnLqt0d97MC4fVVW3sZLm3HlG7PdP44v1c34+I84cUqy22uTvDohjLis3WnL2bTHjC0PLDaC9Zs6cGQeN26LcAgAAAAAAAAAAVrWpJyyu+zl1avGzvk4Nc7766qvx5z//Of70pz/F3Llzy9H22WyzzWKfffaJvffeOzbddNNydC2w2sKcs2LMZw6M8ybkelWcefPv45xhvYpPVpYwJ6x9hDnXXgft0D0+v1eP6NO9SzmyojfeXhL3zFwUd/xtQbzwRtP/mv/Ggb1iyNZ1/yHE+BkL44o/v12st+Sf9u4ZIwd0L9ZnVi+OM+6aX6y35KoP9o4d+tYVBX/hzSXxH/fXxNOv1v0hpb3qz+XtRRE//uvb8YsnFxbbHemU9/SIY3brETtu0jV61vtvR95csCSm/mNxXDv17fj9rJarhu//jm5x6pCesc82XWPDHnXPMJ9Qdc2SuLf2mf3XgzXNPrO0snPpt1GX+NS7esQHduwe2228/DHyHj7z2uK47fEFcd1fFpSjKy/nfPSudXPuU/e4llpY+wq8Wnv9989eFP9d+w7mO3HC4B7x/3bvEd1rX5e3Fi6Ja6YsiPFPt/xc679jE2uP958Ta4r1prxz067xr+/tFf02rHsWf6i9b9+c1Px3AAAAAAAAAKC91rgwZ4Y477///njggQeipqZj/8K8V69eMWzYsDjggAOib9++5egabOaEuG789HKjntceiTuuGhvTcn3Q6Dhz9B6xSfFBfX1j6PHHxdDWXmb1rJhw96SoefcHY+QuHXdvOi7MOThGn3Fk7LHihS6z08g45ZD+5QbQXp0R5qwfHFzVpvxjUXztd+tmIOvoXbrHv7+/19IgYHNefmtJ/GDK23F9E6G8m47oE8O3q3smYx5bEOdNaN09u3hErzhu9x7F+t/mLo6Rt8wr1pszeufuceH7esUmvermncHDSx54O256pP2BwbwHtxzVJwZvWRfeyz/Q3Pm3hXHW/7UuXNoaO2/WNS4+qFfsWfvuNnfH5y+M+J/ae3jhfU3fw9OG9IzTh/RYeg8ak0HKf689xoRnVwxjdtRcfvzhPvG+/s3/LmbA8u6nF8a599YUz6q9Mrz6b7XPfefNuzY755QB33PumR+TnlsUo3bqHv9Z+8+MTWvv1eLa0988bUFc8Ifm389DduxevJtb9Kk705OvLI6P/u9bzc4/38v/qP192rhnl1hQe8t/MPXtuOyPrQs1AwAAAAAAAEBbrTFhzoULF8Yf//jHuPvuu2PevJaDHysjK3WOHDky3v3ud0f37g1KQK0NXhgbZww/K4qI5KjL48HvjY6OaYre8TouzNmWSqPAyuiMMGf94OCqlhX5TrzzrXJr3VI/zLmo9t/g8xcu+9d4j65dlquymGoWRVz/l7fj2w+uGFBbnWHOyz/QO47Yuftygb57Zy6Mk8e1P3h54h494tz9ey4XbH3u9SXxxd/MLwK9HaF+8PGthRGPv7wonnmt7p5nNcd3b7Wswmbe6wzPXvGnFe91Vpr8yn49o2+vLkXoNKtvPvTColhQ+2e07ft2ifds1a2oQpn+OmdxfPyOFUOIHTWXfO7Dap/7q/OXFPfptfKxb9a7S+zVr2sRbEz5fv20FSHKpozYvltcdGDvohJoyplmBdJ/vLmkCGimXrWX02+jumqd9cOceR0//0if2GXzupuS9+rYXzT/O332vj3j9D17Ro/ydyCrff7L72pi3FNNV/Q8f3ivokpp3vsMP+fvwD3PNL0/AAAAAAAAAKyM5sKcZWxg1cs26j/96U/j9ttvX+VBzpTnu+WWW2LMmDFFJVAAWNfMmbckTv31/HjXdW8Wy27XvFEEK385fWER5ksZlvvQwO5F0K+zZCvrParqKjNmCDErR6ZdNu+2UtVa9+7XLTbo0aWoIvn623XpwC036BL7b9v+YzbUrXbSefxsQ3/Iz94sKj1m4DCXE8a+FZ+4c3488XLdH7TyXh9Re6/zeuvL7Y8P7rE0yJlhxY/+Yl4ROs3jZEjxmqlvL31mu2/RNc7cqy4sW19HzCVlaPK///R2vP+meXHKuLrv5/KZX70Vx9Qe8/HyGHm+g3bo1u5354yhPZcGOTOY+pO/LogDbpwXH/yfeTFqTN1yyM/mxb4/ejP+64G3Y8bcxcX1Vfb/y4uLivuVtt24awxr4bnusWXXpUHOtFHtu5FVTJszqPZeV0K0WRVVkBMAAAAAAACAzrLKkx1Z+POZZ56JH/3oR/HII4+Uo6tPJlh/+MMfFlXoAOg8M6sXFyGx1bHkudZXWSkzQ4K3Pb5gafXDqj5dYs+tmg+1rUofHNC9COOlv7++OP7xZt3z2XrDLnHoO9s3rwyB7tWvrt14VifNapYpQ4xZEbKjvDJ/SVz50Ntxxvj5RTXNhrKy5c2PLlhaRTOvKUOm9eX1DyhDla+8tSRu/OuCFY6VlVMfer4uzZnhwvf1775cxdHUEXNJX/7t/Ljiz2+vUPkz5ftzZ70wcFbr3KmRQGhLsuV55ZrzPbz9yYVF2/fGzpljWUU0q+n+qbwHaVrtM32r3D/brb+7mXc4A6fZyj3l3DMUmvdxx02Wv4f15Xe2Lz/POT760vr7zw0AAAAAAAAAOl/b/3a+DTLI+cQTT8TPfvazeP7558vR1S/PnVVBp0+fXsxpXTLrnuviumtyGROTq3OkOib/+II446MHxoABB8YxP55W7JeW7TshZpVjTal+dHxc9/Uz4piDBtQep1z2OyxOPPeiGPPn4kRtMuu+G8tz1y63TIo57evYusycSXHj0uNNrr3qFrywbP8bJ80pB+tZNCcm33llnHfCYbFf5XoPOibO+PqNMWFm268XWNHXfleztBrfql7yXOu7yS8sirfKFuzZfn2LDZoOta1qe/frWoQsczaT/7Eo/vLi4mI9w3YHbNe92KetsvpmVuFMf39jSdw9Y+HSoGCG+kbt1L7jNpTB2Aw+Nuf+2YvipXl15+5Ze6+367v8vX5v7Vzz+tPDLy6K8U83Xv3xD7XHqVQt3XbjLnFgg1BqR8ylNf5aO8fXauqOke9O/75t/+PiwM2WtXzP9zDfx7aaWjuPDLCm3rWPc/CWTc8jw8qb964735x5yyp87lw7j8aqk6asDJsh0TSv9t2pBIIBAAAAAAAAoDOs0jDn008/Hb/4xS+Kludttfvuu8dnPvOZuPDCC+OSSy4pllzPsfysrXIOt956azGndcmcRy+Kiy7O5d6YPW9OjD/n0Djmwhtj/JSMa86KydXLAk3L9p0WjcQZ68ybHmPOPTD2/PAZcdFN42Ny/YKmc6bHxFuvi/N+NKHp7zeiZsqVcfYnLqg79/WPxFYHDIuqXuWH7VW1XfR6oLye88fEpBZesVn3XRsXFNd+R9RsUlWOlmaPjwuO2y+O+adLY8yk6cuubebkGH/TBfGZgw6Ns26ZHqJhwNpqweIl8XIZ8Fvdskrmu8qKitU1S4qw4X21y5tlW/T+fbvE6J3bHrzM42ZAMisqZjXHnz+xMJ57ve6YfXt2abEld0d6+tXF8XYTOcD61R8XLIp4pJnqjxl4fLUML27YvUvRbr2tmptLe+S7M6sDKt1279r2UOnDLy6OZ19b9t7usvmygGhDg6u6Rp/az3LvrOhZCfZu0adLUcG1Me+q/U626U8vv7UkHmpH4BQAAAAAAAAAOsoqC3O++OKLMW7cuDYHOTfbbLP42Mc+Fp/85Cdjt912iz59+kSXLl2KJddz7FOf+lSceOKJxb5tkXPJOeXc1kUvjvtefP0Xc6Jql9Fxynnnx/lfOClGtCU0OW9yXHnSYXHerXV1O6uGHRfnX3FD3PabB2Pqg3fHbTdcHueMHhgNopDNqnlqTJx7+qUxOTeqRsflP788Rm9XfLSS+scHjz+uXB8Tt9/XXLx0VkwaO6FudcRJMXJQ3Wph9tg466NnxI1TcmNoHHfBVXHn76fG1KkPxt03XxynDMurnRNjzz8hLrpHhU5g7bHjpl2Lyoxp7vzotKqDB+3QfWnFxFnVS2Ls3xbGr59aGDNr11PfXl3i4Np92iKrblZaale/vSQmPbeoCO9lqDPDnXnZGeZsqiJjR9tnm26xcRkKbBic3XGTrrFJWf3xzYVL4omXm34OOf+X3qr7bo9utf/abEc11ebm0lrZHn2jHnXrc+cviadebfu7kwHQ+Yvqzp2BycPa2U7/4TmLllbZzGBmVmRtzO5b1LXcz7bs+T48X7ahz3NnaLMxWT20kjHN9vIZhAUAAAAAAACAzrJKUg5vvPFG/PrXv45nn322HGmdDGcee+yxseeee0bXrk1PLYOd73rXu4p92xrozDnl3HKO65bJce3VN0b/s2+L39x1eZx/6ilxytkXxg2nDi0/b0lNTPrvM+LSItQYMTSPk2HGI0bE0J2qom/VwBg6YnScefnd8ZsLRkTfut2aN3tsnPvx82Js5iyrRsT5P7ykhSDn6/G3yZNi0qSmlunLtVPve+CRcWaZLB3/i3ubbh3/6Pi48b661eOO/2D0r1utNSfGXnxWOb/RcfFvbo6LPzkyBm/XN/r2rYqBGWa99qo4Z0jdvjdeNiaWNa0HWHMN2bpbfHBA9yIQmHm6ic8tjCn/WP1VB7OK4tB+3YrAXAbyHvh73RwyeDm1dj4ZvMws3R5VTbfCbkwGNbP6Znpq7uIY91Rdb/IMQ75eVvzcesMu8d7t2hcgbKu9t+kWm/Wpm0/123XBwIoMc/bqVvfZ/AW1/zZpIVyZ1Usrttu47X9Ma24urZFtyY8f1KMIQea7k8HIrJDZVvlM/vZK3fdyNiN26B43fKhP9Nuobm6t9dALi5e2fM9nnpVOGzpkx+6xTXncbMue7dkfe3lRUaUz371BjbRnz+NkVdiUFVMfayZkCwAAAAAAAACrQ9tTAi1YvHhx3HfffTFtWttjb8OHD48BAwYUYc2W5D477bRTvO997ytHWi/n9uCDDxZzXXfMiTmDL47LvjC0dUHLhh69MS66pq66ZdXRlzd7nL5VfaPFgp9Z5fOfyqBkDI1zfnBVnDKopW9NjCs/f0KccEJTy/iYXu5Z6DU0hh9Tpjkn3BWT6reEr2fafXeUIcxT4sgDl11VzaSfxDfG1a2PPO+cOG6nRua3wdA45exT6tYfvTYmlGFXoO1uOqJPzDhjo9Wy5LnWRxlQ+9rwXnHN4b2LUF6G2SbOXhT/ft/bdTusZkfv2j12LFuMv1qzpHYudaHLlCHBrKqZtt24axE+bY0MfWaYsxIQzQBnRVb9zOqfKYOkB22/6sOceZ+PGNi9aPmeHntpUXFtFRv17LK0+uPrZfXQ5jz/Zt38Uyv+OLSclubSnPzuV4f1ih99uE/sukXHvDu3Pb5waRAz86zZGv/OYzaIz+/Vs8l26Q3d88zCpVU2M5zcWOv5fO8r4d5sy57h02y1nlU6U75fDdvu77lVt6UVY/M9bE9gFQAAAAAAAAA6UoeHOWfMmBF//vOfy63W23777Ytqm81V5GwoA52DBg0qvttWWekx57ouWb7qZNtMvufaMvA4OD578uh2H6ewaFaM/ddKlc+hcc6YG+LMIW3p995avWLYhz5bO+M0Ie76U2O1OSfHhOvrrqzqjINi6NJp1MTk310ZdfHVU+ITo5q+4l677hWji7U5MemJJut/Aqx2/TbsEjePXhaSvf2jG8TJ7+kRm/fpEi+/tSR++JcF8bnx84tKmJ1h737digqPKVtYT3h2WbCwfuXGDB/u3a91//7PaptZdTNlQPSPZbXPivtmL1zalnuXzbsVVUpXlawyecH7ehXhx5Tzuf3JZYHV1LdnRPc2/GlrUZYrLW3ZhjbrrZlLfWfv2zOeOHVZAHr88RvEZ/fsURznlQ56d259fEFceF9NvFCGMVO2Ss9z3117vtaGOitVNlOGThtWcd1jy65F0DOf+6Nlhc2szplVOtOmvbKi5/LvQd6nPuW5MyyaoVEAAAAAAAAA6ExtiBe07K233ooHHnggqqvrN8NunYEDB8amm25abrVefie/21Y5x5xrznndMDKGD2pXTc5as2L6n+pijTHoyBg2qG61XTLI+c/HxFm/yOP1j+O+d1mcuXdr5zUyLr5rakyd2tRySqzQNH7QyDhpRN3qhLGTVmi1XjPp3vhJcWmD47MfGlavouj0mFa2Xo8DekV1c+3dp78YvctdJ84p7xPAGiwjahno/Ohu3eM/3t+rza2tO0KGKPfq162YS7axrrRYr++hFxYtDV6+a6tuReXGlmS1zUoA8MmXlw+Ipgx3ZpAxZejz0HeumjBnXt8PRvYpKj7mbGpqp/HTaQvizumrPxTYkXNZVPs85td+baOeEe/ogPcmA6Vn3j0/7p+97FnnUbMteoY6f3lcnzhu9x51HzThr3MWx7wyVJph0HyvKrIq586b1/1x9o3afbJ9f8pKm1mlM/XuXvungAat1nep/U7OI/fIsCgAAAAAAAAAdLYODXNmpcsnnnii3GqbqqqqNlXlrMjv5Hfb4+GHH46nnnqq3FoHtK5DbSPmxJxKsHHHrWKrcrU97v3m2WWQsypGX3FTXNxMxcvG9O7bN/o2uTRW3bN/HHT0yLrV+8Y2aLVeE5PvG1NXfXPESTFyuZBqTdQ8Wq7ed2Wc0Whb98pyQYwpdwXa78Q734oBV72xWpY81/ogQ3dPvrI4Hn952ZIVMN+qHc+g2ia9usSRu3SP60f1KSoark77b9ttaWXJF+ctiQkzVwzM/WHWonjprbrAXba8PmiH5v9FlqHFrLaZMrB4fyMtxDPcmSHPlBUxD9iu3f9ybFKGD688rHcRJMwrzOfww4ffjm8/uPrb2bd3Lo+8uDhu/9uC+MWTC+O3MxcW705Wc+1We8+23bhLcdyfHtknThjcfNCyNab8Y1GcVPs7+YW758cjcxbHorpHXsx3h75d4z/e1ysuOahXk1U6Mwj6Uu07lLLS67uqlr3L9dulv/jmkvhdvXBvVulcVqW169LjZ+g1W6+nbMWeLdkBAAAAAAAAoLN1WLLj7bffjmnTpkVNTU050jbtCXJWrMx3s+LjulOdc00yJ2Y/PjvaXqO17aoOOCqOK9Ymxo331LVUL1RPiruuqqukOfLog5puHV81MIYfMLx1S6OBUoDOkRUos431qDHzli6H/Gxe7PujN+PHf11QtMjO+NpuW3SNf3nvqvnn1+ImcnBZZTPbp6cnX1lUBPoamvTconjspbrxrrUTHdpvWdXNxmSVzUqL9Qz3PdBImDNlyDPDnql/3y4xeueOCXTm3C7/QO8ifFipdjqndh7fmFgT//VAxwc5q8sKo41Z2bn85pmFce69NXHOPfPjlHHzi3dnn9r35nN3zY9HX1pcVKzMKpjn7NczjhjYMfdv/NMLY/Rt8+Lz4+tCnZWryxbpH9m1R1xYey2NyYDy3+bWvWj5ngyqV2VzcNWydukZbK7fFj6rdGa1zpTXkgHjlMHmbH+fshV7tmQHAAAAAAAAgM7WYWHOf/zjH/Hkk0+WW23X3hBoWpnvZiXRnDsd46CvXhY3fLKuGfrkq06Iz3x3crT/6bTSZiPiyDPqqrNO+99JUYlzVj9wV9xYrB0XRx3QTPXWfT4fl/3kpripNcsnB5dfAlhzZaAtQ57/+8TCogpiRt3etVXXGLVT06G87cpKhW2V1RwbyvNUWl/np/tv2z3+esqGjS75WeUIO27SJY7etek5ZpXNrLaZqjboEj85onejx/zc0B5L9+vbq0sc3ELFz9bIqqA3j+4TR+zcvQgf5pyzpfvpd82Pm6ctqNupERmwzDbzrZXt8StqFpYrDbR3Lq2Rgcuz/29+/O2VuvDkprX376hdOibMWVEJdX799zVL359utZed783pQ8qUZQOPvbx46X3MQG9WIk27b1HXWj4rkk57aflkcVbpzGqdqW/PZd+pHwDNVuzZkh0AAAAAAAAAOlsZdVg5S5Ysiaeffjqqq9tfh3HOnDmxaFHbKyPld/K77ZVB0AyhLm6qtNh6oSr6l53KY9wjMX1l0pfd+seICy6Ly4+uC09OvuyMOPmqVR3o7BXDPvTZKGKWj94Rk4r26dUx6Z665uhVZxwZIzYrVuupd81/mhWzylWAdcnvZy2KV+fXhdk27N4ldt2iQ/61X7S6bk62sc7wXMr/7dO9rpJkY0t+VjlaHnfvfmU5zwayumZW2azoWbtbY8erLBkOTPljj6qu8c5N23/t+7+jW9EGvNLK/PW3l8T3H3o7jr/jrUYrjta3oPaPF3VPIGLj2nuS96Y5OfeK2a+v+GeTlZlLa2UVzHx3Ki3KM5hbCUJ2pAye/tsflgU6e9e+Cwft0Pj9ycBlde21pmyrnu3VD9mxe2xTViV96a3FMem55dOvGWrOap0pQ6+7l+9/JQCa15et2AEAAAAAAABgTdAhfzOfgciZM2eWW+2T33/ttdfKrdbL76zsuWfNmrWet1rvHzvtU6k4eV3c8buVbY7eP0b/x1VxzpBcnxMTv3VGnPuLVRyXHDQsjhyUK9PijvumRbwwIW6/NbcHx2c/NCxWbNxa75rn3BWTiwAosCp948BeMe64DVbLkuciYt6CJUWYsCn1w4JZ7bB+kLA5lQBder6sfFiRockMLGY77PzkrYV1obrmlqyqmPKoe/XrVlSebCira2aVzfT2opaPmddemdm2G3eNDw5oX3XJbMn99QN6xcDan2nma4vjy/fUxKV/bF1b9elzF8e8hXUz2bhn8xVQ8969o7y3eY1/f2P5e7uyc2mL2dWLa+dQd/7utQ+zte9GW/3qqYVFu/2K/rX3Z59tVnz+9zyzMJ6pvd6UVTWzumYGTCuh4aYqbGa1zsr7lffv0B27x1Zlq/5swZ6t2AEAAAAAAABgTdAhYc65c+fG888/X261z7PPPht//etf21QhM/fN7+R3V0bOPa9hfTb4kJNiRLk+5l+/HmNnlxvttcHQOPOKG+KkMtA59pxj4qw7V2Wgc3CM/FTdFUwbOykm/OnXMT43Bh0Zw4qQ54oG739k1DWEnxYX/euVMXlesdGkWbPbXwEWiNihb9fYbYvVs+S5iNisd5ei2mFTMiyYocG05QZd4pAdm68amTKomeHIlG2v//7G8v/efu923YpgaHrz7SVxwR9q4l3XvdnsctGkmiKAmXIe+zeoXpkhx6yumUfNve7424JGj1N/OeK2t+LpV+vm1qv2cHv3a9878cV9ei6taPrEy4vjS/fUxG+eWb4CZHOyPfhrZXXUPt27FNfRlHfVfrZp7TNLWXGzYdvwlZ1LW+Q8MsRZqJ1+pUrnqpDB26VqT1lpkd/Qo7X3Y3HtrjmrrK6519bdioqbzVXYfPjFRfFqTd3xt+jTJQ7ov6xqbLZgz1bsAAAAAAAAALAmaF+yoYEMQr700kvlVvtNnDgxZsyYUbRtb0nuk/vmd1ZWtod/+eWXy6311A7HxYUXlXHOOWPjrI9+Jq6cMD2q6/dHr5kTk++8Ms44d2y0Kta43Yi48IrLY3TRcX1OjP2ns+OCe5oLdM6O3954XVx3TXPLmJjcROHQ/of8vzguVx69Iy69uohyxohPjaxrv96YQSfF+V8oP51yaZzx2Yti7KPVy7eEX1QTs6aMiYs+c2AcuKqriwJ0sEPf2X1pcO3NhUuKAGB9GXSrtK7OqpdHDGy5emVWuKzaoO6Yr9V+d8oLy4fhDtq+29IqjjOrl8Svn2o5bPiLJxbGc6/XzSODlyNqj1FfnrMSIK2uWRL3z245gJdBzodq51b5E8W7tuq2wnFbkvvv9466ltx53h8/sqDNrcxzHn+dU3ffMxs5tN+y+9NQ/eqjM2q/l9UoKzpiLm2RoehsZZ9eemtJ/On5tp2r30atr+ZZv21/BoAbq7CZ8j5Wgp/5Du5Yts5vrsJmVv18rqxA27t7l+L+VwLO2YK9EiIGAAAAAAAAgM7WIWHOf/zjH+XayslQ6K233lpU22wu0Jmf5T65b0dV1JwzR9XF/sdfFbd9ZXjUZS8nxKWfOSz23H1ADBhQLrvvF8f806Ux/s1i99bZbnRc8oNzygqYk+PGz54dV05ZLi5Zz7QYe9VFcdHFzS33xuymKmhuNiKOPDVXpsW0om36cfH/DumfK03oFUNPuywuPrq44pgz6bo468N7xu6113rgR0+Mw/arveadd69dPy+umyDICStrZvXiePzl1bPkudZnGaL7j/f3KkKQleKKj85ZHOMaBCsnPLso/vpiXQgud3t//+5xyUG9mgzhnTakZxy1S/foVvtx/lv6wb8vKo5Rke3Rd9m8LgGYFRQzYNeasFzuk2HB/E7aefOuMWqnZcHSrKqZIc80+/Ulcc8zrQsWZugzg49p895d4qAd2tZqfUi/brFJGYb9x7wlccujC4r1tpr43LJ57LJZ1/jc0B7Fen0j39m9qGqaZ8u24PfOXP4aO2ou+QxPr12ak/vkXFJWvbxvdturf35sUI+4+/gN4vN79Ww21HnC4B61792ykO3TrzUdsMxw7stv1X2WVTa3KkPFLVXYrFT0zIqf221c9528xw0rnwIAAAAAAABAZ+qypDVlMJuxaNGiGDduXPzhD38oRzrGnnvuGcOHD49tt902evSoCz0sWLAgnnvuuaIa59SpU4uxjrL//vvHEUccsfRcne6FsXHG8LPqWoWPujwe/N7oupBlA5O/OyCOuSzXRsblE6+K0f2K4UYt2/ecuG3GmWXAckVzJt0Y37v2urixkQBj1S6j4xNfOSdOOaR/9CrH5tx5Ruz3T3WVMM/5+Yw4s2itvrxZ486LEz8/JuqOOLR2v5tr96s7wrJ5tUbz11kz6dJ4/wlXFpVDq864OX7/lWFL59m06pj840vjez+6MSbMLIfqqdplRHzwY5+Nz584LKqW5U1grTZz5sw4aNwW5RZrk6N36R7//v66wGUG0p6trguqVWTosd9GXaNPvdziC28sifN/N3+54GVFVny86MDeRSXFlIfK/TOomeG5bMO+59ZdY+9tusWATbsWQc70fO0+X/7t/KLyYcU/798zTnlPzyI091pNXYv1sX9rXRDwkB27x8UjehUhvbyenz26IP719zXF/P7r4N6xZYPx1rr16D6xV7+6f3hneO/4299qdTXGnM9xu9f9ueCVt5bEi/Na970MHH7rwZrlKkxee3jvOLj2GvP21dTesv97ZmFcO/Xt4pj/b7ce8Yl39Sja4ucZJs5eFKffNX+5eXbUXPI4x9Ye5++vL4m7ZiyM385cWDzDfJ8+OKBbHL1rj9in9n5l+/KUbeI/f/f8pS3rW+vsfXvG6Xv2LI6TLeOzCma+U0/NrTvOTpt1LZ7Lnlt3WxrUzbn+y+9qYvzTTb8z19Texw/U3sf6fjl9YXzxN/PLrRUdU3t/v/7enrFRGYZNL7y5JM65Z/n3FwAAAAAAAABWtakn1P29eWP5x5UOc2bA8s4774wHHnigHFk77bvvvnHkkUeuOWHONUBNdXW8OHtazH6tdqN3VQzcqX9U9W05GtmZloU5q+LMm38f5wxry3xrorr6xZg1bXYUndw32S4Gb7dV9F3DrxnaQ5hz7VU/zNmS/Bd8hvD+8/6aRoOcFcfu1qMIYmaQsjX+/saSuPAPNfGbem3A09hjNog9quqKfj8yZ3GMvq2pUsqN+5+j+sQ+29Ql+7LN+Gd/PT8+9a4eRfXGrDD6ak1d2K9hhdHm1A+YZjjykgfejpseaV1Vy28d3Ds+umvbqnmmxoKCO2/WNS4/tHfRvrypu5zPKyvLnvWb+fG3MvRY0VFzqR8KbU7O5a8vLo4L76tpVzv3+mHO1shn+99/ejt+9Nfmn01WDf2nvXsubZWegeYr/vx2XD3l7bqBRrxz065xw6jescMmywrSZ1D52F+8VW4BAAAAAAAAwOrRXJhz2d9qt9PChQvjtdcy7bd2e/XVV4tgKsv06ts3+g8aFsOG1S5DBq7xQc6ssDnh9rqqnDHos/HBNgU5U6/o27d/DM7rzWVQf0FOYK2TIbwMLWZFxW898HYcedtbzQY5062PL4hTfz0/JsxcFG81k5PMCou3P7kwjvnFvBWCnKN37h79+9bFFLOCZnsCgA/8fVEsKL+29YZd4uAdusXQft2WtoqfXb2kTUHO9IdZi+Klt/KuRGzQo0vsXVbpbI1taufQUTKcefK4t+I3Ty8sKnM2lPc9K0zmPg2DnKmj5pL3OKtkLqq7JSvI4ayQ+cO/LIgTxr7VrueYfvm3hfHL2meVx2riVIV8V8fPqL3uX81vMciZHn5xURH8rMj1HGtOBprr39N8P7P1OgAAAAAAAACsSVa6Mue8efPipz/9aTz55JPlyNppl112iY9//OOxwQYblCOsdWaOic8cdF5MqF0d8V+/ixuO6V83DqxAZU6akhU/39e/W1Fhc5uN6v6bj+lzF8fUfyzSkrqDZEv7ke/sHoO37FoECyf/Y3H8ftbCor396pJzyHbq2eZ8095dYlHtRB5/ZXH8+flFy7WH7whNneuxlxZ7pwAAAAAAAABYr6zSNuvCnKwZamLSxe+PE66ZE1F1Utxw14UxYrPyI2AFwpwAAAAAAAAAALB6rdI26z169IjNN9+83OpY2267bRGyrL/k2Kqw6aabFtfC2qNmXk3dyqLqmHbLuXFWBjlrjTj7FEFOAAAAAAAAAAAA1horXZlz4cKFceedd8akSZPKkfbJipi77bZb7LrrrrHDDjvEJptsEt26dSs/Xd6iRYvitddeKyrLPfHEE/H4448XFUJXxrBhw+KII46I7t27lyOs2ebE2M/vF2eNKzdLVUdfHrddOjo0WIfmqcwJAAAAAAAAAACr1ypts57uvffe+PWvf11utV6vXr1ijz32iP322y/69+/fZHizJRnunDVrVjz44IPxyCOPRE1NWbGxDQ477LD4wAc+UG6x5msY5qyK4Z+5JL75LyMEOaEVhDkBAAAAAAAAAGD1WuVhzr/85S9x8803l1uts9dee8Whhx4am222WXTp0qUcXTl5KXPnzo3f/OY38dBDD5WjrXPCCSfEe97znnILYN0mzAkAAAAAAAAAAKtXc2HOruXPlbLVVlvFlltuWW41L8ObJ554Yhx33HGx+eabd1iQM+Wx8ph57DxHnqs1cu55DQAAAAAAAAAAAACrW4eEOTM0uc0225RbTcv9/t//+3/x7ne/u0NDnA3lsfMcea7WBDq32GKL6Nu3b7kFAAAAAAAAAAAAsPp0SJizV69e8Y53vKPcatrBBx8c73znO8utVS/PledsyY477hgbbLBBuQUAAAAAAAAAAACw+nRImDMrYe6yyy7NVrfcfvvtY+edd16lFTkbynPlOfPcTck559xX57wAAAAAAAAAAAAAKjokzJm23nrrIhTZlG7duhXL6tbSeXPOOXcAAAAAAAAAAACAztBhYc6ePXvG4MGDi5brjXn66adj0qRJsXjx4nJk1ctz5Tnz3E0ZNGhQMXcAAAAAAAAAAACAztBhYc40YMCA2HXXXcutFd1///0xderUWLJkSTmy6uQ58lx5zqa8+93vjp122qncWovNGBennXZanParGeVAG839Y/wgv3/NH6O6HFqfzfhV7b2ovR/j2nk71xsr+94BAAAAAAAAAABQ6NAwZ58+fWL//fePvn37liPLq6mpiV/84hcxZcqUVRrozGPnOfJcec7GZAXRfffdt5jz2m7GY3fUrTz3kjBmqoQMG1kENAEAAAAAAAAAAFjTdGiYM2V1zr333rvcWlEl0Dlx4sRYuHBhOdpx8ph57OaCnOm9731vDBw4sNxauw3Y/ci6lW23jMZjtOuJSojzkmfj5IuvjquvbrBcfHI8e4lQJwAAAAAAAAAAAGuWDg9zdu3aNQ444IAYPHhwObKiDFnecccdMWbMmJg7d245uvLyWHnMPHZzQc6cW84x57rGKIOIP/hTO2prDhhVF1b80IByYP1T/acfxGmX3BFHnpvBzdNj383KD+rbbN84Pe/TuUfGHZe0814DAAAAAAAAAABAB1slacaNNtooDj/88Nh+++3LkcZNnTo1rrjiivjDH/4Q8+fPL0fbLr+bx8hj5TGbk3PKueUc1yTVLz9brtFWGeT8ynVTiiDnqNbkWTP8eu6RMeW6r6jQCQAAAAAAAAAAQKdbZaUpt9pqqxg1alRstlljJRKXmTdvXtx5551x8cUXx1133RUvvPBCLF68uPy0ablP7pvfye/mMfJYzcm55Jxybqwj5v4xfnrdlIjR5y4f5Ky0XC+XH/zpjzEu139VpjcHjIpzR0fcccm4kOcEAAAAAAAAAACgM3VZUqtc73B56KeeeipuvfXWNrVT32CDDWKHHXaI/v37R9++fWOLLbYoxl9++eWorq6OWbNmxcyZM1sMb9aXQc6jjz46dt111+jSpUs52vkqVSUbs7TSZAYTL7mjCCxe/aGIcaddErVb5XbtDst93khpyrl/jB+cd33UP8uQU74Vp+/Tt26j8vleJ8e3Tt03ytFaM5adq7nPKpY7f3X88ZqvxPUP1buOhpqad0vzrafu/m0f5149KpaeeYVKncvmstxxyvM3nN+MX50Wl4ytzHvZdysam8vy3ykHl6rcqyOXm2edRu5jDImTL26iVXzlntW3wrNpSUvProFGnkex/+6PN/L8mrvWWi29q41p6/vb8B615Vzrkfxn6EHj6v7ZCgAAAAAAAAAArHpTT6grdNlYB/JVVpkzZWhy4MCB8fGPfzy22WabcrRlGdJ87LHH4u67747bbrstrr766mLJ9RzLz9oS5Mxz5xx22223NSrI2XYvxR+vaRj8a16GDE9rGMSrNeW6n8Yfm83XZoixPFeG4eqHBTMst0IAsdbYS2rHK5Uu+8a+HziyWLvj//5Ye7QVzXis7ghH7r4saJdBzMbn+5U47ZqGx5kR9xVVOXdbFhqcW1epM8N+y0KVy+aynAG7RY7e8VhTtTkzmLh8kDMVc6lU+FwZGUJs7D7WXv315522Qgv44t40DHKmh66Pryy97y1o1bNbpqnnUezf2Fw6WFvf35cau0c51454XgAAAAAAAAAAAKvIKg1zVmSVzU9/+tOx5557liOrzx577BGf+tSnijmsifruc3oRVP3WKUOK7QwhVsKrK1R4fG5yTI6T41vl5y1VG8wgXlaLTFkxsnLcXL51yvZ1HzSqXjXKhlUNM4BYhuUaHjPblkfcEZcsbWVeF5aMhybH4w2Dd7XHuTvnttfJcUDl8DPGlVVKszJl/WN/K07eq3b4oevjp3+qF+ec+1I8W/tjyFZb1m3Xqp4+OabUfn/owMbrVG6/RevrV95xySVxR1Z7rHeNV59bhkLHXrJC2LJdGh6/dqm7j42HYOu/H3XLuXX3uPa+313/3jSmLc8ulcHY1PC8lTmuSm1+f2vfj0uui+XencrvVYy9u4XwMgAAAAAAAAAAQOdZLWHOtOmmm8Zxxx0Xxx9/fNHyfFXLVu1HHXVUUZFzdZxvtXgoYuixrW2nXVatLIORDYOhffcZ1Xgb71ozftVEkLPWjIl1VRIbayc+4ENlsPC5l8oQ4oA4oAjTTYnJ05cPGtaFLmtnN2S38nqq44//l0HDxlqM9419jz259pPaI734Ut1QmvtScYxlAc3qeHxK7cheQ2O3jnjkDSuSpgGjlgYEm67o2Uqb7RunN9IefcDwumuNh16KeldbBH9XbDVfuccN7k0j2vbslu2f96HheQd8aFUHOtvz/q747vTd5+N1QeDaK3lJmBMAAAAAAAAAAFhDrbYwZ+revXsMHTo0vvjFL8bBBx9cBC47Wh4zj/2lL30phg8fXpxzndGWkOKMx+taaY8+rMnQZmMe/9VpddUQGwlyZljypefq1u645LQ47bSGS9m+u14Ise/AoXUhzCmPLw0JLgvqHRmHLQ0J1n6naGde12J8hWNXWm3XCxu2RfXLRQ3P2LIN96J++/f6KtfU3rk0qmh/3uBam1G0Hy/3r6tm2pK2PrvK/kPi5OGN34cBu5dVSleF9ry/jf5+9I0tty1XAQAAAAAAAAAA1lCrNcxZseGGG8YHP/jB+PKXv1xUz+zXr1/5SftVVVXFhz/84eKYeey+fRtWMFwHbLvlClUcm1IXXozlWpC36KHr4/qirXVTAb5K4LINNts3DssKjrXHvq9SyHJpUG+3WHqWsmV6m2y2ZV2oshVeerGRwGN5zqZCm6tctj2vhCnL9ufNybbjlfBlpf1467X12VX2375NAdiO0q73FwAAAAAAAAAAYC3VKWHOio022qionnnWWWfFOeecE6NGjYqBAwdGr169yj2aN2DAgOI7+d1c3v/+9xfHJKLvFtsXP1tqvb2cvU6Ob52b1RazOuYP4o8rtKXeMrYsWlbXtb6++uqmllHLQpq1KhUcK23JZzyWwcUGgdHNtoy6GR8Z5zZ6zHKp35a8/M6zL1fqY5ZVGBu0J689YzzeSPixaCNee80HtDXLWbZ3b8yyudTTaFB1RowrK3Bm2/Plr7NseV7fjHFlBc5G7k/xzFrS1mdX2f/ZdrYnb/x7lZBmS9r1/gIAAAAAAAAAAKylOjXMWdG1a9fYeuutY8SIEXHqqafGhRdeGBdccEF84QtfWFqJsLLkWH528cUXx+mnn158J7+bx6CeStXKsY9HpSBmqwwYFd86pWiMHtefN67Bdystq6fE5OltaDA+4IA4OYOBOZe5f4y7M1i5QkvsSnjwjni81ROu+079Fu4Dhp9ce913xN1/qoxUxx+vuSTilByvN+8Z4+KSsUPi5GPrhUMbqIRPG6oLo0YMGbLb0u9uuVVdjdBGw4eNhT8rAc/GwqSVyqX1LK1UecoBywVlU2U+zWvrs2tp/9r7+n+NnbfyHKc0GuZstEJqY9r7/gIAAAAAAAAAAKyF1sgEZAYzsxV7//79Y6eddlpuybH8bF0Nb3ZYJcLNdouhZTjyktNWrLI541eNVd6s03ef08tAZ353+UBnpcrmlOu+Ej9YGpismBHjTjstxq2Qvusbuw2pO97dt04ugo1HfqBhiLKyT+1elzRyjKIlecM59419P1A7n/ot3DfbN06/+OSI2vnVBYC/Ei994OoYtU9du/ecdzF+ScS5V58e+zbXQnzsJXHar5afyIxfVVqcD4mhA5ddQaWSZH5nubnPGNd8C/WHJsfj9a8pr7OZ/esHV1O2Xm+s5XqlJXv9Z9TWZ9f0/hmQ/Upc32jb9koINJ/j8u/OsnvXQKXd/DV/XHZtK/H+AgAAAAAAAAAArG26LKlVrtOZGgn9ZfvtUVmGsfLZ6HPj6g810hO8yc8zoHfJClUe62S77TLMmGG6bPmdbdbrtTFfFr7L1t7LWqc3GcorLZ33curPZfnjLdNcSDDVm/NSle80dcy2q1zfkaecHM9eV9cKvaEVr7HpuR957rkRl+S1159jG/evPKNij/pq9yl2r//86x27yWfauIbX1dz+R44+Mu4Y28h716a51s72Tz8oW8g3fL4r9/5WLH2ejb6X66+ZM2fGQeO2KLcAAAAAAAAAAIBVbeoJi+t+Tp1a/KxPb/I1xdL25h1pQIy6+upGj3vkuS1Upaw14ENXx7mjcy2rIy6r2pjjV1+cbcsbyvBhU4G5AbFbcaxotFV4nb6x76m1xz63riLkcjKo12glzfzOt+LkvVasIrrStqir8rn8dTZ1jZV5lJulpgOEbdy/rDi64lwaC7Auq3JavxV8auuzy/1XfH/KfXcvNxtq01xrZztwaN2+K7TeX7n3FwAAAAAAAAAAYG2hMierSaXKYmPVNTvG0iqSTVRorMzh2VO+Fafvs+KnsD5RmRMAAAAAAAAAAFav5ipzCnOyWixtpd1Uq/gO1HRr8KarQ8L6RpgTAAAAAAAAAABWL2FOOtfcP8YPzrs+ptSuNt12HFidhDkBAAAAAAAAAGD1ai7M2bX8CR0uK2SedlrtUgY5syqnICcAAAAAAAAAAAAsT2VOgPWQypwAAAAAAAAAALB6qcwJAAAAAAAAAAAAsIYS5gQAAAAAAAAAAADoRNqsA6yHss36DjvsUG4BAAAAAAAAAACrWnV1dfFTm3UAAAAAAAAAAACANYwwJwAAAAAAAAAAAEAnEuYEAAAAAAAAAAAA6ETCnAAAAAAAAAAAAACdSJgTAAAAAAAAAAAAoBMJcwIAAAAAAAAAAAB0ImFOAAAAAAAAAAAAgE4kzAkAAAAAAAAAAADQiYQ5AQAAAAAAAAAAADqRMCcAAAAAAAAAAABAJxLmBAAAAAAAAAAAAOhEwpwAAAAAAAAAAAAAnUiYEwAAAAAAAAAAAKATCXMCAAAAAAAAAAAAdKIuzzzzzJJyHYD1xHPPPRfDhw8vtwAAAAAAAAAAgFWturq6+Dl16tTiZ31dFi9eLMwJsJ6ZOXNm7LjjjuUWAAAAAAAAAACwqjUX5tRmHQAAAAAAAAAAAKATqcwJsB5SmRNorx/+8IflGgAAAAAAAKy/Pv3pT5drAK2nMicAAAAAAAAAAADAGkqYEwAAAAAAAAAAAKATCXMCAAAAAAAAAAAAdCJhTgAAAAAAAAAAAIBOJMwJAAAAAAAAAAAA0ImEOQEAAAAAAAAAAAA6kTAnAAAAAAAAAAAAQCcS5gQAAAAAAAAAAADoRMKcAAAAAAAAAAAAAJ1ImBMAAAAAAAAAAACgEwlzAgAAAAAAAAAAAHQiYU4AAAAAAAAAAACATiTMCQAAAAAAAAAAANCJhDkBAAAAAAAAAAAAOpEwJwAAAAAAAAAAAEAnEuYEAAAAAAAAAAAA6ETCnAAAAAAAAAAAAACdqMvixYuXlOsArCdmzpwZO+64Y7kF0Ho//OEPy7U6c+fOjVdeeaXcWlG/fv1iww03LLfa5s0334wXXnih3FrR5ptvHptttlm5xdqspWe98cYbx1ZbbVVuNe7FF1+M119/vdxaUUvvYu3/Lyrm8NZbb5Ujy+vWrVtss8020atXr3JkRTU1NfH888/HokWLypHl9enTp5hH167+mzoAAAAAAFjbffrTny7XAFqvurq6+Dl16tTiZ33CnADrIWFOoL0ahjmnTJkSt9xyS7m1ojPOOKPd/7x55pln4qqrriq3VnT88cfHkCFDyi3WZi0968MOOywOOeSQcqtx99xzT9x9993l1opaehcXLFgQd955Zzz44IPlyPIyyHnCCSdEVVVVObKiOXPmxM0331wEOhuz3377xRFHHBE9evQoRwAAAAAAgLWVMCfQHs2FOZWEAQAAOlVWquzZs2e5taLWVHdtrtrlFlts0WxFzdSlS5dmj5FVNVs6Rn6/uWNssMEGRYVPAAAAAAAAgIaEOQEAgE6VQckMXDalpRBl2nTTTcu1FWVQtHv37uVW4/LzbOfelPy8pWPkdTQXPM2KnM2FPQEAAAAAAID1l79JBAAAAAAAAAAAAOhEwpwAAAAAAAAAAAAAnUiYEwAAWKOtbGvy/H5HHKNLly7lVvtosQ4AAAAAAAA0xd8mAgAAnapXr17Rp0+fcmtFm2yySbnWtI022qhcW9GGG27Y7PErcr+m5By6d+9ebjWuW7duzc5j0003LdcAAAAAAAAAlifMCQAAdKoMSbYUlGxJjx49yrX2y1DpysjKmx0xDwAAAAAAAGD9I8y5LpkzIS765Elx0icviglzyrH6Zo6Jzx3zufi3a8bH9OpyDAAAAAAAAAAAAOhUwpzrkkXVMfu+iTHxvtlRvagcq2fOwxNi/JTxceMN06O6bznYVotqorq6epUvNY3MHwCgIy1atCheeeWVmD59ekyaNCkmTJhQLFOmTIlnnnkm3nzzzViyZEm596q3ePHimDNnTjzyyCPFPP7whz8Uc3v99ddbNY+8nhdffHHp93/3u9/F448/Xhwzj91RFixYEH//+9+Xnqf+PZs3b95qvWcAAAAAAAAA64ouixcv9ret64oXxsbn3nt2jI+Rcdn934/R/crxwpwY+4X94+xxEYPPHRtjTx1cjrfRlCtjp2O+U26sOl+67ak4c0i5AXS4mTNnxo477lhuAbTeD3/4w3KtTob4brnllnJrRWeccUa7/3mT4cCrrrqq3FrR8ccfH0OGtO0PDBlEnDFjRjz44IPxt7/9Ld5+++3yk8Ztuummse+++8bQoUOL9S5dupSfNC8DlDfffHM8//zz5cjy6t+XnMNDDz0UDzzwQLzwwgvFWEODBw+OD3zgA/GOd7yjHFkmA5R//vOf4/77749XX321HF1ev3794qCDDoo99tijXe3MM6D57LPPFnPMEGdz9y2va//99y/m3LNnz3K0eXkNP/vZz+LJJ58sR5bJuZ9wwgmx1VZblSONa+592WeffeLII49ssQV6c+9z3v9cmnsH8v268847i/erMaeffnq8853vLLcAAAAAAIC12ac//elyDaD1stBhmjp1avGzvrWuMmdNTU289dZb5RatNvPeuGNcrgyO0Qe0M8gJALCWyjBihjd/8IMfxA033BDTpk1rMciZMhx59913x3e+85246667imqdHem5556L6667Lm6//fYmg5wp5/vjH/+4CFJWKl/mzwznX3/99fGrX/2qySBnymNnWHLcuHGtuu768rhjxoyJ73//+zF58uQWv5+hygxE5nXNnj27VZU6M2S5ySablFvLy/Bka0K0G2ywQRH8bEzXrq37vz0Z2G1KHqOleWRQduONNy63VtTaMDAAAAAAAACw/lmrwpxvvPFG3HrrrcVfJr/22mvl6PpoWtz4yZPipE9eFBPmlEMtmDXpzpiQKyNOjJGDiqGVlNU/n4qnnurA5f7Lao8KANCxMnw4fvz4peHC9shjZDvxDFRmALMjZIXQn/zkJ0UgszUyVJlVHyvnf/rpp+OnP/1pm64pq3dmS/nWtl3Puf3oRz8qQpxtld+98cYbiyBqawKdrQ1cNqW1oc/mdMT3V/Y6AAAAAAAAgPXTWvM3jRnkzIpFf/3rX+PRRx8tqgpllc71U01U3zcxJt43O6oXlUPNmhbjb55YrI0+fGhsUl1dlGtt7bK+3mUAYO2XIcz8c+O9995bjqycDCjmf1zU2gBmU1588cViXs1V02xM7j9x4sSYNWtWu76fsiX7P/7xj3KraRkWzWttqlV8a1QCqHksAAAAAAAAAJq2VoQ56wc5U//+/eN973tf9OrVq9imeTX33RHXPVq3PvbckTFkyJA2LOfF+KY7fgIANOsvf/lLUdGyPUt+d2Vk9ckMPmYlyo6U4cas9LkyleKzdXsGMtsj/0ycFTnb+/0Mkk6fPr3Zaplz586NX//61zFnTtNl4PPP5AcffHAcdthhscsuu0TPnj3LT5aXgc777ruv3S3qs9Llyla7bE2L9Jas7Bzy/qjaCQAAAAAAADRljf/bxMaCnEcddVRst912xTYtmRV3/PD6aGU3dgCADpVhygwFtmfJ766MbGOeIcLm9OvXLw4//PA488wz4+tf/3qce+65cdJJJ8W73vWuco/GPfXUU21qV97Q66+/XvzM83/0ox8tznv++ecX585gZHOy2ugrr7xSbkXsueeeceqppxbz/+IXvxiHHnpo9OnTp/y0cVlZtKkq9wsXLizufVPVR6uqquLTn/50cc9GjhwZhxxySJx88slx9tlnx2677VbutbxstZ7V9ZvSXHvyDTfcsMXrSfn9po6x8cYbR/fu3cutpuX3mwqlbrrppuVa85qawxZbbNGq6wAAAAAAAADWT2t0mFOQc+XVTBkbN00oN866tQgeNLXcelZj+30/Rvcrx1sw657r4rpr2rDc075qUgAALZk/f3489NBDS0OTjRk2bFicdtppMWLEiNh+++2L0ODmm28ee+yxR5xwwgnxmc98ptkA35QpU+Lvf/97udV2gwYNKs6x7777FufdZJNNinOfeOKJsc8++5R7Ne+DH/xgHHvssbHTTjsV8992222LcGUeo7m5v/TSS03em6w8mtfWmDzmRz7ykSK02bDSZV7Dhz70odhmm23KkeU98cQTxXNpTAYtM3C5MjIomfdgZeQxMnS5Mlob+gQAAAAAAACob40NcwpydoQ5Mf6G78S0cisWlj8bVRM1ZefLkdtV1a200ZxHvxnfvKQNy6PqhQIAq8YLL7wQjzzySLm1ogxQjho1KjbYYINyZHkZVMwKmRmWbK59eAYUm2tX3pQM/GXoMgOcDfXq1Sv222+/FsONQ4cOLQKpDStO5twHDBgQ73nPe8qRFWVgs7G251lp9LHHHmsy6Ln//vvHjjvuWG6tKKt2NlXV9JlnnomXX3653AIAAAAAAACgvjUyzCnI2TFqJv0kLhpXbqQZs5tpt14dc56rW+vVq3fdSjsNPvpz8dVzv9rk8rmjB5d7AgB0vAxXZoXxbEfemAxJZpizqZBmRYYiswLlzjvvXI6s6Nlnn22y2mRzdt1119h6663LrRVlKLK50GTK9uq9ezf+57Zs9d3cvFNjIdT8c/jTTz9dbi1vq622KqqJNtVGPOU9a6oyZwZEsyIoAAAAAAAAACta48KcgpwdZOGsuOO67xfhzaoRI2J4jo37WzTd2HxWzCqDnwO3aV9lzortDvxEnHLqKU0unzjQswQAVp0McTYXGsyQYwYTWyPbbmeFzqZkdc7mWrk35R3veEf06NGj3FpRftZY1c6KHXbYocVryO/369ev3FpRzr2hrJw5Y8aMcmt5+efx1rQQb6raaWpPmDOvo7l71Rod0fp8ZY+RLeCbuzcAAAAAAADA+m2NCnMuWLAgfvvb3y4Ncm600UYxYsQIQc52mP+nsfH9Cbk2Ms7/xpdi/yKfOTWmz8yfjZg9u2zHPjoGut0AwFqspqam0aBiRYYgs5V5azVXQTPbuc+bN6/car3mjpm6devWbPCvb9++RdC0OVklM5e2eOWVV8q1FWVodeLEiTFhwoRml7/85S/lN1aU92rRokXl1vKaqpTaXCXQ+nK/pp5ra4+RLeubmkdr72Vzc2jr8wAAAAAAAADWH2tUmDMr7hx88MHxrne9q9jOKp35F8KzZ88utmm93sNOie+cNTSGfu3MGN2vfwwemaMTY8LDjTdar3nmkRifK4MGx3YrV5gTAGCpM844Iy655JJ2Lfnd9sgw51tvvVVuraitFRazlfkWW2xRbq1o7ty55VrrrWyoL4OeGfjsaM2FYP/2t7/FXXfdFb/+9a+bXTLw2ZT8j7cWL15cbi0v/0OuldFSALY1MojZlqBvY1TfBAAAAAAAANpjjWuznn+Jm23VK4HOWbNmFW3XBTrbqlcM/cL1cf3xg2vX+8bgvYs0Z4y/f3JUF2vLmzZlbN3KewfHwLo1AIC1UrZZz/8oqCltDXM2V61xXbJkyZImg5YAAAAAAAAArFprXJgzCXR2lL7RtywMVPXuETEiV26dEJNWKB41LSbfXVex86R9BsfK1SICAOhc2cY7q3M2Ravrxi1cuLBopb6myer9rW2T3pSVrba58cYbF/NYGTmHlb0OAAAAAAAAYN21xv5tokBnB9thWIws0pxj4rpfTCuGKmom3RXXPZprJ8WIffoWYwAAa6s+ffp0aFv0lip9rmx78DVFhhU32WSTcmv1y+qnO++88wrL5ptv3qqW8hnS3XDDDRs9RmuvK4+R+zb8/jvf+c7ivWqNvI8Nv59LVVVVUeUVAAAAAAAAoDFdFi9evKRcXyPlX5xniPOvf/1rsd2/f/8i5LnddtsV2+unyXHlTsfGd2JkXHb/92N0vxyrjlnjvhdnfuH6mLbc+DLVd381hpwxJqLq5Ljpt+fHsKJqZ3WMP29IfO7W2uHTb4rffWVY85U5p1wZOx3zndqVFc8x+bs7xbGXRwz//Pfjc/s3HQqtfqD28+9NjDjr1njqC0PL0VovjI3PvffsGF+7+qXbnoozh9QNAx1v5syZseOOO5ZbAK33wx/+sFyrM2XKlLjlllvKrRWdccYZ7f7nzTPPPBNXXXVVubWi448/PoYMWfEPDC+//HLcfPPN8dxzz5Ujy/vwhz8c73vf+8qtlv3tb3+L6667rtxaXgYQP/vZz8b2229fjtSZM2dOMYfnn3++HFlea+7LPffcE3fffXe5tbz99tsvjjjiiGarRbY0h8buX3Pn3H///eMDH/hAq4KVTcnKlFmhUnVUAAAAAABgbffpT3+6XANoverq6uLn1KlTi5/1rfF9/lTobNmcSTfGV088LEYUQc6m9T3sxPjqoNqVOdfHN6+fHNl8tGbKjXHlrfnp4DjlQy0EOVtp4vc+FyeeeGKTSxHkBABYRTbYYIOiLXZTMuS4YMGCcqtlL7zwQrm2om222abZc61tsgpmU7JCaYZX8/62d+ndu7cgJwAAAAAAAEAj1vgwZ2os0PmHP/whamoyjrh+ml/87+S48tMjYv8T/y3GTJoTUVUVVcV4UwbHcWedVOwz7fJvxnV/nhw3fuM7RQC06sQvxXEZ9OwAg4/+XHz13K82uXzu6MHlngAAHS8rP2bIsinPPvtsvPrqq+VW89566614+umny60V9evXb51ps56yPX0GNhuT/zFVa+8bAAAAAAAAAG2zVoQ5U/1A56BBg2LUqFHFX9Svj2om3RtFMc2YE9OfnFX7s3+MPPemeOC286Ne0/JG9T3kzLjw6IxzTo7v/L9j45tTcnRknP/ZEdF0Y/S22e7AT8Qpp57S5PKJA9fnFvkAwKqWrbwbtj2vL9uOP/zww7F48eJypHFLliyJxx9/vGiz3pT+/fs32+p8bbPpppvGdts1/me1F198MR555JEW79vKWLRoUfz973+Pp556qgjRvvHGG+UnrZcB3GzRn8fI/wisLVVYUz73119/vTh/HiPfl7Zec+6fFWDz+7lkCDaPCwAAAAAAANCUtSbMmTLQeeyxx8Zxxx0Xm2yySTm6vqmJSffcGnPKrf6jvho3PTAhvn/qsKjqXg42qypGfu3iOKleCc+Rl3w1RndAvnLoyVNiypQpcfFhzdcHrTrs4mK/KSe3FD0FAGifDFkOHDiw3FrRhAkTYtKkSbFw4cJyZHkZvMsQ3l133VW0F2/MDjvs0Ow51kb55+13vvOd5daK8r499NBDrQ435n3Mip7Tp08vR5qWFVO///3vxxVXXBHXXHNN/OAHP4hLLrkk7r///iafU305p3ym+Z2rrrqqOMb3vve9uPLKK4twZ2vClPms77777viv//qv4vx5jMsvvzxuuOGGIszaGi+99FL8+Mc/jm9/+9vF93P55je/WbxL63NnAQAAAAAAAKB5a1WYM2U1zj59+pRb66NeMeJL348vDamKEV8bG2O/e0oMaz472UBNTB9/R9xVSYPWGn/L9TH2qQ74i+UN+kbfvrVLSwVTe5X7bVBuAwB0sI033jj23nvvcmtFGdobO3ZsXHvttUU48ZVXXol58+bFm2++WQT/8rMM5DXXVjyPn5Us1yVZ1TQr4W+11VblyPLyvt12221x6623FhUrs5JmQxmarK6uLv7jnR/96Efx3e9+t6h02ZwMQOY9z+BnfZXnNHny5BbDmH/9619j3LhxRWXO+nKeP//5z+OFF14oRxpXCYP+9re/XSHAm9VZb7/99njttdfKkcbl+5NzyIquDWUQ9t57721zlU8AAAAAAABg/bDWhTmptcHQOPOGu+P7nxncttboi+bEhMtOiRO/Nrao7Fk1bEQMzyDolBvj7MNGxueumRRzVvz7eACAtdLgwYNj2LBh5VbjMrg5ZsyYoprjhRdeGP/+7/9eVHWcOHHiCoG++vK4e+65Z3Tp0qUcWXdsvfXWzQZhU4Yrs2Ll+eefX1S+vO6664ol188777z4xje+EbfcckujocbGPPbYY0VL9KZMmzYt5s+fX26tKD/LMGdTzyyrarY0lwxq5nmakpVa831pzsyZM5s9xpNPPhlz584ttwAAAAAAAACWEeZcW/XtGy0VwKyv5qmxcdEnj4iTvzexCHIO/cT1cetN18d1N38zjtsh95gV4y85MfY/9HNx3YRZUZ1DzXo9/jZ5UlG9qMOWyX+rPSoAQMfo2bNnfOADH4hBgwaVIx0jj3fQQQcVx18XZXXODKu2FIStyPboWbkyl1xvj+aCsymDlm+88Ua5taKsdtlSC/MMUS5YsKDcWlG2cm9pHllBtDktzeG5555rsUopAAAAAAAAsH4S5lzXLZoTk675XIw87Oy4flLGOPvHcZeMj5suGFG7FtFrp+Pim7ePj8s+MbTYPWaOj2+ePCKGHPy5uPLOyTGnyb+Pnhjf/8KJceKJHbh84fu1RwUA6DgbbbRRHHXUUUXr8I6Q1T5Hjx4dm2yySTmybsqg6qGHHhpDh5Z/RlzFWgrG5v3OZ9mUDKD26tX8f+q02WabRY8ePcqtFXXv3r3FeWy55ZblWuNamsO2224bG2+8cbkFAAAAAAAAsIww57pqYXVMu/OiOOm9+8eJl4yPbFpZNezkuOzu8fHNYwYuX9Wz78AYfcGt8cBNX42RRZXOWjPHx3fOOjb2HzQivjouQ6ANVcXAYcNj+AEduAwbWHtUAICOlUHA4447Lj784Q9Hnz59ytG2ye/l948//vgiFLg+2HDDDePoo49eqfuW8rvNhSjTrrvuGttss025taKdd945evfuXW6tKEOUzVVg3XTTTYtjNCffk5xHU3bYYYfYfvvty63G9e/fP3bbbbdya0U77bTTOh8EBgAAAAAAANpHmHNd9cKEuO4b18fEIofZP0aee2vcfdP5MXqnpqsFVQ07Jb7/mwfi1ktOjhGVUOeQE+PEUY1FLIfGmd++MW78cQcu3z6z9qgAAB0vKy6+733vi3POOSc++MEPRlVV6/4Tktwv98/v5ffX1dbqTanct7POOisOO+ywIhTZWhlsPPLII+PLX/5y7LHHHuVo4/I+H3HEEY0+l2xpv++++0aXLl3KkRXlZ+9+97vj8MMPX+EZ5Zzz2FkVszlZ3fOAAw6I4cOHlyPLZND0Qx/6UItB3qy6OWrUqCL42VBWOR0xYkRRARQAAAAAAACgoS6LFy9eUq6ztpszIS768vXxWOweJ3/7/Bg288o4+67+ceaZo2NwWwtILaqOaffcEXN2PWlZsDPNnBDXjZ9eu9I3hh5/XAztWzfcIaonx5hbJkd17erAkacsf16gQ82cOTN23HHHcgug9X74wx+Wa2u3JUuWxOuvvx4vvvhiPP/887Fo0aLyk7oqj1tttVURLMxwXnMhwvVN7f93iNdeey3+8Y9/FEvex4q8T1tvvXX07du3aEfenuDrggUL4rnnnotZs2YVlTjz31V5rLY8gzfeeCOeffbZ4tnmc8xqms21aG8orymv8emnn47q6uoiyJnHaK4yaEN5n/K9ynmk/H4eJwOjAAAAAADAuuHTn/50uQbQevl3kGnq1KnFz/qEOQHWQ8KcQHutK2FOAAAAAAAAWBnCnEB7NBfmVBoGAAAAAAAAAAAAoBMJcwIAAAAAAAAAAAB0ImFOAAAAAAAAAAAAgE4kzAkAAAAAAAAAAADQiYQ5AQAAAAAAAAAAADqRMCcAAAAAAAAAAABAJxLmBAAAAAAAAAAAAOhEwpwAAAAAAAAAAAAAnUiYEwAAAAAAAAAAAKATCXMCAAAAAAAAAAAAdCJhTgAAAAAAAAAAAIBOJMwJAAAAAAAAAAAA0ImEOQEAAAAAAAAAAAA6kTAnAAAAAAAAAAAAQCcS5gQAAAAAAAAAAADoRF0WL168pFwHYD0xc+bM2HHHHcstAAAAAAAAAABgVauuri5+Tp06tfhZn8qcAAAAAAAAAAAAAJ1ImBMAAAAAAAAAAACgEwlzAgAAAAAAAAAAAHQiYU4AAAAAAAAAAACATiTMCQAAAAAAAAAAANCJhDkBAAAAAAAAAAAAOpEwJwAA65R58+bF3Llzi5+sOTyXtnPPOp57CgAAAAAAwJpKmBMAgFZbtGhRvPbaa0UYqrVLa0JTuc83vvGNOOKII2Ly5MnlaPtcf/31sddeexU/W6s115Wf537rk5deeinOPvvsOPHEE2PmzJnlaPu057mszebPnx/Tp0+PBx54oFgeeuiheOWVV2Lx4sXlHi1b3+7Z6uCeAgAAAAAAsKYS5gQAoNUy0Pfxj3+8CEO1dmlNaOqFF16IiRMnxrRp0+L+++8vR1ef1lxXfr6ygca1TV7vHXfcUTybqVOnlqM05e23347f/e53ccopp8SgQYPisMMOK96bXI499tjYe++948ADD4zvfve78fe//738FgAAAAAAAEBEl2eeeWZJuQ7AeuK5556L4cOHl1sArTdjxoz4whe+EI899lg50rKs7JjfaU5W5szQ5+OPP17su9tuu5WftF0G5S677LJWnbeiNde1++67F8ceMGBAObJmW7BgQfzlL3+Jp556Ko466qjo1atX+UnrZSXJK664oqgymfezX79+5Sdt157nsjZ59tln45vf/GaMHz8+9tlnnzjuuONi3333jY022qj4fMmSJfH000/HhAkT4vbbb48333wzvva1rxXPplu3bsU+Da3r96wzuKcAAAAAAAB0purq6uJnY8V0uizJv1UEYL2SldZ22GGHcgtg5WQL8gxG/f73v49bb721qGLZmVYmzJnWpsBmc7Ktd1aDzKqQ//Iv/xK9e/cuP+kc63KI7pFHHomvf/3rxf/xyoBmVt/s2rXpJggZkr366qvj2muvja985Stx8sknR8+ePctPlxE87HjuKQAAAAAAAJ2puTCnNusAAADtNH369CLImb7//e/HQQcd1GyQM22++ebxz//8z8XyrW99K/73f/+3qNwJAAAAAAAArL+EOQEAWO0WLVoUr732WtG+u62yfXhWA80lj7F48eLyk7VLhvdef/31Neo68nnkXPL5tNWqfi71j9+e96a1Ku9mnifb/zcn53HTTTfFnDlz4txzz41ddtml/CSK7957773xgx/8IG644YaYPXt2ccwHHnig+Jmt1U888cT4yEc+EjfeeGPRgr012jK/jpDXmOfKJd/X1oRO68+xve9Tfe159vn+VebQ2nmvau35Han/nVwHAAAAAABg3SXMCQDAKpUtzD/0oQ8VS67/7ne/i5EjR8aQIUPiP//zP5eGxT71qU8V7c2zPXhjnnjiifjyl78cQ4cOLVq555LHyOM+/vjj5V5NyzDX+PHj433ve1+8613virFjx7Yr4DVr1qwigJfHmDhxYjm6ov/7v/8rruecc86JN998sxytC5ndf//9cfzxx8d73vOe5a7jzjvvXOngW6VNfLZYTz/96U9j0KBBxVjlGaQ77rijGMsW7K+++mp873vfi3322aeYyy9/+ctin4bPrjGr+rlkS/Jvf/vbsd9++y09fs4zw5PPP/98uVfEX/7yl9h///3jsMMOi7/97W/l6IoyWJnXnRUx69/rDEbmZyNGjCjmn+fZY4894owzzohHH3203Gt5kydPjp///OdFK/u99967HI3i/J/85CeL9um33HJL/PCHP4yPfexjxXV89rOfjWeeeabYb6ONNirepWeffbYIfjb3Pr799ttx8803Lze/vCcN70NF/h5Vnm9TAcjKu5I/68t3dNKkSXHKKacU707lvuf7mu9tXndjc83A6n/8x38sfY/yO/kz55xzz2toi9Y++/rymebvUb5/lTnkvPO+P/XUU+VeK1qZ+9WS1v6O1D9+ziHfx/rXnut5H1f2nxEAAAAAAACsmYQ5AQBYbaZNmxbf+MY3mgwGNqYS9stgWbaj3nrrrYuKhhmOGjVqVPzjH/9YLizZlD/+8Y9FeDSDi//6r/9aBKm6dOlSftp6ef4999yzOOeDDz7YaLAqQ2uVoGcGsDbccMNiPffNSo6nn356Efg7+uiji1bbGQbM6/inf/qnuPbaa1drWCuDe3lfv/Od77TqPlasjueSocezzz67aF++4447xplnnllsZ8Dw1ltvLbazzXnKzzMgl9tTpkwpxhrKaoh/+tOfiufx3ve+t6iOmTI0mOfOefTq1StOPfXU4joOPvjg4hpPO+204lnXl1USf/vb38Y222wTH/jAB5YeK6t0XnzxxUU4NOeYIc0MMF9wwQVxzz33xPbbbx+bbLJJsW/afffdiyBoBiTfeOONcnR5ea4M9l166aWx7777Fu9Mvjs9evQozpGB4eeee67ce+Xlfc97kXPKZ5n3Iu97Binz/uV7+sgjj5R718nwYVYhzeDqrrvuWjybnOfo0aOXPtsMIjYXWK2vLc++In9v8vcn55cByuHDhxffyfcyt88777wmg7mrQnt/R6qrq+Oiiy4q7mWGsvNa8585eR/z3Ro3bly5JwAAAAAAAOsSYU4AAFaLt956q6hSmBUKM1CVgc5/+7d/K8JzzcnQWCXsl4G4DDL9+7//e3zuc58rqklmBcwddtih3LtxGfq65JJLimN84QtfiI9+9KNLw3f1ZbAxA3WVtsb1l0pL6549exbhvQwEZrDtpZdeKsbry5DW1KlTiwDWsGHDytEoAp5ZEXLnnXeOn/zkJ0U4L4OdeX0/+tGPimBfBt5WJnCW15f3NgNvKYOilfv9q1/9qqj8V1+GSjOU+D//8z/FfcrqhRmobMmqfi75HPI4f/jDH4pwXlYYzdBi7vfjH/84Pv/5zxf3eMyYMUV4NgOSBx10UPHdDF42FpLLgGAGPQ844IAYPHhwMZYBwAxK/uIXvyiqTt52221F6C+v4+qrry5CdRmUzFboGQatyABo3tesmLjddtsVYxney8qiGVA966yzis8ymNq1a9fiPagESOu/e3369Iltt902XnzxxSLE15if/exnxTXlM628M/kzf5/yHcvW7blPR4WAc76HH3548QzzGeS9yPue4cK8R3k/8rOG53vHO95RXH/lWeU8L7vssqJaZ8r3LMOuLWnrs6/I41955ZXF/cxnms8sv5PvZVbrzN+7DFeuLu39Hbn99tuLe5tz/upXv1pce4bAMwia73Uep/67CAAAAAAAwLpBmBMAgNUig3TvfOc7izBn7969i7Hu3bs3Wx0zq/1lyDDDY1kdMcNMGaasb/PNN48tt9yy3FpRfveb3/xmEf7KCnfZ+rqxIGfK6n1HHXXU0rbG9Zfrr7++3CuKIGAGAjNE11hL76xomOfL1uEZcEsZBs1wVoax8lqyhXd92WI8W27nfDMkurpke+ms/pdVFzPEl88jn0tzVsdzefjhh4vgXbbkzxb8lXcm5XrOOYOMGc6sBAQzMFkZy3b49WXQMsOBGZrM0GelOmaGXO++++7ie9lSfdNNNy3GU84nQ405hz//+c/LHTMDvi+88EJRaTMDmSlDe/fdd1/xbmQFzfryWLlf3pe+ffuWo3XXkhUb8/2oqakpR5eX+3zpS1+KnXbaqRyps8suuxSVJzNYnGHPnE9HyGvKZ5JzrW+DDTYoKkqmDOJWAs4pQ9kZ3sz3uv7vdK7nc8kW+Pm7kve/Je159jmX3/zmN8XvV879wAMPXG4e+Vy/+MUvLheuXpVW5ndkq622Kn4f6r+Lee8zmJ1VSvOfU021mQcAAAAAAGDtJcwJAMBqM2LEiOWCWS35+9//XgS2Bg4cWAS7mgphNiWrZmYlvGx1nRX+MhjW3DEyFJehxgxhNlzqB/AyCJj7pQkTJhRtsCsyVHb//fcXx3r/+9+/9HzPPvtsEQjMUFsG0RrK4Fm2p04ZMMww2OqQQdVs890Wq/q5ZFXCvIcZzMt7X78teUUG4TIcnGHUSoixX79+MXTo0CI4XGlzX5Ghvww8VtqaV2RwNoOJGfKrBG/r22ijjYpqphlCzKqlFTm3PE/972RF1pkzZ8Zuu+223PtSX15nhmbbIoOhDSuqVmSgM4PAeR8yONgRKqHehvK5ZPXalNe/cOHCYj3l/o1dV4Zo8/cjP8t72FRgtaK9z77y+5XPN+9XY/Ovqqpq9HdvVViZ35H8nczqog1l6DeDtvne5f0BAAAAAABg3SLMCQDAapEV5SrtqFsrA1GPPfZY9O/fv6hW1xbZsvq///u/i2p9WRXvs5/9bItB0gxKZbXIbOXccPnkJz9Z7lUng2YZ1PrLX/6yXLXBSqgsqzPm5xWzZ88uQlhZ3fHLX/5ycbyGS7akTll1r6XQW0fJa65fAbA1VvVzyUBs3qv085//vNF7lVUgs515qlQp7NGjRxx88MFFkDaDfq+//noxnp588skiJLjffvstfQ8zZJjB2fT73/8+PvOZz6xwnhyrtObO625OJeC58cYbrxAmzOeZ89xmm22KKpYVGdrNEGgGFJt6Dvm7k9fUmAyNVlp1d2S1xmxfnpVnr7jiiqJK5Ac+8IGiTXkGb5uSwc28n/n7kiHdbJuf1UQz1NwwXNuU9j77DAjn9zLQu8UWWxRjDWWgsi1h8pWxMr8jGTqt/44AAAAAAACwfhDmBABgtcgW0w3bDLfk5ZdfLn42DMC1xu233x6/+MUviiBVtsrONsUdKQN0GdjM0GCGtioytJahsvqtvFOlkl5WT8xQYbb8brhkJb9UvwLiqpbPpa2VNVf1c8mKj5X7lfeksXuV97BSiTLvV0WlBX4+l6ySmTK0mRVUMxCZocTKe5jfq1RAnTZtWqPnyaUS+KxfibKisQqJjQVxM3T49NNPl1vLvPbaa8XxsyprhkDbKkOjbX1+Lcn3N0O22dY7w5x5H/N9z/bln/jEJ8q9lpchzEsvvbS4vxdeeGFx3zI4mYHdDHbWDzY3p73PfmXeyVVhTZsPAAAAAAAAaz5hTgAA1liVkNpbb721XGCvNT72sY8V4bOsmvmtb30rHnnkkfKTjpGBwKwCmTLAmZUMM5iXbbuzlXO27a6vci2jRo2K++67rwgbNrVkgK6x9tJrilX9XLIld+UcV155ZaP3qP6Sbawr8r5l1dQ8frZVz2qR2Yp78uTJRcgzw54V9VuDf+1rX2v02PWXrFBZkVU0M4CZocLKPaiMZUv3fB8q8vMMk9avFFoxderU+Otf/1pUDM3Kom1VqfiZmqpI2Rb5Dn/7298uQpMZ6MzqnP/3f/8X119/fZxzzjlxxBFHlHsuk/f4f/7nf+L73/9+ce/vuOOOojrtzTffXLTTzwBoYy3sG7Myzz61551cFVbmdwQAAAAAAID1kzAnAABrrG233baoppgVDV955ZVytHUyGJdhtH/+538uAnNf//rXY/r06eWnHWOXXXaJ9773vcXxs1V2Hj+Dmhnm3Hrrrcu96lSuJa8jg16bbbZZk0sGEishwzXRqn4uWdExz5Hmzp3b6D2qvzRsnb3PPvsUlSAzUJht3TPImefae++9i7bkFVkxMSsnpryO/Kyx41eW+lVEs7LogAED4tFHHy3OkfJY73rXu4oW8hk0zJBjVljNFu4ZKM3gYVabzJb7KYOsV199dRx99NHFe9SUDFhmddHGZAXIPHa2Yt9yyy3L0WXyXBkobKjS3r2hrBL6u9/9Lvbff/+ixXxrWoTn9ed7n/LZ5j1o7/vb3mdfaZ2fwdY33nijWG+oqWuur633qykr8zsCAAAAAADA+kmYEwCANVYGojIYmUG8bK2c4bi2yNBkVgXMVs95jK9+9atLW2Z3hKqqqhgxYkRx7IcffrgI7aX6rbwrKteSVRhz39VlVVQGXNXPJUOWe+yxR7GeVU8zzNgWlRb4GZzM9uk5xwx3vv/97y+qcdb3nve8pwjd/fGPf1xa4bI1Ntpooxg6dGgRGK1UF82w56mnnlq8FyeccEKMHj06DjvssPjud79bXOuBBx4Yzz77bHz605+Oj3zkI8XnWbHyi1/8YqPt5isyjJqBzYbyvmfwMtv877777ktDkCmvKQOef//73+Oll14qR5fJ6qEZRG0ow6fZ5jyDqXmN9eX58nk1lN/Jd6ypQGle8+OPP15uNa+9z75fv36x1157FZVEG5tjyvbx+Zwb09771ZSV/R0BAAAAAABg/SPMCQDAGitDcR/96EeL9Wy5nK2qMzhWX1bSy1bXTcmQXIblDj300KJa4iWXXNJoMK49MhiYAcEMCv7yl78swmcNW3lX5LVkW/YMyl111VVFoLNhwGvevHlFi+r6AbYMJGalw6xkmZ+3VlZGXFWVAVfHcxk+fHgRzhs3blz86Ec/WuHa895liHLSpEnlyDIZpM1Abd7rMWPGFIHOfC4Z8mwon1WGLHMO2Sa8sXuV1/KrX/2q3KqTz/6QQw6JnXfeOW666aalAcB8F7Il+X/913/Fhz70oaK65XXXXVeM5/65nkHPDHn+5Cc/ie985zuNBiDry0BgvjOvvvpqOVJ3/RlcvOGGG4rn/MEPfjA23njj8tMoKsPm9WbV07vuumu5tu95X6699tpGQ4+V9yZDx/nuVFTOl8+ioUpr9AxLZvC0/ruQzzTva7a9byiv58c//nH8/Oc/LypfVrTn2WeYM7+Xstppw/b9+S5mW/+mqvO2937lXP70pz8Vgd0nnniiHO2Y3xEAAAAAAADWL8KcAACssTIwl6G3z33uc0Xo6eSTT45jjjkmLr300iIgdvrpp8fhhx/eYjgzw3Lf+MY3iuBgtsC+4IILGq2+lxUOMwSY7bMbWzKw1VClAt/48eOLQOD73ve+ok16Q3ktRx11VBHwylBYBvrOOOOM4jp+8IMfxDnnnFMEDn/xi18sF/rKOWWYLFuEN1e9saH6lQG/8IUvFHPPe5CBu5W1Op5Lts3Olt15HVdccUVRxfLiiy8u7lWeJ+9jjjUWEkwZnszrHzt2bHEPM0jbsFpqymeV1TSzsuUtt9wSRx55ZNH6Pc9TqaiZgd3GKrpm+O9Tn/pUEeL97//+76Whw2z/nfcj78PHP/7x2HzzzYvxDD3ut99+xXgu+bwbm1NDeaxsp37EEUfEN7/5zeIe57uT8877/8lPfrIIita36aabFu3bM5h52WWXxUknnVRcT967PF7K59ZQvucZbs1QY54jz5f34uyzz46vfe1rxTEbyvb0eS0p9//Sl75UfCfXjz322OIZZuv7hv73f/83LrzwwvjKV75SVDitaM+zzzBpXmO+S/nOf+xjH4uzzjqr+M6//Mu/FPcuj9fYNaf23q+s5JnB3fzONddcU/yupo76HQEAAAAAAGD9IcwJAMAarVLBMUNdu+66axHUykp33/72t+Puu+8uQmRZBa8lGRzM0FgG/DI4mEGzjqhYmfOrBOkyQNhYaK0iQ34ZXstwWY8ePYr553VkGCxDnIMGDSpCbJUw6IIFC4oQYbZ/fve7312MtdZWW21VhDgznJdVQDNs9uCDDxYhs46wOp5LBvOyImUGMfM+ZFgu71WeJ9ten3nmmUV4tjF57myBn9773vfGLrvsUqw3Ju9tVnPM1ucZvMtKm5WAXrbWPv744xsNMea9zOqbeZ/z+Z1//vlFtcWWZDXHhlUam9O/f/8iYJr3KCtEVu5xBhD/4z/+o9E27ZW5nXfeecV+WT0yrycrXe6///5F4DJDmA3lu5dt7/O7eS/yfHkvMgScwdsMejaU58rwZD7HfK8zQJvfufXWW4uW8hk67dOnT7n3Mu985zuL8GSGLCuB14r2PPt8l/7t3/6teI4ZqqzMIyt8Zjjz3HPPbfSa08rcr2xJn/J3rn44t6N+RwAAAAAAAFg/dFmSf5MIwHpl5syZjbaaBVjTZQDu9ddfj+eff74IXGW4qmGIrTNkVc6sYphVGjMM1ppqixnUzHbqWdnvHe94R3EdDa9l7ty5RYgsg27//u//XgTf2irP88YbbxTrGajr3bt3sd6RVvVzyf/Lktfwj3/8o9jOANxGG21UVGNsSn4nW5BnADErSma789YEWbO6ZlbBzOvJkF6eJwOKzcnrz3cgqy7mHDPcO2rUqKLaZ34/5Xzy378Z6LvnnnuKSpfZSrwt8hjV1dVFyDKDgxkObu4eVOQ7kNeUbc233377Vj2byj3PZ5rvX2vPle3SM2yZ8jk1975VzpHHbWpOlX3a8uxTPsf83erVq1eL82iorfcr98/zNTevNfWfXQAAAAAAAKxe+fd9Kf/esCFhToD1kDAnQMfJEFdWA/z1r39dVHccPnx4+cnKe/zxx4s2zaecckrRrpvWyxbc2bo+Q4BZDXHnnXcuP1l1Mnx75513xs9+9rN44oknytHlZZAvq05mxcasSAkAAAAAAACsP5oLc2qzDgAAK+GRRx6J3//+90XL5MGDB5ejHWP69OlFWLStLdaJmDRpUtx///3Fc1ld/wFDVq/8xCc+UbT1/stf/lK00v7pT39aLL/85S9jypQpRfvuSy65RJATAAAAAAAAWI4wJwAAtNMLL7wQ119/fbz55ptFW+1NNtmk/KRj7LbbbnHVVVfFLrvsUo7QGk8++WT8+Mc/LgKTH/rQh1rV9r4jZTv3jTfeOAYOHBj7779/sQwaNKh4P1rTqhwAAAAAAABY/2izDrAe0mYdoP3mz59fVFbMNtrZBv3VV1+NE088Mc4777zYYIMNyr1Y3bLF+fnnnx+vvPJKPProo0XA9p//+Z/js5/9rAAlAAAAAAAAsEbQZh0AADrQggUL4oEHHogNN9ww/vVf/7UIEQpydr633nqraGO+3XbbxRVXXCHICQAAAAAAAKw1VOYEWA+pzAmwcvKP0Fmhs3fv3kVLbdYMixcvjpqamujTp085AgAAAAAAALDmUJkTAAA6UAY4MzAoyLlm6dq1qyAnAAAAAAAAsFYS5gQAAAAAAAAAAADoRMKcAAAAAAAAAAAAAJ1ImBMAAAAAAAAAAACgEwlzAgAAAAAAAAAAAHSiNT7MuXjx4vjzn/9cLLkOAAAAAAAAAAAAsC5Zo8OcCxcujN///vdxxx13FEuu5xhtURNzJt0Y533mvBg7uxwCAAAAAAAAAAAA1hhdltQq19cob7/9dvz2t78tlvoOPvjgYunZs2c5QrPmTogLPviZuHFORNXRV8UvLx0ZVeVHbVXzwrSY/HR1ubUabDU4hu3Ut9wAOtLMmTNjhx12KLcAAAAAAAAAAIBVrbq6Ln83derU4md9a2SYc968efHrX/86HnzwwXJkefvtt18cfvjhscEGG5QjNGfOnWfEfv80vnatKk669jdx4SHtC0guO85qcvZtMeMLQ8sNoCMJcwIAAAAAAAAAwOq1VoU5X3vttbjzzjvj4YcfLrY322yz+PCHP1ys//KXv4y5c+cW6+9+97vjiCOOiE022aTYpjnT4rqPHhEXTaldrTolbr73/BjWjhzsnHsuirN//Gi51RrzY9Z9k2NWru4wNIb3712MttohX42bPjm43AA6kjAnAAAAAAAAAACsXmtNmPOll16K22+/PZ588sliu6qqKj7ykY/EgAEDiu0ZM2bE//7v/8acOXOK7V122SWOOuqo2HLLLYttmlZz30Xx/nMejSO/8qX47NFDo6pb+cGqNGd8nLXfGTG2dvWka6e2uyIo0PGEOQEAAAAAAAAAYPVaK8Kcs2fPLoKczz77bLG9/fbbF0HN7bbbrtiuaO1+67TqyTHmlslR91hbqyZeey1ik016ldutMTBGnjoi+pdbbfbnS2PAcVfWroyMyydeFaP71Q0DnU+YEwAAAAAAAAAAVq81OsyZp29rxc3mKnh26dKlGFunvTA2zhh+VowvN1edc+K2GWfG0HKrrWbdcmIceP7EiFGXx4PfGx1V5TjQ+YQ5AQAAAAAAAABg9Vpjw5x56mnTpsWdd94Zc+fOLcbe/e53xxFHHBGbbLJJsd2U1157rfjeww8/XGxvttlmxfcGDx687gc621qZc/bEuOimCcXqiBPPj+GtLmLaTGXOmjkxbfL0ZuZQHZOvPSMurT3twM9cHBce0rr6nn3fOTQG92tL9VCgPYQ5AQAAAAAAAABg9Vojw5yLFy+OP//5z0Ugs6amphjbb7/94vDDD48NNtig2G7JvHnz4te//nU8+OCDxXavXr2KQOfee+8dXbt2LcaoNeXKGPDRS4vVc34+I84cUqyunFVUHXTkFQ/GVUeo4QmrmjAnAAAAAAAAAACsXmtcmHPhwoVx3333xT333LM0yHnggQfGoYceGj179iy2W2vBggXx29/+tjhWykDnIYccEgcccEB07969GFvvrdIwZ1UMHLZzbNWtHG+nF5+YGNPnCHPC6iLMCQAAAAAAAAAAq9caFeZ8++23i/BlLvV97GMfiyFD2pcynDJlSvzsZz8rt+ocfPDBxdLWcOg6aZWGOUfG5ROvitH9yvF2mRNjP79fnDVOmBNWF2FOAAAAAAAAAABYvZoLc67WXuRZhTPbojcMcq4KeY5s4Z6t2Ok81VPGxHXXXBfX3TY56l5DAAAAAAAAAAAAoL7VGubMVOkee+wRp512WrFkW/XGzJ07N5566qlml9ynMXnMyvH33HPPeP3116MTOslTqpl9b1x08UVx0YTZUddQHwAAAAAAAAAAAKhvtYY5q6qqYqeddlq6bLnlluUny3vmmWfi6quvbnbJfRqTx6x/jq233jq6dOlSfgoAAAAAAAAAAACwZlmtYU460rS48RMnxomtWf5zTPmdiDH/2cjnjS431p4BAAAAAAAAAAAAWNXW+DDn0KFDY9SoUcWS61TURPV9E2Nia5Yps8rvRMya0sjnjS7V2qIDAAAAAAAAAADAatBlSa1yfbWbMmVK/OxnPyvWP/axj8WQIUOK9Y4aX7fNignXjI/p5VazZk+Mi26aUKyOOPH8GL5dsdqCgTHy1BHRv9xawQtj44zhZ8X4GBmXT7wqRvcrxxuY/N0BccxltStHXxUPXjoyquqGG5gTYz+/X5w1LmLkFQ/GVUc0vhfQcWbOnBk77LBDuQUAAAAAAAAAAKxq1dXVxc+pU6cWP+vTZn2t1T9GnHpKnNKa5ei9yu9E7HV0I583ujQT5Gy16qieU67uWNVEkBMAAAAAAAAAAADWb8KcrELTY9r4urWRO658NBQAAAAAAAAAAADWRcKcrDI1k+6NnxSVOQfHXjupywkAAAAAAAAAAACNEeZkFZkT42++svZ/04sx5porY/yjdf3+AQAAAAAAAAAAgGXWmDDnSy+9FE899VSx5HpL2ro/Haxb3+h/wPAYfkD/6NutHKtn1p3fiG+MKzdiTkwfe2mc8eE9Y78TzosbJ82JmvKTOr1iuxHnx/nnnR8HbderHAMAAAAAAAAAAID1Q5cltcr11W7KlCnxs5/9rNxq3Mc+9rEYMmRIsd7W/SlNuTIGfPTSYvWcn8+IM1fx7an+85XxmeMujcm5MeT8uPPKoTHtR9+LK6+ZELOKPSKqdhkdn/jS5+OkwwZG33IMWH1mzpwZO+ywQ7kFAAAAAAAAAACsatXVdd2tp06dWvysT5t1Os6iOTHpmjPiiEqQs2p0XH7FKTG439A47rwb4ncP3RmXnzoi+td+NOfJsXHp6YfFngedEVfePS2qF+UXAAAAAAAAAAAAYP3TqZU5n3322ZgxY0a51bgBAwbE9ttvX6y3dX9Kq7oy56LqmHbPjfG9b14a42eWY1Wj4+KfXhLH7dRI2/S502Ls1ZfGpfUqdcYOI+Ocr56jUiesJipzAgAAAAAAAADA6tVcZc5ODXPSDvWCmatL4wHQmqh+anJMGPc/8b2bxsb0OeVwrf6jLozvX3RSDG4plTlnUtx42ZXxvVsmRuXr2X79sxd8LU4ZVlWOAKuCMCcAAAAAAAAAAKxe2qzTIWrmTI/Jd4+JS7/+mThsv91jz0NPiLMuWxbkrBp2XFx484Pxu++1IsiZqobFSRfdFL+594Y4f1Q2X69rv37RCfvFfidctKzKJwAAAAAAAAAAAKzDVOZc2yyqieo3a8qN1aPXhn2jV7eIaTccE0f85+RytKJ/DD32uPjsJ0+KkYNWrkH6nEnXxdfPL0OcQ86J2248M4ZuUPcZ0LFU5gQAAAAAAAAAgNVLm3U6yKwY85kD47ynh8bI930wDj98RIwYOjD69io/7giL5sSk678X0/Y5P04Z0pEHBuoT5gQAAAAAAAAAgNVLmJOOU1MT0UvIEtZ2wpwAAAAAAAAAALB6NRfm7Fr+hNYR5AQAAAAAAAAAAIAOJcwJAAAAAAAAAAAA0ImEOQEAAAAAAAAAAAA6kTAnAAAAAAAAAAAAQCcS5gQAAAAAAAAAAADoRMKcAAAAAAAAAAAAAJ1ImBMAAAAAAAAAAACgEwlzAgAAAAAAAAAAAHQiYU4AAAAAAAAAAACATiTMCQAAAAAAAAAAANCJhDkBAAAAAAAAAAAAOpEwJwAAAAAAAAAAAEAnEuYEAAAAAAAAAAAA6ETCnAAAAAAAAAAAAACdSJgTAAAAAAAAAAAAoBMJcwIAAAAAAAAAAAB0ImFOAAAAAAAAAAAAgE4kzAkAAAAAAAAAAADQiYQ5AQAAAAAAAAAAADqRMCcAAAAAAAAAAABAJxLmBAAAAAAAAAAAAOhEwpwAAAAAAAAAAAAAnUiYEwAAAAAAAAAAAKATCXMCAAAAAAAAAAAAdCJhTgAAAAAAAAAAAIBOJMwJAAAAAAAAAAAA0ImEOQEAAAAAAAAAAAA6kTAnAAAAAAAAAAAAQCcS5gQAAAAAAAAAAADoRMKcAAAAAAAAAAAAAJ1ImBMAAAAAAAAAAACgEwlzAgAAAAAAAAAAAHQiYU4AAAAAAAAAAACATiTMCQAAAAAAAAAAANCJhDkBAAAAAAAAAAAAOpEwJwAAAAAAAAAAAEAnEuYEAAAAAAAAAAAA6ETCnAAAAAAAAAAAAACdSJgTAAAAAAAAAAAAoBMJcwIAAAAAAAAAAAB0ImFOAAAAAAAAAAAAgE4kzAkAAAAAAAAAAADQiYQ5AQAAAAAAAAAAADqRMCcAAAAAAAAAAABAJxLmBAAAAAAAAAAAAOhEwpwAAAAAAAAAAAAAnUiYEwAAAAAAAAAAAKATCXMCAAAAAAAAAAAAdCJhTgAAAAAAAAAAAIBOJMwJAAAAAAAAAAAA0ImEOQEAAAAAAAAAAAA6UZcltcr11W7+/PnxwgsvxKJFi8qRldOtW7fo169f9O7duxwBoDEzZ86MHXbYodwCAAAAAAAAAABWterq6uLn1KlTi5/1dVqY88UXX4wxY8bEs88+W450jO233z4+8pGPxDve8Y5yBICGhDkBAAAAAAAAAGD1ai7M2Slt1hcsWBD33Xdfhwc5Ux4zj/3222+XIwAAAAAAAAAAAABrrk6pzDlv3rz46U9/Gk8++WRRSfPggw+OXr16RU1NTfz2t79tMuR56KGHxoABA8qt5dX/7i677BIf//jHY4MNNig/XZdVx+TbxsTkVyIGjjwlRqzOQnszJ8R146fXrgyMkaeOiP51oythWtz4iW/G+Nq1kV+5KU56V90o0PFU5gQAAAAAAAAAgNVrjavMWV/v3r1jxx13jJ122qn4mdtN2XLLLYv9Glta+u66qyZmT7goLrr4opj2Sjm0nOqYPmlSTGrzMi3m1JSHaNKLMaH2vBddPDFmV/adPTYu+s+xMX1eud0mNVF938SYWLtULyyHAAAAAAAAAAAAYB3X6WFOVrXpMf6EE+KENi/fi0lzy0M0pVfv2LhYmRVzct+aaXHduWfFdTecFYeddEGMn118CAAAAAAAAAAAADRDmHO9MThGn3F+nH9eS8tJMaL8Rpv1GhynXHt3XHx0VcSUG+OMj54Yl95XVxZ2OS+MjTMGDIgBA66MyeUQAAAAAAAAAAAArK+EOdcb28XBJ50Sp5za0nJk7FV+o102GBjHXXpb3PDJoRFzJsaYX0yKOeVHAAAAAAAAAAAAwIqEOddCNdXVUb10eS3mL6obn/9a/fHaZV7d+CrTrVf0KleX1z9GXHBD3HzehXHVf4yMqnIUAAAAAAAAAAAAWJEw51pncly3556x59LlsDhvfN0nV36m/njtcn0zTcw7otV5VVXsXK6uqG8MO/WkGLpB7eqimqieMz0m/3VO1NR9CAAAAAAAAAAAAJSEOdc6vaLvAcNjeL1lYFn6sv+Q5ceH9228bmbHmx0vvlK3VlM9J6ZPmRTjb7suLjr3xDjxg/vFgJ13jz33OyyO+da98WLdbgAAAAAAAAAAAEBJmHOtMzhO+slNcdPS5bL4/D51nxz3L/XHa5dPDq77YBXIVu+zHp0Ws4qtaXHjlw6L/QYMiN333C8O++gJccY/XxTX3ToxJj45p/bzqhg4bHgcN2irYm8AAAAAAAAAAABgmTU2zFlVVRWf+tSn4r3vfW85QmebNeHSOO8Tx8SBRWhzzzjwwxfEmMpnT06PjG3GDkNj+LGnxPkXXB433Hxn/G7q1HhsxoNx9803xcXnjYj+xd4AAAAAAAAAAABAxRoZ5tx+++3jYx/7WAwaNChGjRoVhx56aPlJy/K7I0eOjD59+pQjdJTe82bFmPsml9U4+8fQei3ez7xhakx9bEbMuPe2uOmS8+OUT46OEcMGR/++fWN1NXsHAAAAAAAAAACAtdEaF+bcbLPN4vjjj4/tttuu2O7Ro0cccsghcdRRR0WXLl2KsaZstNFGccwxx0T//v1b3Je2qxr2+bj5l7+LqVMfixkzfhe3/eSyOOeAus+mv14TfRtNbc6JaVOKmp0AAAAAAAAAAABAI9aoMGfPnj2LSpxbbrllOVKna9euMWzYsNhtt93KkRVl6DO/269fv2J78eLF8eyzz0Z1dXWxTQPPz4rx+XNk/yiLa7Zss4ExbFD/6Ls0tVkVVTuWq02ovud78ZmP7hcHfn5MTF9UDgIAAAAAAAAAAABLrVFhzu7duzfZHj0rbfbu3bvcWlGGOfv27VusZ5Dzz3/+c1x77bXx85//PObOnVuMrxOmXBkDBgyot+wXZ42r++jSj9Yfz+WMGPtC3WdN6hbR9F1tWa8NBxc/xz9T13x9OXMnxKXn3xhZl7Nq14HRv/ZcAAAAAAAAAAAAwPLWuDbrHWH+/Pnx9NNPR01NTTz22GNx++23r1uBzg5Q/cqLdSub941Gu6O30lZVde3wY051LF8DdVaM/c9z48ZMcg45J84/eehKnQcAAAAAAAAAAADWVetUmDMrcj7++OPFzw9/+MMxdOjQYnzGjBnxwgstlahcSww5s7ieZcttcU7xwci4fGL98VyuitF1XedX8Nqcp+pWqvpGXT3T9qnabo+6lWdejNfq1gqz7rw0vvGLTHIOjfP/48wYukHdOAAAAAAAAAAAALC8dSbMWWmtfvPNNxeVOJcsWRJHHHFE7LXXXnH44YfHrrvuWu657plf/my9mpj9zMRibeSO/Yuf7VbVP0bmz/umx+yaYiRqplwZZ//T2JgTVTH6isvilEF14wAAAAAAAAAAAMCK1okwZyXIeeeddxat1R9++OGlgc5jjz02hg0bFl27rpMd5SNmz47pxcr4+MmNkxq0Om/K9Jh2X93aoz86O078xIlx41/rtttsu+1iYLEyKaY9FVHz1Jg49/RLY3LtyNCzr4pLjljJsCgAAAAAAAAAAACs49b6hGPDIGfFE088EY8++mh06dKlWNZVNc88EuPL9clXnRCfuXBCzCq3m/TopLjj0VwZHv03nBgT75sY1QuLT9qhf+xxdP6cFg/dc2Wc+/HzYuyciKr/z979x9hd13sefyNiSW+sQjINfzB0V2qTy5hrOuEutEEYNUtZcjsssc4qv9xgJbcWYslE6Z3r2uWuNuW6IyVSK7F21QpqrculNYSRqFWaTtj1Tut6h116wbUMyZJOIjLmNozauHPOnEIp/QHYmRe0j0dyOJ/v5/udcyZM/3zm/bl6bd15S2fNaD4DAAAAAAAAAAAAHM0bOuY8Wsg5Y8aM5tHqF1544UkdcjYM73qg+d5xS1/1zq8a+vqNdd1tA4cEnW3VsbKv+la+t86d2bger6EfPlDDjeV1XdU1q7E4VGct/+Uv65e/XF/d57S2jqmtLvjLhc3VwJ39kyHn+/tq43/pLjM5AQAAAAAAAAAA4PjesDHn8ULOiy+++OQ9Wv0FwzU0MDrx3lZXdC2t5RvureXzq0a+u6yW9G6tkQONZ9qr66altfSmnupshJvPDNRX7myknG21/N8tqtmNR46m+fPH97a281uriU9d0Fvr71paHc1w9EXjz4zU6It/JgAAAAAAAAAAAKDlDVk7CjknjQ8+VF9pHJfe1lOdF0y8n7Wgeu9aW91tVaP3r6glnzoYdB40Vtu/9LnJY9m7eqtnwZnN3SObePb2y+rGz2yogT1jrb3DjdcTW1bW4o9tal1XdVzdXZ2HhZwN+7b/TV3055fVks9vr7Fzumt9c/rn8ups3QcAAAAAAAAAAIBT1RuueDxWyLl48eJTJuRsxpb/sK4aczk7PnpFLZgxuVvndtcdX+5tRpLNoLNvoPlMw8i2z9Rt32z+RPXectVxjkEfr7Ffj9T2b66uf3j8CCM1x56ozbddXpd/anPzSPfO+ZNZ5vavDUwe4X6Y0f+3c+K/IzV05qx62cnuAAAAAAAAAAAAcAp7Q1WPxws5L7zwwlMk5Kwa37Wp7v5uY9VV1y/qaO4dNGP+8rrzru5qa+uu3pu6qm1ib+xn6+rWT2xthp2dt95eS+cfrD+P5vkXjllvP+ul+eXo4IZadtXltfK7jYyzrbo+va02buqt5Y0vemx13X1/Y/9QI/X0nslV9/nHTkgBAAAAAAAAAADgVBMvH59//vn61a9+VU8++eQRX88++2zryarHH39cyNk0XJs+29+cgNl23Q11xZzJ3UO1L76jHn54bfWcP6MZct7Y019DjRvz++r2WzrreCln1WiNNM9jb6u3va319Ohgbbj5srro2tU1sLdxq6t6Nz9cG2/sqFkzF9QNq7qb4ehA7621bteh0zxH65+bn9VR7/pXjSeOYuLv+lxzMfHMm5sLAAAAAAAAAAAAOOlF6sczzjijzj777Ob6qaeeqq997Wt1zz33HPHVCD0PaoSfQs6qkW/31+pdjVVX9X606yjHls+oWRM3Rn6w6pCQs7e2/Lel9dI5npP+8fHDpmn+YrAeai4W1NxzGu8jNfBfV9bqByefa//gmvrBwxtr+YUvfnvblb31t1c3Ys2h6v/rZbXhF2OTNx4bqu3NxYLqOL+5OKKxwR/XA81VZ7Ufo/kEAAAAAAAAAACAk8lpf5zQWk+rffv21ebNm5sx57F8+MMfrvnz5zfXu3btqm9961vN9akaco7/Yl1de9VknNn56W215cYjpZkNYzV458drxRd3No9Wr/nX18a7bq+uc5s3X/DE15fU5bc3U89qn7+w2v+ssXq+RnYMVTPb/OD62n3HolYwOlJb+/pr3+K/raULjlJb7h+qddcvqf5mbDr5mTOe3llPNH6J6zbW7r9rxKcTn7PssloxUNU2b2G9c/bEvX8ZqZ27WkHpBX217ftHjk6BE2Pv3r01Z84RxvoCAAAAAAAAAABTYmxsckDi7t27m++HisWcDY1Jm88880wdOHCgtfNyjQmeZ511VnPdOHL917/+dXM9c+bMOuecc+q0005rXp8y9g/W6vdeWxs61tRPNvZUe2v7cGM/668be9Y1o8+2Bctr7d29tWDyf+NL7R+uTZ/6eK1qTdw8VNuCpXXHHX0vC0CP69nB6r95Ra0bbGakLW219Bs/rb5LJo9sH/riO2rJnc3lYTqr93v31vL5xz8IHnjtxJwAAAAAAAAAADC9XrcxJ6/N+ODm2t7eU4uOE1mObFtRH92xsL60qqfmzmxtHsX4xD+SFw+wb2gc0/6nBJXjNbproB76n/9c+/7lbdX+np7qOeRI9vFnhmvo/7aOYX/BrJrb2VFtOk6YcmJOAAAAAAAAAACYXmJOAF5CzAkAAAAAAAAAANPrWDHnm1rvAAAAAAAAAAAAAASIOQEAAAAAAAAAAACCxJwAAAAAAAAAAAAAQWJOAAAAAAAAAAAAgCAxJwAAAAAAAAAAAECQmBMAAAAAAAAAAAAgSMwJAAAAAAAAAAAAECTmBAAAAAAAAAAAAAgScwIAAAAAAAAAAAAEiTkBAAAAAAAAAAAAgsScAAAAAAAAAAAAAEFiTgAAAAAAAAAAAIAgMScAAAAAAAAAAABAkJgTAAAAAAAAAAAAIEjMCQAAAAAAAAAAABAk5gQAAAAAAAAAAAAIEnMCAAAAAAAAAAAABIk5AQAAAAAAAAAAAILEnAAAAAAAAAAAAABBYk4AAAAAAAAAAACAIDEnAAAAAAAAAAAAQJCYEwAAAAAAAAAAACBIzAkAAAAAAAAAAAAQJOYEAAAAAAAAAAAACBJzAgAAAAAAAAAAAASJOQEAAAAAAAAAAACCxJwAAAAAAAAAAAAAQWJOAAAAAAAAAAAAgCAxJwAAAAAAAAAAAECQmBMAAAAAAAAAAAAgSMwJAAAAAAAAAAAAECTmBAAAAAAAAAAAAAgScwIAAAAAAAAAAAAEiTkBAAAAAAAAAAAAgsScAAAAAAAAAAAAAEFiTgAAAAAAAAAAAIAgMScAAAAAAAAAAABAkJgTAAAAAAAAAAAAIEjMCQAAAAAAAAAAABAk5gQAAAAAAAAAAAAIEnMCAAAAAAAAAAAABIk5AQAAAAAAAAAAAILEnAAAAAAAAAAAAABBYk4AAAAAAAAAAACAIDEnAAAAAAAAAAAAQJCYEwAAAAAAAAAAACBIzAkAAAAAAAAAAAAQJOYEAAAAAAAAAAAACBJzAgAAAAAAAAAAAASJOQEAAAAAAAAAAACCxJwAAAAAAAAAAAAAQWJOAAAAAAAAAAAAgCAxJwAAAAAAAAAAAECQmBMAAAAAAAAAAAAg6LQ/Tmitp8X+/ftrz5499Zvf/Ka1MzXe/va317x582rmzJmtHabPeA2uubRW/eKdNfvC5fXVWxfUjNadg0Z+tr3G53XV3FmtDWBa7d27t+bMmdO6AgAAAAAAAAAAptrY2Fjzfffu3c33Q01rzLlv377avHlzPfXUU62dqXXeeedVT09PzZ49u7XDiTJy/4patau9rrisp654f3u9tMkcqa3LLqsVA1Vtn9xWjy7raO23PLahlvzV6hpq66retXfU8gVtrRvAdBFzAgAAAAAAAADA9HpdxJwHDhyoBx98sB555JHWzvS4+OKLa/HixXXGGWe0dk4Co9trde+Geqx1OXUuqKX9fdX1stZypDbfcFmt3FHVtuze+uknD5+8OVT971hS6yZW3Xc/WmuvPOwDnh2qdZ9aVv0/HG1edn5kba35ZHfNNUQVpo2YEwAAAAAAAAAAptfrIuZsHK9+3333NY9Yb0zMfN/73lczZhx++PaJMT4+Xj/60Y+aE0AbR61fc801J9dx689srWULV9RA63LqLKq1O9dX9zmty4Me21CL/2p1DVdH9X1/Wy29oLV/0N7Ndd17V9bOo91vGqvhjSvqxs9ur2bSOaen1tzTVz3znLsO00HMCQAAAAAAAAAA0+t1F3NOdWA5nd8VMTZUm789VJN/1kM9V/+0dV1tbYzs7Lq++i5un9w+muf+qR5Yv7UZZXYvu6re9bbW/gtmVeeHeqrzJX3leA1+/tK6dv3oxHesqZ9s7KnDv2V8x+r68xs2TKyur427b6+uY/SZYzv66+O962rnxMe1Xb2+vt+/qBy6DlNPzAkAAAAAAAAAANNLzHmyxZxHNVpbb76oVjw4sbx1S/3yls7J7aN5YcLnUSZwHsn4YPVfem2tG63q+fLuWnP5y0vN4Y2La/Fnh6suWVM/+cbLY8+XeXqgVq15oq76++XVeSr8meB1QMwJAAAAAAAAAADT61gx55ta7/CKjO14qBlyNo5gn/uW4RocHDzsNVDbdww3n61zx+vpl90/wmtkVl1xbWeN//yw/V+M1vjkJwEAAAAAAAAAAMBJy2TOk8rUT+Yc3basLvrEQOtqil25th69u9ux6zAFTOYEAAAAAAAAAIDpZTInJ87M9lp4ycKjv+YdTC/bq/NI91/N65yXH+EOAAAAAAAAAAAAJxuTOU8qUz+Z83iGNy6uxZ8drrpkTf3kGz3V3toHXl9M5gQAAAAAAAAAgOllMifTZLgG//twc7XwygVCTgAAAAAAAAAAAHgFxJycOI8N1gOPNRYd1fUXUk4AAAAAAAAAAAB4JcScnDDDOx6o5lzO8xfUrOcGa3Dw1b+GnxlvfhYAAAAAAAAAAACcKk7744TWekrt37+/7rvvvtqzZ0/Nmzevrrnmmpo5c2br7ok1nd817Xatq3d8oL91MT0W3fVorV/c1ro6mqFad9GS6h9tXb5Gr+y7gD/V3r17a86cOa0rAAAAAAAAAABgqo2NjTXfd+/e3Xw/lMmcnBDjgz+ubzRDzrZqa7WYXdf1Vd/KV/C6aVHNnfyRmj1zRmsFAAAAAAAAAAAApwaTOd9onn2iBv/P0cZfjtXO9ctq3Y6J5Ydur3sXH0wkj+LZnbXu5nW1sxbW8ruX18KzWvuHmfWvO6vjnGNFliO1+cbLauX2ieUH19eWv/xOLfnU9upYua223dQx+cgxjHz7xrqsb+KH25bXvT/trQV6TphyJnMCAAAAAAAAAMD0MpnzZHLW3FqwYMFRXp31zlmTjy38i64j3D/s1fnOemvz6bfWOzuPcL/1OnbIWTW+a2ttaoSc1VF9H1lUne//D9UzcTX81QdqcH9j/xie3V4b7mz+cHV9skfICQAAAAAAAAAAwClHzHlSeb7qwOTqrX925uRiyo3WwFf7a7ixvPJjddUFE+9nLarrV3ZM3NpQ/V8frvHGvSMar8F7bqtNjUGj83urd3H75DYAAAAAAAAAAACcQiLHrM+ePbve/e531xlnnNG6e2L9/ve/r5///Oe1b9++k++Y9WMaqnXvWFL9E6ul3/jf1XfJccZcPrO1li1cUQO1qNbuXF/d57T2X4XxHavr0hs21Gh1VO/3ttTy+a3vfHZ7rbrixto02jmxf++L+4cY2bailnxi68TPHv0ZYGo4Zh0AAAAAAAAAAKbXsY5Zn7aY88CBA/Xggw/WI4880tqZHpdcckldeeWV9eY3v7m1cxJ7emstu7QRZ3ZU3/e31dLGlMxj+VNjzvHhWnfN4urfVdV23cZ6+O+6qnXKe9PYD1fVv/3Yphpt666131tb3ee2bkwY37Wurv1Afw1NrDtv3VL33tJZUk6YPmJOAAAAAAAAAACYXseKOaftmPXTTz+9LrroojrvvPNaO1Ov8V0XX3zxqRFyThh7/B9roLlaUB3nNxdTaLyGN65qhpxVXdX70ZeGnA2z3t9X62/trBrdWis+sKK2Pj253wg5P/rXkyFn29Vr604hJwAAAAAAAAAAAKewKY05//CHP9RTTz1VTz75ZPP129/+ti699NJ6z3veU2effXbrqROv8dmN72h8V+M7D35/43dp/E4np7Ea/MGmyeWV76q5U1xHju/aUKs+38gxqzo/3Vs9RxzwN6M6b7mz1l7d1go6r6vVX1zVnMi5c3Qy5Nzy993V3noaAAAAAAAAAAAATkVTesz6/v3767777qs9e/a0drLmzZtX11xzTc2cObO1c/IY/1l/LelZV8MT654v7641lx8+J/MIXusx6/sHa/V7r60NoxPr+X217XtLq2PyzlGM1MBt19Wy7460rg8JOU9vbQDTyjHrAAAAAAAAAAAwvV4Xx6wzhZ7eWrctnww564K+uv6VhJyv1YGR2vqfVkyGnG3dtfau44ScB8ZqeNum+s7/eDHkbBjdsbk23T9UowdaGwAAAAAAAAAAAHCKmtLJnL/73e9qaGionn/++dZO1plnnlmdnZ31lre8pbXzxjf+5OZatXRlbd7buOqs3u/dW8vnv8Iz1l/1ZM6R2tq7pFbc3yw5q/uuLbV28ZEPSR9/9oka3LqhNnxpc/NI9Ya2BUur9yNz64mv99eGwdbmnK66/j/eUNd3d9Xcsya3gKlnMicAAAAAAAAAAEyvY03mnNKYk6k0Vk9s66+Vn9hUQ83r9uq5+5u15sojx5VH9KpiztEauG1J66j0tlr4yfX11WWd9ZJstBFw7theD92/qTZtP2QS55xF1fs3vXX95XNrcmZo43e/u1Z/YUNtb0aoDW019/1XVE/3FdV1SWfNPesVBqnAayLmBAAAAAAAAACA6SXmPMmM7dlad9/+uRenW7YtrOX9X6reS17l8eqvcjLnyLYVteQTW6v91i117y2NkHO8xp4cqu07flw7tw7U5l0vPUq9bV53fWxlb/V0tbcizsMcGK2h+79SX/j8hhemd75gTmd1Xd9X6288LBgFTggxJwAAAAAAAAAATK9jxZxvar3zhjFS2+95MeRsW7C8Nn7/m68+5HwN2hf31h13bamNzZCzYUY997++U5+7fcMhIWd7dV13e218eHc9+tDaWnq0kLPh9LbqXNJX39z5aG25q7e657W1bkw4+71184eEnAAAAAAAAAAAAJz8TOZ8I9o/VOs+9oV67kP/uW5efPDo8tdgdHut7t1Qj9UFtbS/r7oOaSlfubHa/pkldff4VXXDv19UXf9m4vc5vXXrNRh7cns98PWdNfumvlp0bmsTOOFM5gQAAAAAAAAAgOnlmHUAXkLMCQAAAAAAAAAA08sx6wAAAAAAAAAAAACvU2JOAAAAAAAAAAAAgCAxJwAAAAAAAAAAAECQmBMAAAAAAAAAAAAgSMwJAAAAAAAAAAAAECTmBAAAAAAAAAAAAAgScwIAAAAAAAAAAAAEiTkBAAAAAAAAAAAAgsScAAAAAAAAAAAAAEFiTgAAAAAAAAAAAIAgMScAAAAAAAAAAABAkJgTAAAAAAAAAAAAIEjMCQAAAAAAAAAAABAk5gQAAAAAAAAAAAAIEnMCAAAAAAAAAAAABIk5AQAAAAAAAAAAAILEnAAAAAAAAAAAAABBYk4AAAAAAAAAAACAIDEnAAAAAAAAAAAAQJCYEwAAAAAAAAAAACBIzAkAAAAAAAAAAAAQJOYEAAAAAAAAAAAACBJzAgAAAAAAAAAAAASJOQEAAAAAAAAAAACCxJwAAAAAAAAAAAAAQWJOAAAAAAAAAAAAgCAxJwAAAAAAAAAAAECQmBMAAAAAAAAAAAAgSMwJAAAAAAAAAAAAECTmBAAAAAAAAAAAAAgScwIAAAAAAAAAAAAEiTkBAAAAAAAAAAAAgsScAAAAAAAAAAAAAEFiTgAAAAAAAAAAAIAgMScAAAAAAAAAAABAkJgTAAAAAAAAAAAAIEjMCQAAAAAAAAAAABAk5gQAAAAAAAAAAAAIEnMCAAAAAAAAAAAABIk5AQAAAAAAAAAAAILEnAAAAAAAAAAAAABBYk4AAAAAAAAAAACAIDEnAAAAAAAAAAAAQJCYEwAAAAAAAAAAACBIzAkAAAAAAAAAAAAQJOYEAAAAAAAAAAAACBJzAgAAAAAAAAAAAASJOQEAAAAAAAAAAACCxJwAAAAAAAAAAAAAQWJOAAAAAAAAAAAAgCAxJwAAAAAAAAAAAECQmBMAAAAAAAAAAAAgSMwJAAAAAAAAAAAAECTmBAAAAAAAAAAAAAgScwIAAAAAAAAAAAAEiTkBAAAAAAAAAAAAgsScAAAAAAAAAAAAAEFiTgAAAAAAAAAAAIAgMScAAAAAAAAAAABAkJgTAAAAAAAAAAAAIEjMCQAAAAAAAAAAABAk5gQAAAAAAAAAAAAIEnMCAAAAAAAAAAAABIk5AQAAAAAAAAAAAILEnAAAAAAAAAAAAABBYk4AAAAAAAAAAACAIDEnAAAAAAAAAAAAQJCYEwAAAAAAAAAAACBIzAkAAAAAAAAAAAAQJOYEAAAAAAAAAAAACBJzAgAAAAAAAAAAAASJOQEAAAAAAAAAAACCxJwAAAAAAAAAAAAAQWJOAAAAAAAAAAAAgCAxJwAAAAAAAAAAAECQmBMAAAAAAAAAAAAgSMwJAAAAAAAAAAAAECTmBAAAAAAAAAAAAAgScwIAAAAAAAAAAAAEiTkBAAAAAAAAAAAAgsScAAAAAAAAAAAAAEFiTgAAAAAAAAAAAIAgMScAAAAAAAAAAABAkJgTAAAAAAAAAAAAIEjMCQAAAAAAAAAAABAk5gQAAAAAAAAAAAAIEnMCAAAAAAAAAAAABIk5AQAAAAAAAAAAAILEnAAAAAAAAAAAAABBYk4AAAAAAAAAAACAIDEnAAAAAAAAAAAAQJCYEwAAAAAAAAAAACBIzAkAAAAAAAAAAAAQJOYEAAAAAAAAAAAACBJzAgAAAAAAAAAAAASJOQEAAAAAAAAAAACCxJwAAAAAAAAAAAAAQWJOAAAAAAAAAAAAgCAxJwAAAAAAAAAAAECQmBMAAAAAAAAAAAAgSMwJAAAAAAAAAAAAECTmBAAAAAAAAAAAAAgScwIAAAAAAAAAAAAEiTkBAAAAAAAAAAAAgsScAAAAAAAAAAAAAEFiTgAAAAAAAAAAAIAgMScAAAAAAAAAAABAkJgTAAAAAAAAAAAAIEjMCQAAAAAAAAAAABAk5gQAAAAAAAAAAAAIEnMCAAAAAAAAAAAABIk5AQAAAAAAAAAAAILEnAAAAAAAAAAAAABBYk4AAAAAAAAAAACAIDEnAAAAAAAAAAAAQJCYEwAAAAAAAAAAACBIzAkAAAAAAAAAAAAQJOYEAAAAAAAAAAAACBJzAgAAAAAAAAAAAASJOQEAAAAAAAAAAACCxJwAAAAAAAAAAAAAQWJOAAAAAAAAAAAAgCAxJwAAAAAAAAAAAECQmBMAAAAAAAAAAAAgSMwJAAAAAAAAAAAAECTmBAAAAAAAAAAAAAgScwIAAAAAAAAAAAAEiTkBAAAAAAAAAAAAgsScAAAAAAAAAAAAAEFiTgAAAAAAAAAAAIAgMScAAAAAAAAAAABAkJgTAAAAAAAAAAAAIEjMCQAAAAAAAAAAABAk5gQAAAAAAAAAAAAIEnMCAAAAAAAAAAAABIk5AQAAAAAAAAAAAILEnAAAAAAAAAAAAABBYk4AAAAAAAAAAACAIDEnAAAAAAAAAAAAQJCYEwAAAAAAAAAAACBIzAkAAAAAAAAAAAAQJOYEAAAAAAAAAAAACBJzAgAAAAAAAAAAAASJOQEAAAAAAAAAAACCxJwAAAAAAAAAAAAAQWJOAAAAAAAAAAAAgCAxJwAAAAAAAAAAAECQmBMAAAAAAAAAAAAgSMwJAAAAAAAAAAAAECTmBAAAAAAAAAAAAAgScwIAAAAAAAAAAAAEiTkBAAAAAAAAAAAAgsScAAAAAAAAAAAAAEFiTgAAAAAAAAAAAIAgMScAAAAAAAAAAABAkJgTAAAAAAAAAAAAIEjMCQAAAAAAAAAAABAk5gQAAAAAAAAAAAAIEnMCAAAAAAAAAAAABIk5AQAAAAAAAAAAAILEnAAAAAAAAAAAAABBYk4AAAAAAAAAAACAIDEnAAAAAAAAAAAAQJCYEwAAAAAAAAAAACBIzAkAAAAAAAAAAAAQJOYEAAAAAAAAAAAACBJzAgAAAAAAAAAAAASJOQEAAAAAAAAAAACCxJwAAAAAAAAAAAAAQWJOAAAAAAAAAAAAgCAxJwAAAAAAAAAAAECQmBMAAAAAAAAAAAAgSMwJAAAAAAAAAAAAECTmBAAAAAAAAAAAAAgScwIAAAAAAAAAAAAEiTkBAAAAAAAAAAAAgsScAAAAAAAAAAAAAEFiTgAAAAAAAAAAAIAgMScAAAAAAAAAAABAkJgTAAAAAAAAAAAAIEjMCQAAAAAAAAAAABAk5gQAAAAAAAAAAAAIEnMCAAAAAAAAAAAABIk5AQAAAAAAAAAAAILEnAAAAAAAAAAAAABBYk4AAAAAAAAAAACAIDEnAAAAAAAAAAAAQJCYEwAAAAAAAAAAACBIzAkAAAAAAAAAAAAQJOYEAAAAAAAAAAAACBJzAgAAAAAAAAAAAASJOQEAAAAAAAAAAACCxJwAAAAAAAAAAAAAQWJOAAAAAAAAAAAAgCAxJwAAAAAAAAAAAECQmBMAAAAAAAAAAAAgSMwJAAAAAAAAAAAAECTmBAAAAAAAAAAAAAgScwIAAAAAAAAAAAAEiTkBAAAAAAAAAAAAgsScAAAAAAAAAAAAAEFiTgAAAAAAAAAAAIAgMScAAAAAAAAAAABAkJgTAAAAAAAAAAAAIEjMCQAAAAAAAAAAABAk5gQAAAAAAAAAAAAIEnMCAAAAAAAAAAAABIk5AQAAAAAAAAAAAILEnAAAAAAAAAAAAABBYk4AAAAAAAAAAACAIDEnAAAAAAAAAAAAQJCYEwAAAAAAAAAAACBIzAkAAAAAAAAAAAAQJOYEAAAAAAAAAAAACBJzAgAAAAAAAAAAAASJOQEAAAAAAAAAAACCxJwAAAAAAAAAAAAAQWJOAAAAAAAAAAAAgCAxJwAAAAAAAAAAAECQmBMAAAAAAAAAAAAgSMwJAAAAAAAAAAAAECTmBAAAAAAAAAAAAAgScwIAAAAAAAAAAAAEiTkBAAAAAAAAAAAAgsScAAAAAAAAAAAAAEFiTgAAAAAAAAAAAIAgMScAAAAAAAAAAABAkJgTAAAAAAAAAAAAIEjMCQAAAAAAAAAAABAk5gQAAAAAAAAAAAAIEnMCAAAAAAAAAAAABIk5AQAAAAAAAAAAAILEnAAAAAAAAAAAAABBYk4AAAAAAAAAAACAIDEnAAAAAAAAAAAAQJCYEwAAAAAAAAAAACBIzAkAAAAAAAAAAAAQJOYEAAAAAAAAAAAACBJzAgAAAAAAAAAAAASJOQEAAAAAAAAAAACCxJwAAAAAAAAAAAAAQWJOAAAAAAAAAAAAgCAxJwAAAAAAAAAAAECQmBMAAAAAAAAAAAAgSMwJAAAAAAAAAAAAECTmBAAAAAAAAAAAAAgScwIAAAAAAAAAAAAEiTkBAAAAAAAAAAAAgsScAAAAAAAAAAAAAEFiTgAAAAAAAAAAAIAgMScAAAAAAAAAAABAkJgTAAAAAAAAAAAAIEjMCQAAAAAAAAAAABAk5gQAAAAAAAAAAAAIEnMCAAAAAAAAAAAABIk5AQAAAAAAAAAAAILEnAAAAAAAAAAAAABBYk4AAAAAAAAAAACAIDEnAAAAAAAAAAAAQJCYEwAAAAAAAAAAACBIzAkAAAAAAAAAAAAQJOYEAAAAAAAAAAAACBJzAgAAAAAAAAAAAASJOQEAAAAAAAAAAACCxJwAAAAAAAAAAAAAQWJOAAAAAAAAAAAAgCAxJwAAAAAAAAAAAECQmBMAAAAAAAAAAAAgSMwJAAAAAAAAAAAAECTmBAAAAAAAAAAAAAgScwIAAAAAAAAAAAAEiTkBAAAAAAAAAAAAgsScAAAAAAAAAAAAAEFiTgAAAAAAAAAAAIAgMScAAAAAAAAAAABAkJgTAAAAAAAAAAAAIEjMCQAAAAAAAAAAABAk5gQAAAAAAAAAAAAIEnMCAAAAAAAAAAAABIk5AQAAAAAAAAAAAILEnAAAAAAAAAAAAABBYk4AAAAAAAAAAACAIDEnAAAAAAAAAAAAQJCYEwAAAAAAAAAAACBIzAkAAAAAAAAAAAAQJOYEAAAAAAAAAAAACBJzAgAAAAAAAAAAAASJOQEAAAAAAAAAAACCxJwAAAAAAAAAAAAAQWJOAAAAAAAAAAAAgCAxJwAAAAAAAAAAAECQmBMAAAAAAAAAAAAgSMwJAAAAAAAAAAAAECTmBAAAAAAAAAAAAAgScwIAAAAAAAAAAAAEiTkBAAAAAAAAAAAAgsScAAAAAAAAAAAAAEFiTgAAAAAAAAAAAIAgMScAAAAAAAAAAABAkJgTAAAAAAAAAAAAIEjMCQAAAAAAAAAAABAk5gQAAAAAAAAAAAAIEnMCAAAAAAAAAAAABIk5AQAAAAAAAAAAAILEnAAAAAAAAAAAAABBYk4AAAAAAAAAAACAIDEnAAAAAAAAAAAAQJCYEwAAAAAAAAAAACBIzAkAAAAAAAAAAAAQJOYEAAAAAAAAAAAACBJzAgAAAAAAAAAAAASJOQEAAAAAAAAAAACCxJwAAAAAAAAAAAAAQWJOAAAAAAAAAAAAgCAxJwAAAAAAAAAAAECQmBMAAAAAAAAAAAAgSMwJAAAAAAAAAAAAECTmBAAAAAAAAAAAAAgScwIAAAAAAAAAAAAEiTkBAAAAAAAAAAAAgsScAAAAAAAAAAAAAEFiTgAAAAAAAAAAAIAgMScAAAAAAAAAAABAkJgTAAAAAAAAAAAAIEjMCQAAAAAAAAAAABAk5gQAAAAAAAAAAAAIEnMCAAAAAAAAAAAABIk5AQAAAAAAAAAAAILEnAAAAAAAAAAAAABBYk4AAAAAAAAAAACAIDEnAAAAAAAAAAAAQJCYEwAAAAAAAAAAACBIzAkAAAAAAAAAAAAQJOYEAAAAAAAAAAAACBJzAgAAAAAAAAAAAASJOQEAAAAAAAAAAACCxJwAAAAAAAAAAAAAQWJOAAAAAAAAAAAAgCAxJwAAAAAAAAAAAECQmBMAAAAAAAAAAAAgSMwJAAAAAAAAAAAAECTmBAAAAAAAAAAAAAgScwIAAAAAAAAAAAAEiTkBAAAAAAAAAAAAgsScAAAAAAAAAAAAAEFiTgAAAAAAAAAAAIAgMScAAAAAAAAAAABAkJgTAAAAAAAAAAAAIEjMCQAAAAAAAAAAABAk5gQAAAAAAAAAAAAIEnMCAAAAAAAAAAAABIk5AQAAAAAAAAAAAILEnAAAAAAAAAAAAABBYk4AAAAAAAAAAACAIDEnAAAAAAAAAAAAQJCYEwAAAAAAAAAAACBIzAkAAAAAAAAAAAAQJOYEAAAAAAAAAAAACBJzAgAAAAAAAAAAAASJOQEAAAAAAAAAAACCxJwAAAAAAAAAAAAAQWJOAAAAAAAAAAAAgCAxJwAAAAAAAAAAAECQmBMAAAAAAAAAAAAgSMwJAAAAAAAAAAAAECTmBAAAAAAAAAAAAAgScwIAAAAAAAAAAAAEiTkBAAAAAAAAAAAAgsScAAAAAAAAAAAAAEFiTgAAAAAAAAAAAIAgMScAAAAAAAAAAABAkJgTAAAAAAAAAAAAIEjMCQAAAAAAAAAAABAk5gQAAAAAAAAAAAAIEnMCAAAAAAAAAAAABIk5AQAAAAAAAAAAAILEnAAAAAAAAAAAAABBYk4AAAAAAAAAAACAIDEnAAAAAAAAAAAAQJCYEwAAAAAAAAAAACBIzAkAAAAAAAAAAAAQJOYEAAAAAAAAAAAACBJzAgAAAAAAAAAAAASJOQEAAAAAAAAAAACCxJwAAAAAAAAAAAAAQWJOAAAAAAAAAAAAgCAxJwAAAAAAAAAAAECQmBMAAAAAAAAAAAAgSMwJAAAAAAAAAAAAECTmBAAAAAAAAAAAAAgScwIAAAAAAAAAAAAEiTkBAAAAAAAAAAAAgsScAAAAAAAAAAAAAEFiTgAAAAAAAAAAAIAgMScAAAAAAAAAAABAkJgTAAAAAAAAAAAAIEjMCQAAAAAAAAAAABAk5gQAAAAAAAAAAAAIEnMCAAAAAAAAAAAABIk5AQAAAAAAAAAAAILEnAAAAAAAAAAAAABBYk4AAAAAAAAAAACAIDEnAAAAAAAAAAAAQJCYEwAAAAAAAAAAACBIzAkAAAAAAAAAAAAQJOYEAAAAAAAAAAAACBJzAgAAAAAAAAAAAASJOQEAAAAAAAAAAACCxJwAAAAAAAAAAAAAQWJOAAAAAAAAAAAAgCAxJwAAAAAAAAAAAECQmBMAAAAAAAAAAAAgSMwJAAAAAAAAAAAAECTmBAAAAAAAAAAAAAgScwIAAAAAAAAAAAAEiTkBAAAAAAAAAAAAgsScAAAAAAAAAAAAAEFiTgAAAAAAAAAAAIAgMScAAAAAAAAAAABAkJgTAAAAAAAAAAAAIEjMCQAAAAAAAAAAABAk5gQAAAAAAAAAAAAIEnMCAAAAAAAAAAAABIk5AQAAAAAAAAAAAILEnAAAAAAAAAAAAABBYk4AAAAAAAAAAACAIDEnAAAAAAAAAAAAQJCYEwAAAAAAAAAAACBIzAkAAAAAAAAAAAAQJOYEAAAAAAAAAAAACBJzAgAAAAAAAAAAAASJOQEAAAAAAAAAAACCxJwAAAAAAAAAAAAAQWJOAAAAAAAAAAAAgCAxJwAAAAAAAAAAAECQmBMAAAAAAAAAAAAgSMwJAAAAAAAAAAAAECTmBAAAAAAAAAAAAAgScwIAAAAAAAAAAAAEiTkBAAAAAAAAAAAAgsScAAAAAAAAAAAAAEFiTgAAAAAAAAAAAIAgMScAAAAAAAAAAABAkJgTAAAAAAAAAAAAIEjMCQAAAAAAAAAAABAk5gQAAAAAAAAAAAAIEnMCAAAAAAAAAAAABIk5AQAAAAAAAAAAAILEnAAAAAAAAAAAAABBYk4AAAAAAAAAAACAIDEnAAAAAAAAAAAAQJCYEwAAAAAAAAAAACBIzAkAAAAAAAAAAAAQJOYEAAAAAAAAAAAACBJzAgAAAAAAAAAAAASJOQEAAAAAAAAAAACCxJwAAAAAAAAAAAAAQWJOAAAAAAAAAAAAgCAxJwAAAAAAAAAAAECQmBMAAAAAAAAAAAAgSMwJAAAAAAAAAAAAECTmBAAAAAAAAAAAAAgScwIAAAAAAAAAAAAEiTkBAAAAAAAAAAAAgsScAAAAAAAAAAAAAEFiTgAAAAAAAAAAAIAgMScAAAAAAAAAAABAkJgTAAAAAAAAAAAAIEjMCQAAAAAAAAAAABAk5gQAAAAAAAAAAAAIEnMCAAAAAAAAAAAABIk5AQAAAAAAAAAAAILEnAAAAAAAAAAAAABBYk4AAAAAAAAAAACAIDEnAAAAAAAAAAAAQJCYEwAAAAAAAAAAACBIzAkAAAAAAAAAAAAQJOYEAAAAAAAAAAAACBJzAgAAAAAAAAAAAASJOQEAAAAAAAAAAACCxJwAAAAAAAAAAAAAQWJOAAAAAAAAAAAAgCAxJwAAAAAAAAAAAECQmBMAAAAAAAAAAAAgSMwJAAAAAAAAAAAAECTmBAAAAAAAAAAAAAgScwIAAAAAAAAAAAAEiTkBAAAAAAAAAAAAgsScAAAAAAAAAAAAAEFiTgAAAAAAAAAAAIAgMScAAAAAAAAAAABAkJgTAAAAAAAAAAAAIEjMCQAAAAAAAAAAABAk5gQAAAAAAAAAAAAIEnMCAAAAAAAAAAAABIk5AQAAAAAAAAAAAILEnAAAAAAAAAAAAABBYk4AAAAAAAAAAACAIDEnAAAAAAAAAAAAQJCYEwAAAAAAAAAAACBIzAkAAAAAAAAAAAAQJOYEAAAAAAAAAAAACBJzAgAAAAAAAAAAAASJOQEAAAAAAAAAAACCxJwAAAAAAAAAAAAAQWJOAAAAAAAAAAAAgCAxJwAAAAAAAAAAAECQmBMAAAAAAAAAAAAgSMwJAAAAAAAAAAAAECTmBAAAAAAAAAAAAAgScwIAAAAAAAAAAAAEiTkBAAAAAAAAAAAAgsScAAAAAAAAAAAAAEFiTgAAAAAAAAAAAIAgMScAAAAAAAAAAABAkJgTAAAAAAAAAAAAIEjMCQAAAAAAAAAAABAk5gQAAAAAAAAAAAAIEnMCAAAAAAAAAAAABIk5AQAAAAAAAAAAAILEnAAAAAAAAAAAAABBYk4AAAAAAAAAAACAIDEnAAAAAAAAAAAAQJCYEwAAAAAAAAAAACBIzAkAAAAAAAAAAAAQJOYEAAAAAAAAAAAACBJzAgAAAAAAAAAAAASJOQEAAAAAAAAAAACCxJwAAAAAAAAAAAAAQWJOAAAAAAAAAAAAgCAxJwAAAAAAAAAAAECQmBMAAAAAAAAAAAAgSMwJAAAAAAAAAAAAECTmBAAAAAAAAAAAAAgScwIAAAAAAAAAAAAEiTkBAAAAAAAAAAAAgsScAAAAAAAAAAAAAEFiTgAAAAAAAAAAAIAgMScAAAAAAAAAAABAkJgTAAAAAAAAAAAAIEjMCQAAAAAAAAAAABAk5gQAAAAAAAAAAAAIEnMCAAAAAAAAAAAABIk5AQAAAAAAAAAAAILEnAAAAAAAAAAAAABBYk4AAAAAAAAAAACAIDEnAAAAAAAAAAAAQJCYEwAAAAAAAAAAACBIzAkAAAAAAAAAAAAQJOYEAAAAAAAAAAAACBJzAgAAAAAAAAAAAASJOQEAAAAAAAAAAACCxJwAAAAAAAAAAAAAQWJOAAAAAAAAAAAAgCAxJwAAAAAAAAAAAECQmBMAAAAAAAAAAAAgSMwJAAAAAAAAAAAAECTmBAAAAAAAAAAAAAgScwIAAAAAAAAAAAAEiTkBAAAAAAAAAAAAgsScAAAAAAAAAAAAAEFiTgAAAAAAAAAAAIAgMScAAAAAAAAAAABAkJgTAAAAAAAAAAAAIEjMCQAAAAAAAAAAABAk5gQAAAAAAAAAAAAIEnMCAAAAAAAAAAAABIk5AQAAAAAAAAAAAILEnAAAAAAAAAAAAABBYk4AAAAAAAAAAACAIDEnAAAAAAAAAAAAQJCYEwAAAAAAAAAAACBIzAkAAAAAAAAAAAAQJOYEAAAAAAAAAAAACBJzAgAAAAAAAAAAAASJOQEAAAAAAAAAAACCxJwAAAAAAAAAAAAAQWJOAAAAAAAAAAAAgCAxJwAAAAAAAAAAAECQmBMAAAAAAAAAAAAgSMwJAAAAAAAAAAAAECTmBAAAAAAAAAAAAAgScwIAAAAAAAAAAAAEiTkBAAAAAAAAAAAAgsScAAAAAAAAAAAAAEFiTgAAAAAAAAAAAIAgMScAAAAAAAAAAABAkJgTAAAAAAAAAAAAIEjMCQAAAAAAAAAAABAk5gQAAAAAAAAAAAAIEnMCAAAAAAAAAAAABIk5AQAAAAAAAAAAAILEnAAAAAAAAAAAAABBYk4AAAAAAAAAAACAIDEnAAAAAAAAAAAAQJCYEwAAAAAAAAAAACBIzAkAAAAAAAAAAAAQJOYEAAAAAAAAAAAACBJzAgAAAAAAAAAAAASJOQEAAAAAAAAAAACCxJwAAAAAAAAAAAAAQWJOAAAAAAAAAAAAgCAxJwAAAAAAAAAAAECQmBMAAAAAAAAAAAAgSMwJAAAAAAAAAAAAECTmBAAAAAAAAAAAAAgScwIAAAAAAAAAAAAEiTkBAAAAAAAAAAAAgsScAAAAAAAAAAAAAEFiTgAAAAAAAAAAAIAgMScAAAAAAAAAAABAkJgTAAAAAAAAAAAAIEjMCQAAAAAAAAAAABAk5gQAAAAAAPj/7NqxAAAAAMAgf+th7CmOAAAAAEYyJwAAAAAAAAAAAMBI5gQAAAAAAAAAAAAYyZwAAAAAAAAAAAAAI5kTAAAAAAAAAAAAYCRzAgAAAAAAAAAAAIxkTgAAAAAAAAAAAICRzAkAAAAAAAAAAAAwkjkBAAAAAAAAAAAARjInAAAAAAAAAAAAwEjmBAAAAAAAAAAAABjJnAAAAAAAAAAAAAAjmRMAAAAAAAAAAABgJHMCAAAAAAAAAAAAjGROAAAAAAAAAAAAgJHMCQAAAAAAAAAAADCSOQEAAAAAAAAAAABGMicAAAAAAAAAAADASOYEAAAAAAAAAAAAGMmcAAAAAAAAAAAAACOZEwAAAAAAAAAAAGAkcwIAAAAAAAAAAACMZE4AAAAAAAAAAACAkcwJAAAAAAAAAAAAMJI5AQAAAAAAAAAAAEYyJwAAAAAAAAAAAMBI5gQAAAAAAAAAAAAYyZwAAAAAAAAAAAAAI5kTAAAAAAAAAAAAYCRzAgAAAAAAAAAAAIxkTgAAAAAAAAAAAICRzAkAAAAAAAAAAAAwkjkBAAAAAAAAAAAARjInAAAAAAAAAAAAwEjmBAAAAAAAAAAAABjJnAAAAAAAAAAAAAAjmRMAAAAAAAAAAABgJHMCAAAAAAAAAAAAjGROAAAAAAAAAAAAgJHMCQAAAAAAAAAAADCSOQEAAAAAAAAAAABGMicAAAAAAAAAAADASOYEAAAAAAAAAAAAGMmcAAAAAAAAAAAAACOZEwAAAAAAAAAAAGAkcwIAAAAAAAAAAACMZE4AAAAAAAAAAACAkcwJAAAAAAAAAAAAMJI5AQAAAAAAAAAAAEYyJwAAAAAAAAAAAMBI5gQAAAAAAAAAAAAYyZwAAAAAAAAAAAAAI5kTAAAAAAAAAAAAYCRzAgAAAAAAAAAAAIxkTgAAAAAAAAAAAICRzAkAAAAAAAAAAAAwkjkBAAAAAAAAAAAARjInAAAAAAAAAAAAwEjmBAAAAAAAAAAAABjJnAAAAAAAAAAAAAAjmRMAAAAAAAAAAABgJHMCAAAAAAAAAAAAjGROAAAAAAAAAAAAgJHMCQAAAAAAAAAAADCSOQEAAAAAAAAAAABGMicAAAAAAAAAAADASOYEAAAAAAAAAAAAGMmcAAAAAAAAAAAAACOZEwAAAAAAAAAAAGAkcwIAAAAAAAAAAACMZE4AAAAAAAAAAACAkcwJAAAAAAAAAAAAMJI5AQAAAAAAAAAAAEYyJwAAAAAAAAAAAMBI5gQAAAAAAAAAAAAYyZwAAAAAAAAAAAAAI5kTAAAAAAAAAAAAYCRzAgAAAAAAAAAAAIxkTgAAAAAAAAAAAICRzAkAAAAAAAAAAAAwkjkBAAAAAAAAAAAARjInAAAAAAAAAAAAwEjmBAAAAAAAAAAAABjJnAAAAAAAAAAAAAAjmRMAAAAAAAAAAABgJHMCAAAAAAAAAAAAjGROAAAAAAAAAAAAgJHMCQAAAAAAAAAAADCSOQEAAAAAAAAAAABGMicAAAAAAAAAAADASOYEAAAAAAAAAAAAGMmcAAAAAAAAAAAAACOZEwAAAAAAAAAAAGAkcwIAAAAAAAAAAACMZE4AAAAAAAAAAACAkcwJAAAAAAAAAAAAMJI5AQAAAAAAAAAAAEYyJwAAAAAAAAAAAMBI5gQAAAAAAAAAAAAYyZwAAAAAAAAAAAAAI5kTAAAAAAAAAAAAYCRzAgAAAAAAAAAAAIxkTgAAAAAAAAAAAICRzAkAAAAAAAAAAAAwkjkBAAAAAAAAAAAARjInAAAAAAAAAAAAwEjmBAAAAAAAAAAAABjJnAAAAAAAAAAAAAAjmRMAAAAAAAAAAABgJHMCAAAAAAAAAAAAjGROAAAAAAAAAAAAgJHMCQAAAAAAAAAAADCSOQEAAAAAAAAAAABGMicAAAAAAAAAAADASOYEAAAAAAAAAAAAGMmcAAAAAAAAAAAAACOZEwAAAAAAAAAAAGAkcwIAAAAAAAAAAACMZE4AAAAAAAAAAACAkcwJAAAAAAAAAAAAMJI5AQAAAAAAAAAAAEYyJwAAAAAAAAAAAMBI5gQAAAAAAAAAAAAYyZwAAAAAAAAAAAAAI5kTAAAAAAAAAAAAYCRzAgAAAAAAAAAAAIxkTgAAAAAAAAAAAICRzAkAAAAAAAAAAAAwkjkBAAAAAAAAAAAARjInAAAAAAAAAAAAwEjmBAAAAAAAAAAAABjJnAAAAAAAAAAAAAAjmRMAAAAAAAAAAABgJHMCAAAAAAAAAAAAjGROAAAAAAAAAAAAgJHMCQAAAAAAAAAAADCSOQEAAAAAAAAAAABGMicAAAAAAAAAAADASOYEAAAAAAAAAAAAGMmcAAAAAAAAAAAAACOZEwAAAAAAAAAAAGAkcwIAAAAAAAAAAACMZE4AAAAAAAAAAACAkcwJAAAAAAAAAAAAMJI5AQAAAAAAAAAAAEYyJwAAAAAAAAAAAMBI5gQAAAAAAAAAAAAYyZwAAAAAAAAAAAAAI5kTAAAAAAAAAAAAYCRzAgAAAAAAAAAAAIxkTgAAAAAAAAAAAICRzAkAAAAAAAAAAAAwkjkBAAAAAAAAAAAARjInAAAAAAAAAAAAwEjmBAAAAAAAAAAAABjJnAAAAAAAAAAAAAAjmRMAAAAAAAAAAABgJHMCAAAAAAAAAAAAjGROAAAAAAAAAAAAgJHMCQAAAAAAAAAAADCSOQEAAAAAAAAAAABGMicAAAAAAAAAAADASOYEAAAAAAAAAAAAGMmcAAAAAAAAAAAAACOZEwAAAAAAAAAAAGAkcwIAAAAAAAAAAACMZE4AAAAAAAAAAACAkcwJAAAAAAAAAAAAMJI5AQAAAAAAAAAAAEYyJwAAAAAAAAAAAMBI5gQAAAAAAAAAAAAYyZwAAAAAAAAAAAAAI5kTAAAAAAAAAAAAYCRzAgAAAAAAAAAAAIxkTgAAAAAAAAAAAICRzAkAAAAAAAAAAAAwkjkBAAAAAAAAAAAARjInAAAAAAAAAAAAwEjmBAAAAAAAAAAAABjJnAAAAAAAAAAAAAAjmRMAAAAAAAAAAABgJHMCAAAAAAAAAAAAjGROAAAAAAAAAAAAgJHMCQAAAAAAAAAAADCSOQEAAAAAAAAAAABGMicAAAAAAAAAAADASOYEAAAAAAAAAAAAGMmcAAAAAAAAAAAAACOZEwAAAAAAAAAAAGAkcwIAAAAAAAAAAACMZE4AAAAAAAAAAACAkcwJAAAAAAAAAAAAMJI5AQAAAAAAAAAAAEYyJwAAAAAAAAAAAMBI5gQAAAAAAAAAAAAYyZwAAAAAAAAAAAAAI5kTAAAAAAAAAAAAYCRzAgAAAAAAAAAAAIxkTgAAAAAAAAAAAICRzAkAAAAAAAAAAAAwkjkBAAAAAAAAAAAARjInAAAAAAAAAAAAwEjmBAAAAAAAAAAAABjJnAAAAAAAAAAAAAAjmRMAAAAAAAAAAABgJHMCAAAAAAAAAAAAjGROAAAAAAAAAAAAgJHMCQAAAAAAAAAAADCSOQEAAAAAAAAAAABGMicAAAAAAAAAAADASOYEAAAAAAAAAAAAGMmcAAAAAAAAAAAAACOZEwAAAAAAAAAAAGAkcwIAAAAAAAAAAACMZE4AAAAAAAAAAACAkcwJAAAAAAAAAAAAMJI5AQAAAAAAAAAAAEYyJwAAAAAAAAAAAMBI5gQAAAAAAAAAAAAYyZwAAAAAAAAAAAAAI5kTAAAAAAAAAAAAYCRzAgAAAAAAAAAAAIxkTgAAAAAAAAAAAICRzAkAAAAAAAAAAAAwkjkBAAAAAAAAAAAARjInAAAAAAAAAAAAwEjmBAAAAAAAAAAAABjJnAAAAAAAAAAAAAAjmRMAAAAAAAAAAABgJHMCAAAAAAAAAAAAjGROAAAAAAAAAAAAgJHMCQAAAAAAAAAAADCSOQEAAAAAAAAAAABGMicAAAAAAAAAAADASOYEAAAAAAAAAAAAGMmcAAAAAAAAAAAAACOZEwAAAAAAAAAAAGAkcwIAAAAAAAAAAACMZE4AAAAAAAAAAACAkcwJAAAAAAAAAAAAMJI5AQAAAAAAAAAAAEYyJwAAAAAAAAAAAMBI5gQAAAAAAAAAAAAYyZwAAAAAAAAAAAAAI5kTAAAAAAAAAAAAYCRzAgAAAAAAAAAAAIxkTgAAAAAAAAAAAICRzAkAAAAAAAAAAAAwkjkBAAAAAAAAAAAARjInAAAAAAAAAAAAwEjmBAAAAAAAAAAAABjJnAAAAAAAAAAAAAAjmRMAAAAAAAAAAABgJHMCAAAAAAAAAAAAjGROAAAAAAAAAAAAgJHMCQAAAAAAAAAAADCSOQEAAAAAAAAAAABGMicAAAAAAAAAAADASOYEAAAAAAAAAAAAGMmcAAAAAAAAAAAAACOZEwAAAAAAAAAAAGAkcwIAAAAAAAAAAACMZE4AAAAAAAAAAACAkcwJAAAAAAAAAAAAMJI5AQAAAAAAAAAAAEYyJwAAAAAAAAAAAMBI5gQAAAAAAAAAAAAYyZwAAAAAAAAAAAAAI5kTAAAAAAAAAAAAYCRzAgAAAAAAAAAAAIxkTgAAAAAAAAAAAICRzAkAAAAAAAAAAAAwkjkBAAAAAAAAAAAARjInAAAAAAAAAAAAwEjmBAAAAAAAAAAAABjJnAAAAAAAAAAAAAAjmRMAAAAAAAAAAABgJHMCAAAAAAAAAAAAjGROAAAAAAAAAAAAgJHMCQAAAAAAAAAAADCSOQEAAAAAAAAAAABGMicAAAAAAAAAAADASOYEAAAAAAAAAAAAGMmcAAAAAAAAAAAAACOZEwAAAAAAAAAAAGAkcwIAAAAAAAAAAACMZE4AAAAAAAAAAACAkcwJAAAAAAAAAAAAMJI5AQAAAAAAAAAAAEYyJwAAAAAAAAAAAMBI5gQAAAAAAAAAAAAYyZwAAAAAAAAAAAAAI5kTAAAAAAAAAAAAYCRzAgAAAAAAAAAAAIxkTgAAAAAAAAAAAICRzAkAAAAAAAAAAAAwkjkBAAAAAAAAAAAARjInAAAAAAAAAAAAwEjmBAAAAAAAAAAAABjJnAAAAAAAAAAAAAAjmRMAAAAAAAAAAABgJHMCAAAAAAAAAAAAjGROAAAAAAAAAAAAgJHMCQAAAAAAAAAAADCSOQEAAAAAAAAAAABGMicAAAAAAAAAAADASOYEAAAAAAAAAAAAGMmcAAAAAAAAAAAAACOZEwAAAAAAAAAAAGAkcwIAAAAAAAAAAACMZE4AAAAAAAAAAACAkcwJAAAAAAAAAAAAMJI5AQAAAAAAAAAAAEYyJwAAAAAAAAAAAMBI5gQAAAAAAAAAAAAYyZwAAAAAAAAAAAAAI5kTAAAAAAAAAAAAYCRzAgAAAAAAAAAAAIxkTgAAAAAAAAAAAICRzAkAAAAAAAAAAAAwkjkBAAAAAAAAAAAARjInAAAAAAAAAAAAwEjmBAAAAAAAAAAAABjJnAAAAAAAAAAAAAAjmRMAAAAAAAAAAABgJHMCAAAAAAAAAAAAjGROAAAAAAAAAAAAgJHMCQAAAAAAAAAAADCSOQEAAAAAAAAAAABGMicAAAAAAAAAAADASOYEAAAAAAAAAAAAGMmcAAAAAAAAAAAAACOZEwAAAAAAAAAAAGAkcwIAAAAAAAAAAACMZE4AAAAAAAAAAACAkcwJAAAAAAAAAAAAMJI5AQAAAAAAAAAAAEYyJwAAAAAAAAAAAMBI5gQAAAAAAAAAAAAYyZwAAAAAAAAAAAAAI5kTAAAAAAAAAAAAYCRzAgAAAAAAAAAAAIxkTgAAAAAAAAAAAICRzAkAAAAAAAAAAAAwkjkBAAAAAAAAAAAARjInAAAAAAAAAAAAwEjmBAAAAAAAAAAAABjJnAAAAAAAAAAAAAAjmRMAAAAAAAAAAABgJHMCAAAAAAAAAAAAjGROAAAAAAAAAAAAgJHMCQAAAAAAAAAAADCSOQEAAAAAAAAAAABGMicAAAAAAAAAAADASOYEAAAAAAAAAAAAGMmcAAAAAAAAAAAAACOZEwAAAAAAAAAAAGAkcwIAAAAAAAAAAACMZE4AAAAAAAAAAACAkcwJAAAAAAAAAAAAMJI5AQAAAAAAAAAAAEYyJwAAAAAAAAAAAMBI5gQAAAAAAAAAAAAYyZwAAAAAAAAAAAAAI5kTAAAAAAAAAAAAYCRzAgAAAAAAAAAAAIxkTgAAAAAAAAAAAICRzAkAAAAAAAAAAAAwkjkBAAAAAAAAAAAARjInAAAAAAAAAAAAwEjmBAAAAAAAAAAAABjJnAAAAAAAAAAAAAAjmRMAAAAAAAAAAABgJHMCAAAAAAAAAAAAjGROAAAAAAAAAAAAgJHMCQAAAAAAAAAAADCSOQEAAAAAAAAAAABGMicAAAAAAAAAAADASOYEAAAAAAAAAAAAGMmcAAAAAAAAAAAAACOZEwAAAAAAAAAAAGAkcwIAAAAAAAAAAACMZE4AAAAAAAAAAACAkcwJAAAAAAAAAAAAMJI5AQAAAAAAAAAAAEYyJwAAAAAAAAAAAMBI5gQAAAAAAAAAAAAYyZwAAAAAAAAAAAAAI5kTAAAAAAAAAAAAYCRzAgAAAAAAAAAAAIxkTgAAAAAAAAAAAICRzAkAAAAAAAAAAAAwkjkBAAAAAAAAAAAARjInAAAAAAAAAAAAwEjmBAAAAAAAAAAAABjJnAAAAAAAAAAAAAAjmRMAAAAAAAAAAABgJHMCAAAAAAAAAAAAjGROAAAAAAAAAAAAgJHMCQAAAAAAAAAAADCSOQEAAAAAAAAAAABGMicAAAAAAAAAAADASOYEAAAAAAAAAAAAGMmcAAAAAAAAAAAAACOZEwAAAAAAAAAAAGAkcwIAAAAAAAAAAACMZE4AAAAAAAAAAACAkcwJAAAAAAAAAAAAMJI5AQAAAAAAAAAAAEYyJwAAAAAAAAAAAMBI5gQAAAAAAAAAAAAYyZwAAAAAAAAAAAAAI5kTAAAAAAAAAAAAYCRzAgAAAAAAAAAAAIxkTgAAAAAAAAAAAICRzAkAAAAAAAAAAAAwkjkBAAAAAAAAAAAARjInAAAAAAAAAAAAwEjmBAAAAAAAAAAAABjJnAAAAAAAAAAAAAAjmRMAAAAAAAAAAABgJHMCAAAAAAAAAAAAjGROAAAAAAAAAAAAgJHMCQAAAAAAAAAAADCSOQEAAAAAAAAAAABGMicAAAAAAAAAAADASOYEAAAAAAAAAAAAGMmcAAAAAAAAAAAAACOZEwAAAAAAAAAAAGAkcwIAAAAAAAAAAACMZE4AAAAAAAAAAACAkcwJAAAAAAAAAAAAMJI5AQAAAAAAAAAAAEYyJwAAAAAAAAAAAMBI5gQAAAAAAAAAAAAYyZwAAAAAAAAAAAAAI5kTAAAAAAAAAAAAYCRzAgAAAAAAAAAAAIxkTgAAAAAAAAAAAICRzAkAAAAAAAAAAAAwkjkBAAAAAAAAAAAARjInAAAAAAAAAAAAwEjmBAAAAAAAAAAAABjJnAAAAAAAAAAAAAAjmRMAAAAAAAAAAABgJHMCAAAAAAAAAAAAjGROAAAAAAAAAAAAgJHMCQAAAAAAAAAAADCSOQEAAAAAAAAAAABGMicAAAAAAAAAAADASOYEAAAAAAAAAAAAGMmcAAAAAAAAAAAAACOZEwAAAAAAAAAAAGAkcwIAAAAAAAAAAACMZE4AAAAAAAAAAACAkcwJAAAAAAAAAAAAMJI5AQAAAAAAAAAAAEYyJwAAAAAAAAAAAMBI5gQAAAAAAAAAAAAYyZwAAAAAAAAAAAAAI5kTAAAAAAAAAAAAYCRzAgAAAAAAAAAAAIxkTgAAAAAAAAAAAICRzAkAAAAAAAAAAAAwkjkBAAAAAAAAAAAARjInAAAAAAAAAAAAwEjmBAAAAAAAAAAAABjJnAAAAAAAAAAAAAAjmRMAAAAAAAAAAABgJHMCAAAAAAAAAAAAjGROAAAAAAAAAAAAgJHMCQAAAAAAAAAAADCSOQEAAAAAAAAAAABGMicAAAAAAAAAAADASOYEAAAAAAAAAAAAGMmcAAAAAAAAAAAAACOZEwAAAAAAAAAAAGAkcwIAAAAAAAAAAACMZE4AAAAAAAAAAACAkcwJAAAAAAAAAAAAMJI5AQAAAAAAAAAAAEYyJwAAAAAAAAAAAMBI5gQAAAAAAAAAAAAYyZwAAAAAAAAAAAAAI5kTAAAAAAAAAAAAYCRzAgAAAAAAAAAAAIxkTgAAAAAAAAAAAICRzAkAAAAAAAAAAAAwkjkBAAAAAAAAAAAARjInAAAAAAAAAAAAwEjmBAAAAAAAAAAAABjJnAAAAAAAAAAAAAAjmRMAAAAAAAAAAABgJHMCAAAAAAAAAAAAjGROAAAAAAAAAAAAgJHMCQAAAAAAAAAAADCSOQEAAAAAAAAAAABGMicAAAAAAAAAAADASOYEAAAAAAAAAAAAGMmcAAAAAAAAAAAAACOZEwAAAAAAAAAAAGAkcwIAAAAAAAAAAACMZE4AAAAAAAAAAACAkcwJAAAAAAAAAAAAMJI5AQAAAAAAAAAAAEYyJwAAAAAAAAAAAMBI5gQAAAAAAAAAAAAYyZwAAAAAAAAAAAAAI5kTAAAAAAAAAAAAYCRzAgAAAAAAAAAAAIxkTgAAAAAAAAAAAICRzAkAAAAAAAAAAAAwkjkBAAAAAAAAAAAARjInAAAAAAAAAAAAwEjmBAAAAAAAAAAAABjJnAAAAAAAAAAAAAAjmRMAAAAAAAAAAABgJHMCAAAAAAAAAAAAjGROAAAAAAAAAAAAgJHMCQAAAAAAAAAAADCSOQEAAAAAAAAAAABGMicAAAAAAAAAAADASOYEAAAAAAAAAAAAGMmcAAAAAAAAAAAAACOZEwAAAAAAAAAAAGAkcwIAAAAAAAAAAACMZE4AAAAAAAAAAACAkcwJAAAAAAAAAAAAMJI5AQAAAAAAAAAAAEYyJwAAAAAAAAAAAMBI5gQAAAAAAAAAAAAYyZwAAAAAAAAAAAAAI5kTAAAAAAAAAAAAYCRzAgAAAAAAAAAAAIxkTgAAAAAAAAAAAICRzAkAAAAAAAAAAAAwkjkBAAAAAAAAAAAARjInAAAAAAAAAAAAwEjmBAAAAAAAAAAAABjJnAAAAAAAAAAAAAAjmRMAAAAAAAAAAABgJHMCAAAAAAAAAAAAjGROAAAAAAAAAAAAgJHMCQAAAAAAAAAAADCSOQEAAAAAAAAAAABGMicAAAAAAAAAAADASOYEAAAAAAAAAAAAGMmcAAAAAAAAAAAAACOZEwAAAAAAAAAAAGAkcwIAAAAAAAAAAACMZE4AAAAAAAAAAACAkcwJAAAAAAAAAAAAMJI5AQAAAAAAAAAAAEYyJwAAAAAAAAAAAMBI5gQAAAAAAAAAAAAYyZwAAAAAAAAAAAAAI5kTAAAAAAAAAAAAYCRzAgAAAAAAAAAAAIxkTgAAAAAAAAAAAICRzAkAAAAAAAAAAAAwkjkBAAAAAAAAAAAARjInAAAAAAAAAAAAwEjmBAAAAAAAAAAAABjJnAAAAAAAAAAAAAAjmRMAAAAAAAAAAABgJHMCAAAAAAAAAAAAjGROAAAAAAAAAAAAgJHMCQAAAAAAAAAAADCSOQEAAAAAAAAAAABGMicAAAAAAAAAAADASOYEAAAAAAAAAAAAGMmcAAAAAAAAAAAAACOZEwAAAAAAAAAAAGAkcwIAAAAAAAAAAACMZE4AAAAAAAAAAACAkcwJAAAAAAAAAAAAMJI5AQAAAAAAAAAAAEYyJwAAAAAAAAAAAMBI5gQAAAAAAAAAAAAYyZwAAAAAAAAAAAAAI5kTAAAAAAAAAAAAYCRzAgAAAAAAAAAAAIxkTgAAAAAAAAAAAICRzAkAAAAAAAAAAAAwkjkBAAAAAAAAAAAARjInAAAAAAAAAAAAwEjmBAAAAAAAAAAAABjJnAAAAAAAAAAAAAAjmRMAAAAAAAAAAABgJHMCAAAAAAAAAAAAjGROAAAAAAAAAAAAgJHMCQAAAAAAAAAAADCSOQEAAAAAAAAAAABGMicAAAAAAAAAAADASOYEAAAAAAAAAAAAGMmcAAAAAAAAAAAAACOZEwAAAAAAAAAAAGAkcwIAAAAAAAAAAACMZE4AAAAAAAAAAACAkcwJAAAAAAAAAAAAMJI5AQAAAAAAAAAAAEYyJwAAAAAAAAAAAMBI5gQAAAAAAAAAAAAYyZwAAAAAAAAAAAAAI5kTAAAAAAAAAAAAYCRzAgAAAAAAAAAAAIxkTgAAAAAAAAAAAICRzAkAAAAAAAAAAAAwkjkBAAAAAAAAAAAARjInAAAAAAAAAAAAwEjmBAAAAAAAAAAAABjJnAAAAAAAAAAAAAAjmRMAAAAAAAAAAABgJHMCAAAAAAAAAAAAjGROAAAAAAAAAAAAgJHMCQAAAAAAAAAAADCSOQEAAAAAAAAAAABGMicAAAAAAAAAAADASOYEAAAAAAAAAAAAGMmcAAAAAAAAAAAAACOZEwAAAAAAAAAAAGAkcwIAAAAAAAAAAACMZE4AAAAAAAAAAACAkcwJAAAAAAAAAAAAMJI5AQAAAAAAAAAAAEYyJwAAAAAAAAAAAMBI5gQAAAAAAAAAAAAYyZwAAAAAAAAAAAAAI5kTAAAAAAAAAAAAYCRzAgAAAAAAAAAAAIxkTgAAAAAAAAAAAICRzAkAAAAAAAAAAAAwkjkBAAAAAAAAAAAARjInAAAAAAAAAAAAwEjmBAAAAAAAAAAAABjJnAAAAAAAAAAAAAAjmRMAAAAAAAAAAABgJHMCAAAAAAAAAAAAjGROAAAAAAAAAAAAgJHMCQAAAAAAAAAAADCSOQEAAAAAAAAAAABGMicAAAAAAAAAAADASOYEAAAAAAAAAAAAGMmcAAAAAAAAAAAAACOZEwAAAAAAAAAAAGAkcwIAAAAAAAAAAACMZE4AAAAAAAAAAACAkcwJAAAAAAAAAAAAMJI5AQAAAAAAAAAAAEYyJwAAAAAAAAAAAMBI5gQAAAAAAAAAAAAYyZwAAAAAAAAAAAAAI5kTAAAAAAAAAAAAYCRzAgAAAAAAAAAAAIxkTgAAAAAAAAAAAICRzAkAAAAAAAAAAAAwkjkBAAAAAAAAAAAARjInAAAAAAAAAAAAwEjmBAAAAAAAAAAAABjJnAAAAAAAAAAAAAAjmRMAAAAAAAAAAABgJHMCAAAAAAAAAAAAjGROAAAAAAAAAAAAgJHMCQAAAAAAAAAAADCSOQEAAAAAAAAAAABGMicAAAAAAAAAAADASOYEAAAAAAAAAAAAGMmcAAAAAAAAAAAAACOZEwAAAAAAAAAAAGAkcwIAAAAAAAAAAACMZE4AAAAAAAAAAACAkcwJAAAAAAAAAAAAMJI5AQAAAAAAAAAAAEYyJwAAAAAAAAAAAMBI5gQAAAAAAAAAAAAYyZwAAAAAAAAAAAAAI5kTAAAAAAAAAAAAYCRzAgAAAAAAAAAAAIxkTgAAAAAAAAAAAICRzAkAAAAAAAAAAAAwkjkBAAAAAAAAAAAARjInAAAAAAAAAAAAwEjmBAAAAAAAAAAAABjJnAAAAAAAAAAAAAAjmRMAAAAAAAAAAABgJHMCAAAAAAAAAAAAjGROAAAAAAAAAAAAgJHMCQAAAAAAAAAAADCSOQEAAAAAAAAAAABGMicAAAAAAAAAAADASOYEAAAAAAAAAAAAGMmcAAAAAAAAAAAAACOZEwAAAAAAAAAAAGAkcwIAAAAAAAAAAACMZE4AAAAAAAAAAACAkcwJAAAAAAAAAAAAMJI5AQAAAAAAAAAAAEYyJwAAAAAAAAAAAMBI5gQAAAAAAAAAAAAYyZwAAAAAAAAAAAAAI5kTAAAAAAAAAAAAYCRzAgAAAAAAAAAAAIxkTgAAAAAAAAAAAICRzAkAAAAAAAAAAAAwkjkBAAAAAAAAAAAARjInAAAAAAAAAAAAwEjmBAAAAAAAAAAAABjJnAAAAAAAAAAAAAAjmRMAAAAAAAAAAABgJHMCAAAAAAAAAAAAjGROAAAAAAAAAAAAgJHMCQAAAAAAAAAAADCSOQEAAAAAAAAAAABGMicAAAAAAAAAAADASOYEAAAAAAAAAAAAGMmcAAAAAAAAAAAAACOZEwAAAAAAAAAAAGAkcwIAAAAAAAAAAACMZE4AAAAAAAAAAACAkcwJAAAAAAAAAAAAMJI5AQAAAAAAAAAAAEYyJwAAAAAAAAAAAMBI5gQAAAAAAAAAAAAYyZwAAAAAAAAAAAAAI5kTAAAAAAAAAAAAYCRzAgAAAAAAAAAAAIxkTgAAAAAAAAAAAICRzAkAAAAAAAAAAAAwkjkBAAAAAAAAAAAARjInAAAAAAAAAAAAwEjmBAAAAAAAAAAAABjJnAAAAAAAAAAAAAAjmRMAAAAAAAAAAABgJHMCAAAAAAAAAAAAjGROAAAAAAAAAAAAgJHMCQAAAAAAAAAAADCSOQEAAAAAAAAAAABGMicAAAAAAAAAAADASOYEAAAAAAAAAAAAGMmcAAAAAAAAAAAAACOZEwAAAAAAAAAAAGAkcwIAAAAAAAAAAACMZE4AAAAAAAAAAACAkcwJAAAAAAAAAAAAMJI5AQAAAAAAAAAAAEYyJwAAAAAAAAAAAMBI5gQAAAAAAAAAAAAYyZwAAAAAAAAAAAAAI5kTAAAAAAAAAAAAYCRzAgAAAAAAAAAAAIxkTgAAAAAAAAAAAICRzAkAAAAAAAAAAAAwkjkBAAAAAAAAAAAARjInAAAAAAAAAAAAwEjmBAAAAAAAAAAAABjJnAAAAAAAAAAAAAAjmRMAAAAAAAAAAABgJHMCAAAAAAAAAAAAjGROAAAAAAAAAAAAgJHMCQAAAAAAAAAAADCSOQEAAAAAAAAAAABGMicAAAAAAAAAAADASOYEAAAAAAAAAAAAGMmcAAAAAAAAAAAAACOZEwAAAAAAAAAAAGAkcwIAAAAAAAAAAACMZE4AAAAAAAAAAACAkcwJAAAAAAAAAAAAMJI5AQAAAAAAAAAAAEYyJwAAAAAAAAAAAMBI5gQAAAAAAAAAAAAYyZwAAAAAAAAAAAAAI5kTAAAAAAAAAAAAYCRzAgAAAAAAAAAAAIxkTgAAAAAAAAAAAICRzAkAAAAAAAAAAAAwkjkBAAAAAAAAAAAARjInAAAAAAAAAAAAwEjmBAAAAAAAAAAAABjJnAAAAAAAAAAAAAAjmRMAAAAAAAAAoHbumAhiGAiCoIxE/GGJggj8O1Dm2DWBu6M9DlMHABAScwIAAAAAAAAAAACExJwAAAAAAAAAAAAAITEnAAAAAAAAAAAAQEjMCQAAAAAAAAAAABAScwIAAAAAAAAAAACExJwAAAAAAAAAAAAAITEnAAAAAAAAAAAAQEjMCQAAAAAAAAAAABAScwIAAAAAAAAAAACExJwAAAAAAAAAAAAAITEnAAAAAAAAAAAAQEjMCQAAAAAAAAAAABAScwIAAAAAAAAAAACExJwAAAAAAAAAAAAAITEnAAAAAAAAAAAAQEjMCQAAAAAAAAAAABAScwIAAAAAAAAAAACExJwAAAAAAAAAAAAAITEnAAAAAAAAAAAAQEjMCQAAAAAAAAAAABAScwIAAAAAAAAAAACExJwAAAAAAAAAAAAAITEnAAAAAAAAAAAAQEjMCQAAAAAAAAAAABAScwIAAAAAAAAAAACExJwAAAAAAAAAAAAAITEnAAAAAAAAAAAAQEjMCQAAAAAAAAAAABAScwIAAAAAAAAAAACExJwAAAAAAAAAAAAAITEnAAAAAAAAAAAAQEjMCQAAAAAAAAAAABAScwIAAAAAAAAAAACExJwAAAAAAAAAAAAAITEnAAAAAAAAAAAAQEjMCQAAAAAAAAAAABAScwIAAAAAAAAAAACExJwAAAAAAAAAAAAAITEnAAAAAAAAAAAAQEjMCQAAAAAAAAAAABAScwIAAAAAAAAAAACExJwAAAAAAAAAAAAAITEnAAAAAAAAAAAAQEjMCQAAAAAAAAAAABAScwIAAAAAAAAAAACExJwAAAAAAAAAAAAAITEnAAAAAAAAAAAAQEjMCQAAAAAAAAAAABAScwIAAAAAAAAAAACExJwAAAAAAAAAAAAAoet3OxuAj1hrjTnnuQAAAAAAAAAAgLftvc968pkTAAAAAAAAAAAAICTmBAAAAAAAAAAAAAiJOQEAAAAAAAAAAABCYk4AAAAAAAAAAACAkJgTAAAAAAAAAAAAICTmBAAAAAAAAAAAAAiJOQEAAAAAAAAAAABCYk4AAAAAAAAAAACAkJgTAAAAAAAAAAAAICTmBAAAAAAAAAAAAAiJOQEAAAAAAAAAAABCYk4AAAAAAAAAAACAkJgTAAAAAAAAAAAAICTmBAAAAAAAAAAAAAiJOQEAAAAAAAAAAABCYk4AAAAAAAAAAACAkJgTAAAAAAAAAAAAICTmBAAAAAAAAAAAAAiJOQEAAAAAAAAAAABCYk4AAAAAAAAAAACAkJgTAAAAAAAAAAAAICTmBAAAAAAAAAAAAAiJOQEAAAAAAAAAAABCYk4AAAAAAAAAAACAkJgTAAAAAAAAAAAAICTmBAAAAAAAAAAAAAiJOQEAAAAAAAAAAABCYk4AAAAAAAAAAACAkJgTAAAAAAAAAAAAICTmBAAAAAAAAAAAAAiJOQEAAAAAAAAAAABCYk4AAAAAAAAAAACAkJgTAAAAAAAAAAAAICTmBAAAAAAAAAAAAAiJOQEAAAAAAAAAAABCYk4AAAAAAAAAAACAkJgTAAAAAAAAAAAAICTmBAAAAAAAAAAAAAiJOQEAAAAAAAAAAABCYk4AAAAAAAAAAACAkJgTAAAAAAAAAAAAICTmBAAAAAAAAAAAAAiJOQEAAAAAAAAAAABCYk4AAAAAAAAAAACAkJgTAAAAAAAAAAAAICTmBAAAAAAAAAAAAAiJOQEAAAAAAAAAAABCYk4AAAAAAAAAAACAkJgTAAAAAAAAAAAAICTmBAAAAAAAAAAAAAiJOQEAAAAAAAAAAABCYk4AAAAAAAAAAACAkJgTAAAAAAAAAAAAICTmBAAAAAAAAAAAAAiJOQEAAAAAAAAAAABCYk4AAAAAAAAAAACAkJgTAAAAAAAAAAAAICTmBAAAAAAAAAAAAAiJOQEAAAAAAAAAAABCYk4AAAAAAAAAAACAkJgTAAAAAAAAAAAAICTmBAAAAAAAAAAAAAiJOQEAAAAAAAAAAABCYk4AAAAAAAAAAACAkJgTAAAAAAAAAAAAICTmBAAAAAAAAAAAAAiJOQEAAAAAAAAAAABCYk4AAAAAAAAAAACAkJgTAAAAAAAAAAAAICTmBAAAAAAAAAAAAAiJOQEAAAAAAAAAAABCYk4AAAAAAAAAAACAkJgTAAAAAAAAAAAAICTmBAAAAAAAAAAAAAiJOQEAAAAAAAAAAABCYk4AAAAAAAAAAACAkJgTAAAAAAAAAAAAICTmBAAAAAAAAAAAAAiJOQEAAAAAAAAAAABCYk4AAAAAAAAAAACAkJgTAAAAAAAAAAAAICTmBAAAAAAAAAAAAAiJOQEAAAAAAAAAAABCYk4AAAAAAAAAAACAkJgTAAAAAAAAAAAAICTmBAAAAAAAAAAAAAiJOQEAAAAAAAAAAABCYk4AAAAAAAAAAACAkJgTAAAAAAAAAAAAICTmBAAAAAAAAAAAAAiJOQEAAAAAAAAAAABCYk4AAAAAAAAAAACAkJgTAAAAAAAAAAAAICTmBAAAAAAAAAAAAAiJOQEAAAAAAAAAAABCYk4AAAAAAAAAAACAkJgTAAAAAAAAAAAAICTmBAAAAAAAAAAAAAiJOQEAAAAAAAAAAABCYk4AAAAAAAAAAACAkJgTAAAAAAAAAAAAICTmBAAAAAAAAAAAAAiJOQEAAAAAAAAAAABCYk4AAAAAAAAAAACAkJgTAAAAAAAAAAAAICTmBAAAAAAAAAAAAAiJOQEAAAAAAAAAAAAyY/wBecAKdOYLG1gAAAAASUVORK5CYII=;" vertex="1" parent="1">
                    <mxGeometry x="400" y="83.71" width="96.31" height="71.29" as="geometry"/>
                </mxCell>
                <mxCell id="8" style="edgeStyle=none;sketch=1;hachureGap=4;jiggle=2;curveFitting=1;html=1;entryX=0;entryY=0;entryDx=0;entryDy=0;fontFamily=Architects Daughter;fontSource=https%3A%2F%2Ffonts.googleapis.com%2Fcss%3Ffamily%3DArchitects%2BDaughter;fontSize=16;fillColor=#a20025;strokeColor=#6F0000;" edge="1" parent="1" source="5" target="7">
                    <mxGeometry relative="1" as="geometry"/>
                </mxCell>
                <mxCell id="5" value="" style="rounded=1;whiteSpace=wrap;html=1;sketch=1;hachureGap=4;jiggle=2;curveFitting=1;fontFamily=Architects Daughter;fontSource=https%3A%2F%2Ffonts.googleapis.com%2Fcss%3Ffamily%3DArchitects%2BDaughter;fontSize=20;fillColor=none;fontColor=#ffffff;strokeColor=#6F0000;" vertex="1" parent="1">
                    <mxGeometry x="416.31" y="89.36" width="83.69" height="64.99" as="geometry"/>
                </mxCell>
                <mxCell id="6" value="上导航栏，左抽屉" style="text;html=1;strokeColor=none;fillColor=none;align=center;verticalAlign=middle;whiteSpace=wrap;rounded=0;sketch=1;hachureGap=4;jiggle=2;curveFitting=1;fontFamily=Architects Daughter;fontSource=https%3A%2F%2Ffonts.googleapis.com%2Fcss%3Ffamily%3DArchitects%2BDaughter;fontSize=20;" vertex="1" parent="1">
                    <mxGeometry x="630" y="95" width="170" height="30" as="geometry"/>
                </mxCell>
                <mxCell id="10" style="edgeStyle=none;sketch=1;hachureGap=4;jiggle=2;curveFitting=1;html=1;entryX=1;entryY=0;entryDx=0;entryDy=0;fontFamily=Architects Daughter;fontSource=https%3A%2F%2Ffonts.googleapis.com%2Fcss%3Ffamily%3DArchitects%2BDaughter;fontSize=16;" edge="1" parent="1" source="7" target="9">
                    <mxGeometry relative="1" as="geometry"/>
                </mxCell>
                <mxCell id="12" value="&lt;font style=&quot;font-size: 10px;&quot;&gt;/, /home&lt;/font&gt;" style="edgeLabel;html=1;align=center;verticalAlign=middle;resizable=0;points=[];fontSize=20;fontFamily=Architects Daughter;" vertex="1" connectable="0" parent="10">
                    <mxGeometry x="-0.1841" relative="1" as="geometry">
                        <mxPoint x="-2" y="-3" as="offset"/>
                    </mxGeometry>
                </mxCell>
                <mxCell id="16" style="edgeStyle=none;sketch=1;hachureGap=4;jiggle=2;curveFitting=1;html=1;entryX=0.5;entryY=0;entryDx=0;entryDy=0;fontFamily=Architects Daughter;fontSource=https%3A%2F%2Ffonts.googleapis.com%2Fcss%3Ffamily%3DArchitects%2BDaughter;fontSize=10;" edge="1" parent="1" source="7" target="15">
                    <mxGeometry relative="1" as="geometry"/>
                </mxCell>
                <mxCell id="17" value="/dev" style="edgeLabel;html=1;align=center;verticalAlign=middle;resizable=0;points=[];fontSize=10;fontFamily=Architects Daughter;" vertex="1" connectable="0" parent="16">
                    <mxGeometry x="-0.2212" y="-2" relative="1" as="geometry">
                        <mxPoint as="offset"/>
                    </mxGeometry>
                </mxCell>
                <mxCell id="20" style="edgeStyle=none;sketch=1;hachureGap=4;jiggle=2;curveFitting=1;html=1;entryX=0;entryY=0;entryDx=0;entryDy=0;fontFamily=Architects Daughter;fontSource=https%3A%2F%2Ffonts.googleapis.com%2Fcss%3Ffamily%3DArchitects%2BDaughter;fontSize=10;" edge="1" parent="1" source="7" target="18">
                    <mxGeometry relative="1" as="geometry"/>
                </mxCell>
                <mxCell id="21" value="/plan" style="edgeLabel;html=1;align=center;verticalAlign=middle;resizable=0;points=[];fontSize=10;fontFamily=Architects Daughter;" vertex="1" connectable="0" parent="20">
                    <mxGeometry x="-0.202" relative="1" as="geometry">
                        <mxPoint as="offset"/>
                    </mxGeometry>
                </mxCell>
                <mxCell id="7" value="RouterView" style="rounded=0;whiteSpace=wrap;html=1;sketch=1;hachureGap=4;jiggle=2;curveFitting=1;fontFamily=Architects Daughter;fontSource=https%3A%2F%2Ffonts.googleapis.com%2Fcss%3Ffamily%3DArchitects%2BDaughter;fontSize=20;fillColor=none;" vertex="1" parent="1">
                    <mxGeometry x="510" y="174.35" width="120" height="60" as="geometry"/>
                </mxCell>
                <mxCell id="9" value="Home.vue" style="rounded=1;whiteSpace=wrap;html=1;sketch=1;hachureGap=4;jiggle=2;curveFitting=1;fontFamily=Architects Daughter;fontSource=https%3A%2F%2Ffonts.googleapis.com%2Fcss%3Ffamily%3DArchitects%2BDaughter;fontSize=20;fillColor=none;" vertex="1" parent="1">
                    <mxGeometry x="310" y="314.35" width="120" height="60" as="geometry"/>
                </mxCell>
                <mxCell id="13" value="" style="shape=image;verticalLabelPosition=bottom;labelBackgroundColor=default;verticalAlign=top;aspect=fixed;imageAspect=0;image=data:image/png,iVBORw0KGgoAAAANSUhEUgAAB14AAAFaCAYAAAC+D/9PAAAAAXNSR0IArs4c6QAAAARnQU1BAACxjwv8YQUAAAAJcEhZcwAAFiUAABYlAUlSJPAAADUwSURBVHhe7d153KVz3Qfw30QYY5c1ayViWka2FlFJJNqeStFT05NKPa3ad5XK055HWhQqESklKiV6KkvZl5IlawjNYDDE8PhcrsO9nHPu5Xff08x4v1+v85pzXeec61zX73ed+edzf7+/KffepwAAAAAAAAAwbg9r/wUAAAAAAABgnASvAAAAAAAAAJUErwAAAAAAAACVBK8AAAAAAAAAlQSvAAAAAAAAAJUErwAAAAAAAACVBK8AAAAAAAAAlQSvAAAAAAAAAJUErwAAAAAAAACVBK8AAAAAAAAAlQSvAAAAAAAAAJUErwAAAAAAAACVBK8AAAAAAAAAlQSvAAAAAAAAAJWm3Huf9jkT7KCDDmqfAQAAAAAAwEPXzJkz22eLLhWvAAAAAAAAAJUErwAAAAAAAACVBK8AAAAAAAAAlQSvAAAAAAAAAJUErwAAAAAAAACVBK8AAAAAAAAAlQSvAAAAAAAAAJUErwAAAAAAAACVBK8AAAAAAAAAlQSvAAAAAAAAAJUErwAAAAAAAACVBK8AAAAAAAAAlQSvAAAAAAAAAJUErwAAAAAAAACVBK8AAAAAAAAAlQSvAAAAAAAAAJUErwAAAAAAAACVptx7n/Y5E+yggw5qn91v9uzZZdasWe3WcKuvvnqZNm1auzU2t912W7nuuuvareFWWmmlsuKKK7ZbLMxGmutll122rLrqqu1Wd9dff32ZM2dOuzXcSPfiPffc05zD3Llz2z2DLbbYYmWNNdYoSy65ZLtnuDvvvLNce+21Zd68ee2ewaZOndqcx8Me5u9DAAAAAABgYTdz5sz22aJL8DqJhgavZ511Vjn88MPbreH23HPPst5667VbY3P55ZeXAw44oN0abtdddy0zZsxot1iYjTTX22+/fXn2s5/dbnV3wgknlOOPP77dGm6ke/Guu+4qxxxzTDnttNPaPYMldN1tt93KKqus0u4Z7oYbbiiHHnpoE752s+WWW5add965PPzhD2/3AAAAAAAAC6uHQvCqlAwWMqkAXWKJJdqt4UZTNd2vinTllVfuW6kaU6ZM6XuMVKuOdIx8vt8xll566aZyFgAAAAAAYGEgeIWFTELNhKO9jBR4xgorrNA+Gy6h7uKLL95udZfX09K4l7w+0jFyHf1C4lS69gtmAQAAAAAAFiRSDQAAAAAAAIBKglcAAAAAAACASoJXWMTUtucdae3V0cjnsw5sDW2GAQAAAACAhYlkAxYyWcM166P2svzyy7fPeltmmWXaZ8Nl3dV+x+/otz5rzmGkNV4XW2yxvufRbx1aAAAAAACABY3gFRYyCTRHCjVH8vCHP7x9Nn4JgGukonUizgMAAAAAAGBBIHgFAAAAAAAAqCR4ZVTmzZtXZs2aVS655JJyyimnlJNOOql5nHXWWeXyyy8vt912W7n33nvbd0++e+65p9xwww3l/PPPb87jd7/7XXNuc+bMGdV55Hquv/76Bz7/29/+tlx44YXNMXPsiXLXXXeVa6655oHvGThmt99++3wdMwAAAAAAACbPlHslP5PmoIMOap/dL4Hb4Ycf3m4Nt+eee5b11luv3RqbBHkHHHBAuzXcrrvuWmbMmNFujU5Cw7/97W/ltNNOKxdffHH517/+1b7SXdbk3GKLLcqmm27aPJ8yZUr7Sn8JOw899NBy7bXXtnsGGzguOYczzjijnHrqqeW6665r9g21ySablO22266sueaa7Z4HJew8/fTTyx/+8Idy0003tXsHW3311cszn/nMMn369HG19M1P6sorr2zOMYFrv3HLdW211VbNOS+xxBLt3v5yDYcddli56KKL2j0PyrnvtttuZdVVV233dNfvftl8883LC17wghHbAPe7nzP+efS7B3J/HXPMMc391c0b3/jGsv7667dbAAAAAADAwmzmzJnts0WXileGSXCYoPVrX/ta+fa3v10uuOCCEUPXSJB5/PHHly984QvlF7/4RVMFO5H+/ve/lwMPPLAcffTRPUPXyPkecsghTejZ+buC/HvFFVeUb33rW+XYY4/tGbpGjp1g87jjjhvVdQ+U4x5xxBHlq1/9ajnzzDNH/HwC0ISXua6rr756VBWwCUSXX375dmuwBJ2jCbyXXnrpJqTtJmuvjkbC9V5yjJHOI6H2sssu224NN9rgHgAAAAAAYEEgeGWQBIW//OUvHwgCxyPHSEvdhJ8JSydCKm+/853vNOHpaCQATTVl5/svu+yy8v3vf39M15Sq2LRVHm3r4ZzbwQcf3ASuY5XPfve7321C49GEr6MNR3sZbUDbz0R8vvY6AAAAAAAAFhRSDx6QwDRVnieeeGK7p07CxCOPPHLUYWkvWYs159WvSrWbvP/kk08uV1111bg+H2lL/I9//KPd6i3Bbq61V7vk0eiExTkWAAAAAAAACxfB6wLknHPOaSpFx/PIZ2ukqjMhZSo8J1KCyFTQ3nzzze2esUv74oSn43Heeec1la7j/XxC30suuaRvFers2bPLz3/+82at2l7WXnvt8qxnPatsv/325bGPfWzP9VwTvv7+978fd5vmVJDWVpGOpk3wSGrPIeOjGhYAAAAAAFiYLPax+7TPmWBnn312++x+WTs06472knAwId94HiMFi9OnTy9rrLFGuzXcpZdeOuKaplkTdOutty7Pfe5zy4477li22mqr8qhHPaoJJRNQ9pJgMut55r3dAr3bb7+9CUhvvfXWds9gnXPK9+e7d9lll7LNNtuU9dZbr9xxxx3ln//8Z/N6N/PmzStz585tt0p50pOe1Hx+p512Kk984hPLcsst14TDd999d/uO4ZZccsmy4YYbNtcwVD6X4Pvcc89t9wy2yiqrlJe//OXNeD3mMY9pxmDTTTdtziPnfeONN7bvfFAC3HzukY98ZLtnsIx31uDt1jY5czxjxoxmHdh+Mm65F+fMmdPuedDGG2/cnOtIbrnllibwzxgPtdlmm/W93zpSDZ37d6hVV121Gadp06a1ewAAAAAAgIVZ8otFnZIymhDujDPO6BrCdTzlKU8pb3jDG8q2225b1llnnSYQW2mllZpAd7fddiuvfe1ryworrNC+e7izzjqrXHPNNe3W2CUMzHdsscUWzfcuv/zyzXfvvvvuZfPNN2/f1d8OO+xQXvrSl5ZHP/rRzfkn2Hz2s5/dHKPfuScc7TU2CW1zbd3kmC9+8YvLRhttNCxwzjUk/O0VTv71r39t5qWbBMDLLrtsuzU+U6dOrQ41c4yVV1653RqffuMOAAAAAACwMBG8MmIlbsLO5z3veWXppZdu9wyWUDHtcxNs9muhmzCxX8veXhLOJSBN2DpUqlG33HLLEYPIVE8mPB5atZpzTxVqql97SbjarfVv2jP/5S9/6RnKpiI4Vbm9pKr18Y9/fLs12OWXX963khcAAAAAAIAFi+D1IS5BaNoM92oxnEAzwWuvQLUjAWYqOzfYYIN2z3BXXnllzyrOftLmd7XVVmu3hkuA2S/gjLT2XWqppdqtwbKWaL/zjm6BcVojX3bZZe3WYGmVmyrdfuuUZsx6VbwmzO3WhhgAAAAAAIAFk+D1IS6Ba7+AL4FkQsTRSOvZVL72kqrXfu2Me1lzzTX7rlma17pVw3asu+66I15DPp81ZHvJuQ+VitS//e1v7dZga6211qja6PaqIo7xBK+5jpHWdx3JRLT/rT1G2iD3GxsAAAAAAIAFjeD1Ie7OO+/sGip2JLBMO9/R6leZmpbGt99+e7s1ev2OGYsttljfkG655ZZrQuF+Un2ax1jMmjWrfTZcAuaTTz65nHTSSX0f55xzTvuJ4TJW8+bNa7cG61WB3K/CdqC8r9e8jvYYadvc6zxGO5b9zmGs8wEAAAAAAPDvJHhdgOy5555l3333Hdcjnx2PBK9z585tt4Yba+Vi2vmuvPLK7dZws2fPbp+NXm0Al1A24exE6xdYX3zxxeUXv/hF+fnPf973kXC2l7vuuqtZR7abZZZZpn02PiOF1aOR0HQsoXw3qloBAAAAAIBFheD1IS6thrNWaS9jDV77VUEuSrLma69QFAAAAAAAgIcewetDXFrZpuq1F+1eu7v77rvHtV7tZMv6rqNtFdxLbRXrsssuW73ObM6h9joAAAAAAADmJ8nGQ1zWPp3I1sAjVdDWtshdUCRYXH755dut+S9VxRtssMGwx0orrTSqtsoJ1KdNm9b1GKO9rhwj7x36+fXXX3/ENXU7Mo5DP5/HKqus0lRPAwAAAAAALCym3JueqUyKgw46qH12v7POOqscfvjh7dZwWad1vfXWa7fG5vLLLy8HHHBAuzXcrrvuWmbMmNFuPeif//xnOfTQQ8vf//73ds9gz3/+88vWW2/dbo0sa5seeOCB7dZgCQv32GOPss4667R77nfDDTc053Dttde2ewYbzbiccMIJ5fjjj2+3Bttyyy3Lzjvv3LcKc6Rz6DZ+/b5zq622Ktttt13V2rKp+Ezlp6pjAAAAAABgYTdz5sz22aJLxetD3NJLL920hu0lgeRdd93Vbo3suuuua58Nt8Yaa/T9roVNqkt7SeVvguaM73gfSy21lNAVAAAAAABgISF4fYhLRWUC0V6uvPLKctNNN7Vb/c2dO7dcdtll7dZwq6+++iLTajjSojnhajdXX331qMcNAAAAAACAhZ/g9SEu7WyHtv4dKK13zz333HLPPfe0e7pLx+oLL7ywaTXcy9prr9233e/CZoUVVihrrbVWuzXY9ddfX84///wRx63GvHnzyjXXXFMuvfTSJvDut7ZuLwnL06Y6x7jqqqvGVN0cmfc5c+Y0359j5H4Z6zXn/amszufzSGCtAzoAAAAAALCwWexj92mfM8HOPvvs9tn90oY3YVwvm2++eRPmjUfCqtNPP73dGm769Ok9K1vT0jYB3qxZs9o9gyWQy3vWXHPNJqgdKiFZArOf/vSn5bbbbmv3DrbuuuuWbbbZpkydOrXd86Dbb7+9nHfeeT2Dw9GMSyf46ybh6IYbbth3vdWRzqHb+CVEnj17ds8q34zbcsst13xuNC2DM45Zazehbb82xpFK5O9973vlV7/6VTnjjDOauT/11FObCuZe8zRQws68/5BDDimnnHJKc4w//vGP5S9/+UtTmbz88suPeM5pp5x1bg877LBy2mmnNcfIMXNuGfNp06a17+ztxhtvLEcccURz7+Tzefz+978vd999d/MHAYsvvnj7TgAAAAAAYGE2Y8aM9tmiS8Urzbqrm222Wbs1XAK2BGPf/OY3m2AsAW2CyoSsqZbMawnw+rXWzfHHGyovqBJuPv7xjy+rrrpqu2ewjNsPf/jDcuSRRzaVoKlQHSph6y233FLOOuuscvDBB5f99tuvqSDtJ2FlxjztjAfqzNOZZ545YsVoQubjjjuuqXgdKOd51FFH9V2rNxLcJrD9zW9+03zvQKl6Pvroo8vNN9/c7uku90/OIZXSQ5100knlxBNPnNSKYQAAAAAAgIkkeKWxySablKc85SntVncJWVOduO+++5a99967fPzjHy8HHHBAOfnkk4eFbwPluE960pNGVfW5sFlttdX6htaRIPRLX/pS+cAHPlD233//cuCBBzaPPH/f+95X9tlnn3L44Yd3DSC7SVVqqml7ueCCC8odd9zRbg2X1xK89pqzVNyOdC4JVfM9vaT6OPdLP1dccUXfY1x00UVNRTEAAAAAAMDCQPBKY4kllijbbbdd2Xjjjds9EyPHe+Yzn9kcf1GUqtcEyyOF1h1pw5uK0DzyfDz6hdyRULTfeq+pIr3zzjvbre4SePZb7zWtgEc6j1Tm9jPSOaTt8kjVvwAAAAAAAAsKwSsPWGaZZcoLX/jCpn3uREgV7S677NKsF7ooS6j8nOc8p2y66abtnsk1Uoid8c5c9pKwOGvB9rPiiis2a9j2krVXRzqPRzziEe2z7kY6h0c+8pFNG2wAAAAAAICFgeCVQRLavexlLyvPf/7zy9SpU9u9Y5PP5fO77rprE+A9FEybNq286EUvqhq3yGf7BZ6x4YYbljXWWKPdGm6DDTYoSy21VLs1XALPfpXNWYs3x+gn90nOo5d11123rLPOOu1Wd2uvvXbZaKON2q3hHv3oRy/yoT0AAAAAALDoELwyTCoZt95667LXXnuVHXbYoayyyirtK/3lfXl/PpfPL6rthXvpjNvb3/72sv322zcB5mglhHzBC15Q3vWud5Xp06e3e7vLOO+8885d5yVtnbfYYou+6+nmtSc84Qllxx13HDZHOeccO9Wm/aRq9ulPf3p56lOf2u55UELhnXbaacTQPdWsz3ve85qQdqhUD2+77bZNZS0AAAAAAMDCYMq992mfM8EOOuig9tnCLbdI1tq8/vrry7XXXlvmzZvXvnJ/9eSqq67ahIAJ0voFfg81WUs1663+4x//aB4Df2oZp9VWW60st9xyTUve8YTUWYM166BeddVVTYXreuut1xxrLHOQtWCz1mzmNvOYKtV+bYqHyjXlGi+77LJyyy23NKFrjtGv4naojFPuq86at/l8jpNwFwAAAAAAWDTMnDmzfbboErxOokUleAUAAAAAAIAaD4XgVUkZAAAAAAAAQCXBKwAAAAAAAEAlwSsAAAAAAABAJcErAAAAAAAAQCXBKwAAAAAAAEAlwSsAAAAAAABAJcErAAAAAAAAQCXBKwAAAAAAAEAlwSsAAAAAAABAJcErAAAAAAAAQCXBKwAAAAAAAEAlwSsAAAAAAABAJcErAAAAAAAAQCXBKwAAAAAAAEAlwSsAAAAAAABApSn33qd9DgAAAAAAAMA4qHgFAAAAAAAAqCR4BQAAAAAAAKgkeAUAAAAAAACoJHgFAAAAAAAAqCR4BQAAAAAAAKgkeAUAAAAAAACoNOXe+7TPeQi6/fbby5133lmWXHLJsvTSS7d7+XczL2NnzCaeMQUAAAAAgNFT8TqJ5s2bV26++eYye/bsUT8SdIwk79lnn33KzjvvXM4888x27/h861vfKk9+8pObf0drNNeV1/O+h5Ibb7yxvOMd7yi77757ueKKK9q94zOeeVmY3XHHHeWSSy4pp556avM444wzyqxZs8o999zTvmNkD7Uxmx+MKQAAAAAAjJ7gdRIlfHvlK1/ZBBejfYwm4LjuuuvKySefXC644ILyhz/8od07/4zmuvJ6bfi4sMn1/uQnP2nm5uyzz2730su//vWv8tvf/ra87nWvKxtvvHHZfvvtm/smj5e+9KVls802K9tss03Zb7/9yjXXXNN+CgAAAAAAYMEkeF0Irb766mWHHXYoO+64Y3nOc57T7qXGXXfdVU4//fTygx/8oGmtOh7rr79+edWrXtWEhltuuWW7l26uvPLK8ra3va3MnDmzzJkzp3z2s59tQthUuuaRuTjyyCPLC1/4wnLEEUeU5z//+eWoo456yFVRAwAAAAAACw/B6yR61KMeVY499tjyt7/97YFHQqVnPOMZzesJlga+lsdb3vKW5rV+stZi3rf//vuXjTbaqN07/z3ucY8rv/71r4ddQx657lz/wuLcc88tL3vZy8p5551Xxrvs8UorrVT23nvvsu+++zbhON2df/755e1vf3u5+OKLmwrvww47rLzkJS8pa6+9dllxxRWbR8YyldN77bVXU0WcMPvd7353+cY3vtFUygIAAAAAACxoBK/AfJN1XD/ykY80z7/61a+WZz7zmeVhD+v/31BC2Pe85z3NI5WxP/rRj8YdjgMAAAAAAEwWwetCIO1Vb7755nLHHXe0e0YvLXRnz57dPHKMe+65p31l4ZKgLS1pF6TryHzkXMbT/nay52Xg8cdz34xW597M99x+++3t3u5yHt/73vfKDTfcUN773veWxz72se0rpfnsiSeeWL72ta+Vb3/72+Xqq69ujnnqqac2/y622GJl9913Ly9+8YvLd7/73XLZZZe1n+xvLOc3EXKN+a48cr+OJiAeeI7jvZ8GGs/c5/7rnMNoz3uyjec3MvAzeQ4AAAAAAPOT4HUBkza9O+20U/PI86x7+dznPrfMmDGjfPKTn3wg2HnNa17TtPJN6+Ju/vrXv5Z3vetdZdNNN21atuaRY+S4F154Yfuu3hK8/PKXvyxbb711efzjH19++tOfjiuMueqqq5qwLMc4+eST273DpWVxrietZW+77bZ27/2B0B/+8Iey6667lic+8YmDruOYY46pDqn222+/5nvTyja+//3vl4033rjZ15mDSLvb7PvQhz5UbrrppvK///u/ZfPNN2/O5Wc/+1nznqFz181kz8usWbPK5z73uWaN2c7xc54JOq+99tr2XaWcc845Zauttirbb7990/K3l4Sgue5Umg4c64SYeW3bbbdtzj/fM3369LLnnnuWP//5z+27BjvzzDObdVpf+cpXls0226zdW5rvf/WrX13+67/+qxx++OHloIMOKq94xSua69hjjz3K5Zdf3rxvmWWWae6lrA+bkLbf/Zh2xIceeuig88uYDB2HjvyOOvPbK6zs3Cv5d6Dco6ecckp53ete19w7nXHP/Zr7Ntfd7VwTLn/iE5944D7KZ/JvzjnnPtaWyqOd+4Eyp/kd5f7rnEPOO+N+6aWXtu8arma8RjLa38jA4+cccj8OvPY8zzjW/h8BAAAAAACjJXhdgF1wwQVln3326RniddMJ5hICpSXraqut1lQKJsh43vOeV/7xj38MCjZ7+eMf/9gEvQkZP/zhDzehx5QpU9pXRy/f/6QnPan5ztNOO61rCJKAqRPKJiyZNm1a8zzvTYXkG9/4xiace9GLXtS0m01wl+t429veVr75zW/O12AlIVvG9Qtf+MKoxrFjfsxLAsp3vOMdTQvf9dZbr7z5zW9uthMGZj3hbKfVb+T1hFnZPuuss5p9Q6XK8E9/+lMzH0972tOaqtNIwJfvznksueSS5fWvf31zHc961rOaa3zDG97QzPVAqT78zW9+U9ZYY42y3XbbPXCsVL9+5jOfaYLcnGMC1fyxwUc/+tFywgknlHXWWacsv/zyzXsj6wontE2Yeeutt7Z7B8t3JYT7/Oc/X7bYYovmnsm98/CHP7z5joT7f//739t318u4ZyxyTpnLjEXGPaFnxi/3ada1HShBYap7EzJvuOGGzdzkPHfZZZcH5jahYb9weaCxzH1Hfjf5/eT8EnY+9alPbT6T+zLb73vf+3qG6JNhvL+RW265pXzqU59qxjJ/QJFrzf85GcfcW8cdd1z7TgAAAAAAmFyC1wXU3Llzm+q/VP4l/Ej4+rGPfawJuvpJwNMJ5hJeJXT4+Mc/Xt70pjc1VZqpLF133XXbd3eXgGbfffdtjvGWt7ylvOQlL3kgKBsoIWTCr05rz4GPTlvXJZZYognaEt4lhLrxxhub/QMlUDn77LObsOQpT3lKu7c0YWwqLTfYYIPyne98pwnSEsLm+g4++OAmhEs4VRMO5foytgmnIqFuZ7yPPfbYpqJuoATACRB/8IMfNOOUqsCEnyOZ7HnJPOQ4v/vd75ogLZW7CRjzvkMOOaT893//dzPGRxxxRBN0J8zM+qqRkLRboJUwL6Hs05/+9LLJJps0+xLWJdT88Y9/3FRz/vCHP2wCulzH17/+9SYAS6iZdsAJbjsS1mZcU4m41lprNfsStKViN2Hy29/+9ua1hMhZ8zX3QSfsHXjvTZ06tTzykY8s119/fRO4dXPYYYc115Q57dwz+Te/p9xjaV+c90xUYJ/z3XHHHZs5zBxkLDLuCQIzRhmPvDb0+9Zcc83m+jtzlfP84he/2FTBRu6zBNMjGevcd+T4+++/fzOemdPMWT6T+zJVsPndJQidX8b7Gzn66KObsc05v//972+uPX+wkdA293WOM/BeBAAAAACAySJ4XUAl9Fp//fWb4HWppZZq9i2++OJ9q05TRZdAMEFPqg4TPCT4HGillVYqj3jEI9qt4fLZT3/6001Qk8qxtH/tFrpGquJe+MIXPtDac+DjW9/6Vvuu0oR2Ce8SeHVra5tKwXxf2ucmjIoEtwlSEpzkWtLGdqC02U3b2ZxvAt35JS1WU1WXasYEbpmPzEs/82Nezj333CYkS1vqtKHu3DOR5znnhI4JUjthXsLNzr60hB4ooWiCvAScCWg7VacJpI8//vjmc2krvMIKKzT7I+eTADLncPrppw86ZsL46667rqlgTXgaCdh+//vfN/dGKlMHyrHyvozLcsst1+69/1pSCZn7484772z3Dpb3vPOd7yyPfvSj2z33y5qyqejMHwEkmM35TIRcU+Yk5zrQ0ksv3VRqRkLzzh8jRP6AIkFr7uuBv+k8z7ykDXR+Kxn/kYxn7nMuv/rVr5rfV859m222GXQemde3vvWtg/4QYjLV/EZWXXXV5vcw8F7M2OePKFL9m/+nerVaBgAAAACAiSR4XYBlrceBIcpIrrnmmiZcecxjHtOEML0C015SjZoKs7R7TeVcQpx+x0iAlQAygenQx8CwLKFd3hcnnXRS0wq2IwFQ1nDNsZ7xjGc88H1ZxzPhXQKohEZDJSRKi9ZIGJjgZn5IqDxwfdLRmOx5SbVfxjAhWsZ+YGvejoRWCfITHHcCx9VXX71ZRzMh/9D1dxPQJZzstPbtSMidEDGBXCckHyjrsKZKOIHhwDVCc275noGfSaXzFVdcUTbaaKNB98tAuc4E3GOREHdopXJHwteE9hmHhHwToRPAD5V5SVV45Prvvvvu5nnk/d2uK4F3fh95LWPYK1zuGO/cd35fmd+MV7fzX2WVVbr+9iZDzW8kv8lU7Q6VgD6heO67jA8AAAAAAEw2wesCKpVanZaso5Xw4i9/+UtZe+21myqwsUjb1q985StNFVyqzfbYY48RQ9+EGqnCTDvToY9Xv/rV7bvul1Aooco555wzqIqvEwCl6jGvd1x99dVNYJKqyazxmOMNfaQta6SabaSAaqLkmgdW1o3GZM9LwuuMVRx11FFdxyrVlWnpG53qv6x5mnVZE3onlJszZ06zPy666KIm0Muau537MIFgQu74v//7v/La17522PdkX6c9ba67n04Yu+yyyw4L/jKfOc+sCTuwvXYC9gS2CRN7zUN+O7mmbhLwdtrVTmQVZFr4pqL7y1/+clN9mfbaadWbkLyXhKwZz/xeEqindXSqdPMHCEOD8F7GO/cJ8/O5hO8rr7xys2+ohJ9j+cOPGjW/kQTEI7VgBwAAAACA+UHwuoBKm9WhrTZH8s9//rP5d2hYNRpZJzHrdib0SLvYtOqcSAm7Eq4m4EvA0pGAKQHQwHa20alQS1ViAsC0vR36SIVcDKwsnGyZl7FWrE72vKSSsjNeGZNuY5Ux7FR4Zrw6Om2gMy+pPo0ErKlMTniZALFzH+ZzncriCy64oOv35NEJZwdWeHZ0qzzsFponILzsssvarQdlrc4cP9XOCWzHKgHvWOdvJLl/E4intW2C14xj7ve08P3P//zP9l2DJTDNurMZ37333rsZt4ScCdcTwg78I4R+xjv3NffkZFjQzgcAAAAAAMZD8LoI6QRKc+fOHRSujUbWkk1QlGrUz372s+X8889vX5kYCe9SXRkJW1MhmBAtrWvTznToWpKda8kamVkHNMFgr0fCrm4tVhcUkz0vaUvb+Y7999+/6xgNfKSVa0fGLdXIOX5aC6cKM+1os+5uAtkEsx0D2+N+8IMf7HrsgY9UfnakOjVhaQLAzhh09qWtce6Hjrye4HdgBW5H1rg977zzmkrcVOyOVaeSNnpVeo5F7uHPfe5zTcCZ8DVVr7/+9a+bNY732muvsvPOO7fvfFDGOOuZfvWrX23G/ic/+UlT9X3ooYc2LaUT1nZr49xNzdzHeO7JyVDzGwEAAAAAgAWF4HURknUOU6WYSsFZs2a1e0cnIVaCo/e85z1NuPWRj3ykWctzImV9zac97WnN8dMuNsdPqJrgNesxDtS5llxHQpkVV1yx5yPhYbf1MhcUkz0vqZTsrHE5e/bsrmM08DG0fWzW302FZcK/tDZO6JrvytquA9deTSViKhIj15HXuh2/8xhYnZuK3ay7+uc//7n5jsixst5q2ignFEwgmcrltDFO+JuQMFWcaTsdCZ2//vWvlxe96EXNfdRLwtCB6wgPlMrKHDvtiB/xiEe0ex+U70r4N1SnxfFQqb797W9/26xFnDbLo2mTm+vPfR+Z24zBeO/f8c59p310Quhbb721eT5Ur2seaKzj1UvNbwQAAAAAABYUgtdFSMKLhJgJzdJeNEHWWCTgTLVd2p3mGO9///sfaBs7EbIW47bbbtsc+9xzz20CthjYzrajcy2pbsx755fJqLib7HlJIDp9+vTmeaqJEzyORacNdELOtBDOOSaIzVqjQ9defeITn9gEZFkzdCxrpC6zzDJl0003bcLdTtVugtnXv/71zX2x2267lV122aVsv/32Zb/99muudZtttmnWAJ45c2Z58Ytf3LyeStC3vvWtfVthJzhOuDpUxj0haVpdP+5xj3sgsIxcU8LYrDWa9U+HSlVuQuOhEhSn1W9C5FzjQPm+zNdQ+UzusV7hb675wgsvbLf6G+/cZ23XJz/5yU2FbrdzjLRQ7qwNO9R4x6uX2t8IAAAAAAAsCASvi5AEWC95yUua52k7mnatQ9c+TYVaZ73HbhJoJdh6znOe01Qh7rvvvl1DrPFIiJcwL6Hez372syYoGtrOtiPXktbECbUOOOCAJnwdGsZkncy0aR0YNiU8TAVhKkTz+mil4nCyKu7mx7w89alPbYK04447rhx88MHDrj1jl8DzlFNOafc8KKF3wu+M9RFHHNGEr5mXBLJDZa4SiOYc0iq321jlWo499th2636Z+2c/+9llgw02KN/73vceCOtyL6Qt7//8z/+UnXbaqakaPfDAA5v9eX+eJ5RNIPud73ynfOELX+gaVg6U8C73zE033dTuuf/6EzJ++9vfbuZ5hx12GLRGbCquc72pJv7FL34xqPVxxuWb3/xm14Cyc9/kDwQGrknb+b7MxVCd9sAJNhMSD7wXMqcZ17R+HirXc8ghh5SjjjrqgbV2Yzxzn+A1n4tUEQ9tYZ17Ma2te1W9j3e8ci5pL55w/a9//Wu7d2J+IwAAAAAA8O+22Mfu0z5nPkhg8stf/rJcccUV5WUve9mwtRzTLvTnP/958zzrm6Y96FC9jpFwa5111mme/+Y3vyk//elPm6rSBBYJQRJwffrTn25Cts5nUtGWgChrrGbdzEjIl+0EQ2kDmwq8bHeqDDvnmMrBhGFZY7XbIwFT55gdU6dObar5jjnmmKZiMtWMaXU7VK4lFXVpDXviiSc270/4mnNJ6HfYYYc1bXdzLmlJm+NG3puxSYVoKuhGK0FYjp9QKGFYKvayVmfGM2uRJiTKcRPqJjxefPHF208+qNfczY95SdvfnGeC57yWMCzViAnUUuWZdUi/+MUvNmuKbrTRRs3xBkrlZK4/15xQ9J3vfGdZf/3121cflFa1aVN7zjnnNOFYAtacT8YnwV4CtaxTmu8YOvdpCZ1zTXiYdruddVozdxtvvHHT2jjj25nLjFu+K/vzyBhmnnrpjNl//Md/NHPxla98pWl3m1A0gWsCzdxPae/78pe/fNAasbmu3K9ZqzVzk/VuE4KmJfBnPvOZpiIz92nGd+icXHrppc3787l8X4LrrNeae/QFL3hBc14JKRP25toy1gmsO99z8cUXPzCnn/rUp5r7NueW+Rv4+/7+979fPvGJTzTvy/d37qnxzH2uNSF4vjd/AJF78qKLLmq2jz766GYOM+bdrjnGO145rw9/+MPlRz/6URMQJ+BP8D9Rv5GBRvq/FgAAAAAAJpqK10VMgqBURib43HDDDZvQIhVkCV+OP/74JuhIddlIUlX47ne/uwmBEuYk9JiIStCcXyoZI1WN3ULXjgSXe++9d/nQhz7UBFE5/1xHqiN//OMfN2FdQrQEepF1PdOCN4HtE57whGbfaGVtzre85S3NOqQJIBNUJUxKIDQR5se8pBo2lZ6pFM44fOMb32jGKt+TIPnNb35zE751k+9OG+jI+qlZj7eXjG2qJNP+NxWIqWDN92TM0l521113bdZhHSpjmarWjHPm7wMf+EATrI0kVZJDqx/7WXvttZtQPmOUysvOGCecTHDZrVVx59ze9773Ne9LAJ/rSQVp1m9NED1wvduO3Htp/ZzPZizyfRmLBJj77LNPUx08VL7rFa94RTOPua8TMuYzRx55ZPOHCGm/3AmfB0oQnurahJorrbRSu/d+45n73Ev5u5vMY6pUO+eRytlXvepV5b3vfW/Xa46a8eqsE5zf3MAW4xP1GwEAAAAAgH+XKfcm1WCRlLBqzpw5TWVpwpEEIUMDp3+HVKHtueee5TWveU0T3Axd37WbhKppKZyKuVSu5TqGXkuqHBP4JJRKxV5CqrHK99x6663N84RfqeybaJM9L/lJ5xpSfRkJq7L+aL9q0XwmVaEJCz/4wQ82LX9HEzqnajFVpLmezjqnAytJu8n15x74/Oc/35xjgvhUCGfd1c46qTmfVComfDvhhBPKO97xjqad7ljkGKmsTSCakC9Bfr8x6Mg9kGtKa99UYY5mbjpjnjnN/Tfa70pVZoLRyDz1u98635Hj9jqnznvGMveRecxvK9W4I53HUGMdr7w/39fvvBbU/7sAAAAAAKAfwSvzVQKXVNmlJW+qJjvrTE6EtDB+05veVF73uteVV77yle1eRiNriu61115NYJcqw7ShnWwJytNCOi15B673OVBCt1RzphIylZ4AAAAAAAALKsEr81XWZUyINmPGjGYtyE6b4Inws5/9rHzyk58sBx54YJk+fXq7l9H4yU9+0lSVjqUKeaIMrNLM+rKRCscEraOp1gQAAAAAAFgQCF6Zb6677rry0Y9+tJx88snlU5/6VNl5553bVybGJZdc0rQn3WSTTeZrcLiwu+iii5qwNS1vv/SlL425pS8AAAAAAACCVyZZ1rDcd999m1ayaQWcdSB33333JuizZuO/T9r8fuADHyizZs0qf/7zn8ttt91W3vOe95Q99thDhSkAAAAAAMA4PKz9FybNXXfdVU499dQybdq08uEPf7gJ/ISu/35z584tf/rTn8paa61VvvzlLwtdAQAAAAAAKqh4ZdLlFkvl61JLLVWmTJnS7uXf7Z577il33nlnmTp1arsHAAAAAACA8RK8AgAAAAAAAFTSahgAAAAAAACgkuAVAAAAAAAAoJLgFQAAAAAAAKCS4BUAAAAAAACgkuAVAAAAAAAAoJLgFQAAAAAAAKCS4BUAAAAAAACgkuAVAAAAAAAAoJLgFQAAAAAAAKCS4BUAAAAAAACgkuAVAAAAAAAAoJLgFQAAAAAAAKCS4BUAAAAAAACgkuAVAAAAAAAAoJLgFQAAAAAAAKCS4BUAAAAAAACgkuAVAAAAAAAAoJLgFQAAAAAAAKCS4BUAAAAAAACgkuAVAAAAAAAAoJLgFQAAAAAAAKCS4BUAAAAAAACgkuAVAAAAAAAAoJLgFQAAAAAAAKCS4BUAAAAAAACgkuAVAAAAAAAAoJLgFQAAAAAAAKCS4BUAAAAAAACgkuAVAAAAAAAAoJLgFQAAAAAAAKCS4BUAAAAAAACgkuAVAAAAAAAAoJLgFQAAAAAAAKCS4BUAAAAAAACgkuAVAAAAAAAAoJLgFQAAAAAAAKCS4BUAAAAAAACgkuAVAAAAAAAAoJLgFQAAAAAAAKCS4BUAAAAAAACgkuAVAAAAAAAAoJLgFQAAAAAAAKCS4BUAAAAAAACgkuAVAAAAAAAAoJLgFQAAAAAAAKCS4BUAAAAAAACgkuAVAAAAAAAAoJLgFQAAAAAAAKCS4BUAAAAAAACgkuAVAAAAAAAAoJLgFQAAAAAAAKCS4BUAAAAAAACgkuAVAAAAAAAAoJLgFQAAAAAAAKCS4BUAAAAAAACgkuAVAAAAAAAAoJLgFQAAAAAAAKCS4BUAAAAAAACgkuAVAAAAAAAAoJLgFQAAAAAAAKCS4BUAAAAAAACgkuAVAAAAAAAAoJLgFQAAAAAAAKCS4BUAAAAAAACgkuAVAAAAAAAAoJLgFQAAAAAAAKCS4BUAAAAAAACgkuAVAAAAAAAAoJLgFQAAAAAAAKCS4BUAAAAAAACgkuAVAAAAAAAAoJLgFQAAAAAAAKCS4BUAAAAAAACgkuAVAAAAAAAAoJLgFQAAAAAAAKCS4BUAAAAAAACgkuAVAAAAAAAAoJLgFQAAAAAAAKCS4BUAAAAAAACgkuAVAAAAAAAAoJLgFQAAAAAAAKCS4BUAAAAAAACgkuAVAAAAAAAAoJLgFQAAAAAAAKCS4BUAAAAAAACgkuAVAAAAAAAAoJLgFQAAAAAAAKCS4BUAAAAAAACgkuAVAAAAAAAAoJLgFQAAAAAAAKCS4BUAAAAAAACgkuAVAAAAAAAAoJLgFQAAAAAAAKCS4BUAAAAAAACgkuAVAAAAAAAAoJLgFQAAAAAAAKCS4BUAAAAAAACgkuAVAAAAAAAAoJLgFQAAAAAAAKCS4BUAAAAAAACgkuAVAAAAAAAAoJLgFQAAAAAAAKCS4BUAAAAAAACgkuAVAAAAAAAAoJLgFQAAAAAAAKCS4BUAAAAAAACgkuAVAAAAAAAAoJLgFQAAAAAAAKCS4BUAAAAAAACgkuAVAAAAAAAAoJLgFQAAAAAAAKCS4BUAAAAAAACgkuAVAAAAAAAAoJLgFQAAAAAAAKCS4BUAAAAAAACgkuAVAAAAAAAAoJLgFQAAAAAAAKCS4BUAAAAAAACgkuAVAAAAAAAAoJLgFQAAAAAAAKCS4BUAAAAAAACgkuAVAAAAAAAAoJLgFQAAAAAAAKCS4BUAAAAAAACgkuAVAAAAAAAAoJLgFQAAAAAAAKCS4BUAAAAAAACgkuAVAAAAAAAAoJLgFQAAAAAAAKCS4BUAAAAAAACgkuAVAAAAAAAAoJLgFQAAAAAAAKCS4BUAAAAAAACgkuAVAAAAAAAAoJLgFQAAAAAAAKCS4BUAAAAAAACgkuAVAAAAAAAAoJLgFQAAAAAAAKCS4BUAAAAAAACgkuAVAAAAAAAAoJLgFQAAAAAAAKCS4BUAAAAAAACgkuAVAAAAAAAAoJLgFQAAAAAAAKCS4BUAAAAAAACgkuAVAAAAAAAAoJLgFQAAAAAAAKCS4BUAAAAAAACgkuAVAAAAAAAAoJLgFQAAAAAAAKCS4BUAAAAAAACgkuAVAAAAAAAAoJLgFQAAAAAAAKCS4BUAAAAAAACgkuAVAAAAAAAAoJLgFQAAAAAAAKCS4BUAAAAAAACgkuAVAAAAAAAAoJLgFQAAAAAAAKCS4BUAAAAAAACgkuAVAAAAAAAAoJLgFQAAAAAAAKCS4BUAAAAAAACgkuAVAAAAAAAAoJLgFQAAAAAAAKCS4BUAAAAAAACgkuAVAAAAAAAAoJLgFQAAAAAAAKCS4BUAAAAAAACgkuAVAAAAAAAAoJLgFQAAAAAAAKCS4BUAAAAAAACgkuAVAAAAAAAAoJLgFQAAAAAAAKCS4BUAAAAAAACgkuAVAAAAAAAAoJLgFQAAAAAAAKCS4BUAAAAAAACgkuAVAAAAAAAAoJLgFQAAAAAAAKCS4BUAAAAAAACgkuAVAAAAAAAAoJLgFQAAAAAAAKCS4BUAAAAAAACgkuAVAAAAAAAAoJLgFQAAAAAAAKCS4BUAAAAAAACgkuAVAAAAAAAAoJLgFQAAAAAAAKCS4BUAAAAAAACgkuAVAAAAAAAAoJLgFQAAAAAAAKCS4BUAAAAAAACgkuAVAAAAAAAAoJLgFQAAAAAAAKCS4BUAAAAAAACgkuAVAAAAAAAAoJLgFQAAAAAAAKCS4BUAAAAAAACgkuAVAAAAAAAAoJLgFQAAAAAAAKCS4BUAAAAAAACgkuAVAAAAAAAAoJLgFQAAAAAAAKCS4BUAAAAAAACgkuAVAAAAAAAAoJLgFQAAAAAAAKCS4BUAAAAAAACgkuAVAAAAAAAAoJLgFQAAAAAAAKCS4BUAAAAAAACgkuAVAAAAAAAAoJLgFQAAAAAAAKCS4BUAAAAAAACgkuAVAAAAAAAAoJLgFQAAAAAAAKCS4BUAAAAAAACgkuAVAAAAAAAAoJLgFQAAAAAAAKCS4BUAAAAAAACgkuAVAAAAAAAAoJLgFQAAAAAAAKCS4BUAAAAAAACgkuAVAAAAAAAAoEop/w8ZflcOllxp0QAAAABJRU5ErkJggg==;" vertex="1" parent="1">
                    <mxGeometry x="120" y="254.35" width="261.32" height="47.94" as="geometry"/>
                </mxCell>
                <mxCell id="14" value="provide:&lt;br style=&quot;font-size: 10px;&quot;&gt;user: {id: 1, name: &quot;str&quot;, email: &quot;str&quot;}" style="shape=callout;whiteSpace=wrap;html=1;perimeter=calloutPerimeter;sketch=1;hachureGap=4;jiggle=2;curveFitting=1;fontFamily=Architects Daughter;fontSource=https%3A%2F%2Ffonts.googleapis.com%2Fcss%3Ffamily%3DArchitects%2BDaughter;fontSize=10;fillColor=#0050ef;size=30;position=0.5;rotation=0;base=20;fontColor=#ffffff;strokeColor=#001DBC;" vertex="1" parent="1">
                    <mxGeometry x="550" y="20.000000000000007" width="165" height="75" as="geometry"/>
                </mxCell>
                <mxCell id="15" value="Dev.vue" style="rounded=1;whiteSpace=wrap;html=1;sketch=1;hachureGap=4;jiggle=2;curveFitting=1;fontFamily=Architects Daughter;fontSource=https%3A%2F%2Ffonts.googleapis.com%2Fcss%3Ffamily%3DArchitects%2BDaughter;fontSize=20;fillColor=none;" vertex="1" parent="1">
                    <mxGeometry x="510" y="314.35" width="120" height="60" as="geometry"/>
                </mxCell>
                <mxCell id="18" value="Plan.vue?&lt;br&gt;不会起名" style="rounded=1;whiteSpace=wrap;html=1;sketch=1;hachureGap=4;jiggle=2;curveFitting=1;fontFamily=Architects Daughter;fontSource=https%3A%2F%2Ffonts.googleapis.com%2Fcss%3Ffamily%3DArchitects%2BDaughter;fontSize=20;fillColor=none;" vertex="1" parent="1">
                    <mxGeometry x="710" y="314.35" width="120" height="60" as="geometry"/>
                </mxCell>
            </root>
        </mxGraphModel>
    </diagram>
</mxfile>